<svg width="32" height="36" viewBox="0 0 32 36" fill="none" xmlns="http://www.w3.org/2000/svg">
<path d="M31.193 29.9567L25.9317 20.7139C26.465 20.4651 26.7849 19.8963 26.7494 19.2564L26.3583 15.9859L28.5979 13.6397C29.0956 13.142 29.1312 12.2888 28.6335 11.6845L26.3939 9.26717L26.856 5.96112C26.9271 5.25014 26.4294 4.53916 25.7185 4.39696L22.4835 3.75708L20.9193 0.877615C20.5994 0.202185 19.8173 -0.082207 19.1063 0.202185H19.0708L16.0847 1.58859L13.1697 0.166636C12.8497 -0.0111091 12.4587 -0.046658 12.1032 0.0599889C11.7477 0.166636 11.4633 0.415479 11.2856 0.735419L9.68587 3.61489L6.45091 4.18367C5.70438 4.32587 5.20669 5.0013 5.27779 5.78337L5.66883 9.05388L3.42925 11.4001C2.93156 11.8978 2.89601 12.751 3.3937 13.3553L5.63328 15.7726L5.17115 19.0787C5.10005 19.7186 5.49109 20.3229 6.09542 20.5717L0.798621 29.9567C0.656425 30.17 0.691974 30.4544 0.798621 30.6677C0.940817 30.8809 1.15411 31.0231 1.40295 31.0231H7.09079L9.68587 35.5379C9.82806 35.7512 10.0414 35.8934 10.2902 35.8934C10.539 35.8934 10.7879 35.7512 10.8945 35.5379L15.978 26.8639L21.0615 35.6445C21.2037 35.8578 21.417 36 21.6659 36C21.9147 36 22.1636 35.8578 22.2702 35.6445L24.8653 31.0231H30.5531C30.802 31.0231 31.0508 30.8809 31.1574 30.6677C31.3352 30.4544 31.3352 30.17 31.193 29.9567ZM10.3257 33.7604L8.12171 29.9567C7.97951 29.7434 7.76622 29.6012 7.51738 29.6012H2.61162L7.51738 20.9272L9.54367 21.2827L11.1078 24.1622C11.4278 24.8376 12.2098 25.122 12.9208 24.8376H12.9564L14.4139 24.1622L15.1249 25.4064L10.3257 33.7604ZM12.3876 23.5579C12.352 23.5579 12.352 23.5579 12.352 23.5579L10.7879 20.6073C10.5746 20.2518 10.2191 19.9674 9.79251 19.9319L6.52201 19.3275L6.98414 16.057C7.05524 15.6304 6.91304 15.1683 6.62865 14.8839L4.42462 12.4666L6.6642 10.1203C6.98414 9.80041 7.12634 9.37382 7.05524 8.94723L6.6642 5.71228C6.6642 5.71228 6.6642 5.67673 6.69975 5.64118L9.93471 5.07239C10.3257 5.0013 10.7168 4.75245 10.9301 4.36141L12.5298 1.48195L15.4448 2.90391C15.8358 3.1172 16.3335 3.1172 16.7246 2.90391L19.6751 1.55305C19.7107 1.55305 19.7107 1.55305 19.7107 1.55305L21.2748 4.50361C21.4881 4.8591 21.8436 5.14349 22.2347 5.17904L25.4696 5.81892L25.0075 9.08943C24.9364 9.51602 25.0786 9.97815 25.363 10.2625L27.6025 12.6799L25.3274 15.0261C25.0075 15.346 24.8653 15.7726 24.9364 16.1992L25.3274 19.4697L22.128 20.003C21.737 20.0741 21.3459 20.3229 21.1326 20.7139L19.5329 23.5934L16.6179 22.1714C16.2269 21.9582 15.7292 21.9582 15.3382 22.1714L12.3876 23.5579ZM24.4742 29.6012C24.2254 29.6012 23.9766 29.7434 23.8699 29.9567L21.6659 33.8671L16.6535 25.1931C16.6179 25.0865 16.5824 25.0154 16.5113 24.9443L15.7292 23.5579L15.978 23.4512L18.893 24.8732C19.1063 24.9798 19.3196 25.0154 19.5329 25.0154C20.0306 25.0154 20.5283 24.7665 20.7771 24.3044L22.3768 21.4249L24.5098 21.0339L29.38 29.6012H24.4742Z" fill="#960F19"/>
<path d="M23.088 12.5378C23.088 8.62738 19.8886 5.42798 15.9782 5.42798C12.0678 5.42798 8.86841 8.62738 8.86841 12.5378C8.86841 16.4481 12.0678 19.6475 15.9782 19.6475C19.8886 19.6475 23.088 16.4481 23.088 12.5378ZM15.9782 18.2256C12.8499 18.2256 10.2904 15.6661 10.2904 12.5378C10.2904 9.40946 12.8499 6.84994 15.9782 6.84994C19.1065 6.84994 21.666 9.40946 21.666 12.5378C21.666 15.6661 19.1065 18.2256 15.9782 18.2256Z" fill="#960F19"/>
</svg>
