<svg width="48" height="48" viewBox="0 0 48 48" fill="none" xmlns="http://www.w3.org/2000/svg">
<path d="M41.7534 21.5231C41.7081 21.4851 37.7308 18.1415 37.6855 18.1034L36.8432 18.8318C36.5245 19.1074 36.0448 19.07 35.7716 18.7486C35.4985 18.4272 35.5353 17.9431 35.8541 17.6676L37.184 16.5176C37.4656 16.2741 37.8802 16.2712 38.1651 16.5107L41.4784 19.2961V6.36656C41.4784 4.2529 39.7738 2.5333 37.6785 2.5333C35.5833 2.5333 33.8787 4.2529 33.8787 6.36656V46.2325C33.8787 46.6559 33.5384 46.9991 33.1187 46.9991C32.6991 46.9991 32.3588 46.6559 32.3588 46.2325V6.36656C32.3588 4.86603 32.9731 3.5081 33.9606 2.5333H10.3198C8.22454 2.5333 6.51993 4.2529 6.51993 6.36656V44.5957L9.8332 41.8103C10.115 41.5734 10.5244 41.5734 10.8062 41.8103L14.8795 45.2346L18.9527 41.8103C19.2345 41.5734 19.6439 41.5734 19.9257 41.8103L23.999 45.2346L28.0722 41.8103C28.354 41.5734 28.7634 41.5734 29.0452 41.8103L30.193 42.7752C30.5154 43.0462 30.559 43.5296 30.2903 43.8549C30.0215 44.1801 29.5423 44.2241 29.2199 43.953L28.5588 43.3971L24.4855 46.8214C24.2037 47.0583 23.7943 47.0583 23.5125 46.8214L19.4393 43.3971L15.366 46.8214C15.0842 47.0583 14.6748 47.0583 14.393 46.8214L10.3198 43.3971L6.24653 46.8214C5.75189 47.2371 5 46.8806 5 46.2324V6.36656C5 3.40748 7.38648 1 10.3198 1H37.6785C40.6118 1 42.9983 3.40748 42.9983 6.36656C42.9983 22.0045 43.0092 20.9781 42.9755 21.1163C42.8415 21.6672 42.1816 21.8815 41.7534 21.5231ZM19.4394 16.333C19.0203 16.333 18.6794 15.9891 18.6794 15.5664C18.6794 15.143 18.3391 14.7997 17.9194 14.7997C17.4997 14.7997 17.1595 15.143 17.1595 15.5664C17.1595 16.4547 17.6616 17.2266 18.3944 17.6095V18.058C18.3944 18.4814 18.7347 18.8247 19.1544 18.8247C19.5741 18.8247 19.9143 18.4814 19.9143 18.058V17.8157C20.9442 17.5947 21.7193 16.6703 21.7193 15.5664V15.2562C21.7193 14.2448 21.0763 13.3626 20.1194 13.061L19.2127 12.7751C18.8937 12.6746 18.6794 12.3805 18.6794 12.0433V11.7331C18.6794 11.3104 19.0203 10.9665 19.4394 10.9665C19.8584 10.9665 20.1993 11.3104 20.1993 11.7331C20.1993 12.1565 20.5396 12.4998 20.9593 12.4998C21.379 12.4998 21.7193 12.1565 21.7193 11.7331C21.7193 10.7337 21.0838 9.88147 20.1993 9.56504V9.24151C20.1993 8.81813 19.859 8.47486 19.4394 8.47486C19.0197 8.47486 18.6794 8.81813 18.6794 9.24151V9.56504C17.7949 9.88147 17.1595 10.7337 17.1595 11.7331V12.0433C17.1595 13.0547 17.8024 13.937 18.7593 14.2385L19.666 14.5244C19.985 14.6249 20.1993 14.919 20.1993 15.2562V15.5664C20.1993 15.9891 19.8584 16.333 19.4394 16.333ZM12.5997 14.4164H13.9296C14.3493 14.4164 14.6896 14.0731 14.6896 13.6498C14.6896 13.2264 14.3493 12.8831 13.9296 12.8831H12.5997C12.18 12.8831 11.8397 13.2264 11.8397 13.6498C11.8397 14.0731 12.18 14.4164 12.5997 14.4164ZM26.2791 12.8831H24.9491C24.5294 12.8831 24.1891 13.2264 24.1891 13.6498C24.1891 14.0731 24.5294 14.4164 24.9491 14.4164H26.2791C26.6987 14.4164 27.039 14.0731 27.039 13.6498C27.039 13.2264 26.6988 12.8831 26.2791 12.8831ZM26.2791 23.8079H12.5997C12.18 23.8079 11.8397 24.1512 11.8397 24.5746C11.8397 24.9979 12.18 25.3412 12.5997 25.3412H26.2791C26.6987 25.3412 27.039 24.9979 27.039 24.5746C27.039 24.1512 26.6988 23.8079 26.2791 23.8079ZM26.2791 30.7078H24.7591C24.3394 30.7078 23.9992 31.051 23.9992 31.4744C23.9992 31.8978 24.3394 32.2411 24.7591 32.2411H26.2791C26.6987 32.2411 27.039 31.8978 27.039 31.4744C27.039 31.051 26.6988 30.7078 26.2791 30.7078ZM12.5997 30.7078C12.18 30.7078 11.8397 31.051 11.8397 31.4744C11.8397 31.8978 12.18 32.2411 12.5997 32.2411H21.7035C22.1232 32.2411 22.4635 31.8978 22.4635 31.4744C22.4635 31.051 22.1232 30.7078 21.7035 30.7078H12.5997Z" fill="#960F19"/>
</svg>
