<svg width="48" height="48" viewBox="0 0 48 48" fill="none" xmlns="http://www.w3.org/2000/svg">
<path d="M40.819 21.6308C40.7761 21.5945 37.0081 18.3962 36.9652 18.3598L36.1673 19.0565C35.8654 19.3201 35.4109 19.2843 35.152 18.9769C34.8933 18.6694 34.9282 18.2064 35.2302 17.9429L36.4901 16.8429C36.7569 16.61 37.1497 16.6073 37.4196 16.8363L40.5585 19.5006V7.13324C40.5585 5.11147 38.9436 3.46664 36.9586 3.46664C34.9737 3.46664 33.3588 5.11147 33.3588 7.13324V45.2658C33.3588 45.6708 33.0364 45.9992 32.6388 45.9992C32.2412 45.9992 31.9188 45.6708 31.9188 45.2658V7.13324C31.9188 5.69795 32.5009 4.39905 33.4364 3.46664H11.0398C9.05482 3.46664 7.43994 5.11147 7.43994 7.13324V43.7002L10.5788 41.036C10.8458 40.8094 11.2336 40.8094 11.5006 41.036L15.3595 44.3113L19.2183 41.036C19.4854 40.8094 19.8732 40.8094 20.1402 41.036L23.999 44.3113L27.8579 41.036C28.1249 40.8094 28.5127 40.8094 28.7797 41.036L29.867 41.9588C30.1725 42.2181 30.2138 42.6805 29.9592 42.9916C29.7046 43.3027 29.2506 43.3448 28.9452 43.0855L28.3188 42.5537L24.46 45.8291C24.193 46.0557 23.8052 46.0557 23.5381 45.8291L19.6793 42.5537L15.8205 45.8291C15.5534 46.0557 15.1656 46.0557 14.8986 45.8291L11.0398 42.5537L7.18093 45.8291C6.71232 46.2268 6 45.8858 6 45.2657V7.13324C6 4.30281 8.26088 2 11.0398 2H36.9586C39.7375 2 41.9984 4.30281 41.9984 7.13324C41.9984 22.0913 42.0087 21.1095 41.9768 21.2417C41.8498 21.7686 41.2247 21.9736 40.819 21.6308ZM19.6794 16.6664C19.2824 16.6664 18.9594 16.3374 18.9594 15.9331C18.9594 15.5281 18.6371 15.1997 18.2395 15.1997C17.8419 15.1997 17.5195 15.5281 17.5195 15.9331C17.5195 16.7828 17.9952 17.5211 18.6894 17.8874V18.3164C18.6894 18.7213 19.0118 19.0497 19.4094 19.0497C19.807 19.0497 20.1294 18.7213 20.1294 18.3164V18.0846C21.105 17.8732 21.8393 16.989 21.8393 15.9331V15.6363C21.8393 14.6689 21.2302 13.825 20.3237 13.5366L19.4647 13.2631C19.1625 13.167 18.9594 12.8857 18.9594 12.5632V12.2665C18.9594 11.8621 19.2824 11.5332 19.6794 11.5332C20.0764 11.5332 20.3994 11.8621 20.3994 12.2665C20.3994 12.6714 20.7217 12.9998 21.1193 12.9998C21.5169 12.9998 21.8393 12.6714 21.8393 12.2665C21.8393 11.3105 21.2373 10.4953 20.3994 10.1926V9.88318C20.3994 9.47821 20.077 9.14986 19.6794 9.14986C19.2818 9.14986 18.9594 9.47821 18.9594 9.88318V10.1926C18.1215 10.4953 17.5195 11.3105 17.5195 12.2665V12.5632C17.5195 13.5306 18.1286 14.3745 19.0351 14.663L19.8941 14.9364C20.1963 15.0326 20.3994 15.3139 20.3994 15.6363V15.9331C20.3994 16.3374 20.0764 16.6664 19.6794 16.6664ZM13.1997 14.8331H14.4596C14.8572 14.8331 15.1796 14.5047 15.1796 14.0998C15.1796 13.6948 14.8572 13.3664 14.4596 13.3664H13.1997C12.8021 13.3664 12.4797 13.6948 12.4797 14.0998C12.4797 14.5047 12.8021 14.8331 13.1997 14.8331ZM26.1591 13.3664H24.8992C24.5016 13.3664 24.1792 13.6948 24.1792 14.0998C24.1792 14.5047 24.5016 14.8331 24.8992 14.8331H26.1591C26.5567 14.8331 26.8791 14.5047 26.8791 14.0998C26.8791 13.6948 26.5568 13.3664 26.1591 13.3664ZM26.1591 23.8162H13.1997C12.8021 23.8162 12.4797 24.1446 12.4797 24.5496C12.4797 24.9545 12.8021 25.2829 13.1997 25.2829H26.1591C26.5567 25.2829 26.8791 24.9545 26.8791 24.5496C26.8791 24.1446 26.5568 23.8162 26.1591 23.8162ZM26.1591 30.4161H24.7192C24.3216 30.4161 23.9992 30.7445 23.9992 31.1494C23.9992 31.5544 24.3216 31.8828 24.7192 31.8828H26.1591C26.5567 31.8828 26.8791 31.5544 26.8791 31.1494C26.8791 30.7445 26.5568 30.4161 26.1591 30.4161ZM13.1997 30.4161C12.8021 30.4161 12.4797 30.7445 12.4797 31.1494C12.4797 31.5544 12.8021 31.8828 13.1997 31.8828H21.8244C22.222 31.8828 22.5443 31.5544 22.5443 31.1494C22.5443 30.7445 22.222 30.4161 21.8244 30.4161H13.1997Z" fill="#333333"/>
</svg>
