<svg width="24" height="24" viewBox="0 0 24 24" fill="none" xmlns="http://www.w3.org/2000/svg">
<path d="M17.79 10.2099L18.59 10.9999L14 10.9999C13.7348 10.9999 13.4804 11.1053 13.2929 11.2928C13.1054 11.4804 13 11.7347 13 11.9999C13 12.2652 13.1054 12.5195 13.2929 12.707C13.4804 12.8946 13.7348 12.9999 14 12.9999L18.59 12.9999L17.79 13.7899C17.6963 13.8829 17.6219 13.9935 17.5711 14.1154C17.5204 14.2372 17.4942 14.3679 17.4942 14.4999C17.4942 14.632 17.5204 14.7627 17.5711 14.8845C17.6219 15.0064 17.6963 15.117 17.79 15.2099C17.883 15.3037 17.9936 15.3781 18.1154 15.4288C18.2373 15.4796 18.368 15.5057 18.5 15.5057C18.632 15.5057 18.7627 15.4796 18.8846 15.4288C19.0064 15.3781 19.117 15.3037 19.21 15.2099L21.71 12.7099C21.8011 12.6148 21.8724 12.5027 21.92 12.3799C22.02 12.1365 22.02 11.8634 21.92 11.6199C21.8724 11.4972 21.8011 11.385 21.71 11.2899L19.21 8.78994C19.0217 8.60164 18.7663 8.49585 18.5 8.49585C18.2337 8.49585 17.9783 8.60164 17.79 8.78994C17.6017 8.97824 17.4959 9.23364 17.4959 9.49994C17.4959 9.76624 17.6017 10.0216 17.79 10.2099ZM6.21001 13.7899L5.41001 12.9999L10 12.9999C10.2652 12.9999 10.5196 12.8946 10.7071 12.707C10.8947 12.5195 11 12.2652 11 11.9999C11 11.7347 10.8947 11.4804 10.7071 11.2928C10.5196 11.1053 10.2652 10.9999 10 10.9999L5.41001 10.9999L6.21001 10.2099C6.30325 10.1167 6.37721 10.006 6.42767 9.88419C6.47813 9.76237 6.5041 9.6318 6.5041 9.49994C6.5041 9.36808 6.47813 9.23751 6.42767 9.11569C6.37721 8.99387 6.30325 8.88318 6.21001 8.78994C6.11677 8.6967 6.00608 8.62274 5.88426 8.57228C5.76244 8.52182 5.63187 8.49585 5.50001 8.49585C5.36815 8.49585 5.23759 8.52182 5.11576 8.57228C4.99394 8.62274 4.88325 8.6967 4.79001 8.78994L2.29001 11.2899C2.19897 11.385 2.12761 11.4972 2.08001 11.6199C2.02711 11.7396 1.99978 11.8691 1.99978 11.9999C1.99978 12.1308 2.02711 12.2602 2.08001 12.3799C2.12761 12.5027 2.19897 12.6148 2.29001 12.7099L4.79001 15.2099C4.97832 15.3982 5.23371 15.504 5.50001 15.504C5.76631 15.504 6.02171 15.3982 6.21001 15.2099C6.39832 15.0216 6.5041 14.7662 6.5041 14.4999C6.5041 14.2336 6.39832 13.9782 6.21001 13.7899Z" fill="#999999"/>
</svg>
