<svg width="24" height="24" viewBox="0 0 24 24" fill="none" xmlns="http://www.w3.org/2000/svg">
<path d="M13.79 17.79L13 18.59L13 14C13 13.7348 12.8946 13.4804 12.7071 13.2929C12.5196 13.1053 12.2652 13 12 13C11.7348 13 11.4804 13.1053 11.2929 13.2929C11.1054 13.4804 11 13.7348 11 14L11 18.59L10.21 17.79C10.117 17.6963 10.0064 17.6219 9.88458 17.5711C9.76272 17.5203 9.63201 17.4942 9.5 17.4942C9.36799 17.4942 9.23728 17.5203 9.11542 17.5711C8.99356 17.6219 8.88296 17.6963 8.79 17.79C8.69627 17.8829 8.62188 17.9935 8.57111 18.1154C8.52034 18.2373 8.4942 18.368 8.4942 18.5C8.4942 18.632 8.52034 18.7627 8.57111 18.8846C8.62188 19.0064 8.69627 19.117 8.79 19.21L11.29 21.71C11.3851 21.801 11.4972 21.8724 11.62 21.92C11.8635 22.02 12.1365 22.02 12.38 21.92C12.5027 21.8724 12.6149 21.801 12.71 21.71L15.21 19.21C15.3983 19.0217 15.5041 18.7663 15.5041 18.5C15.5041 18.2337 15.3983 17.9783 15.21 17.79C15.0217 17.6017 14.7663 17.4959 14.5 17.4959C14.2337 17.4959 13.9783 17.6017 13.79 17.79ZM10.21 6.20998L11 5.40998L11 9.99998C11 10.2652 11.1054 10.5196 11.2929 10.7071C11.4804 10.8946 11.7348 11 12 11C12.2652 11 12.5196 10.8946 12.7071 10.7071C12.8946 10.5196 13 10.2652 13 9.99998L13 5.40998L13.79 6.20998C13.8832 6.30322 13.9939 6.37718 14.1157 6.42764C14.2376 6.4781 14.3681 6.50407 14.5 6.50407C14.6319 6.50407 14.7624 6.4781 14.8842 6.42764C15.0061 6.37718 15.1168 6.30322 15.21 6.20998C15.3032 6.11674 15.3772 6.00605 15.4277 5.88423C15.4781 5.76241 15.5041 5.63184 15.5041 5.49998C15.5041 5.36812 15.4781 5.23755 15.4277 5.11573C15.3772 4.99391 15.3032 4.88322 15.21 4.78998L12.71 2.28998C12.6149 2.19894 12.5028 2.12757 12.38 2.07998C12.2603 2.02707 12.1309 1.99975 12 1.99975C11.8691 1.99975 11.7397 2.02707 11.62 2.07998C11.4972 2.12757 11.3851 2.19894 11.29 2.28998L8.79 4.78998C8.6017 4.97828 8.49591 5.23368 8.49591 5.49998C8.49591 5.76628 8.6017 6.02168 8.79 6.20998C8.9783 6.39828 9.2337 6.50407 9.5 6.50407C9.7663 6.50407 10.0217 6.39828 10.21 6.20998Z" fill="#999999"/>
</svg>
