<svg width="24" height="24" viewBox="0 0 24 24" fill="none" xmlns="http://www.w3.org/2000/svg">
<path d="M12 20C10.4178 20 8.87103 19.5308 7.55544 18.6518C6.23985 17.7727 5.21447 16.5233 4.60897 15.0615C4.00347 13.5997 3.84504 11.9911 4.15372 10.4393C4.4624 8.88743 5.22433 7.46197 6.34315 6.34315C7.46197 5.22433 8.88743 4.4624 10.4393 4.15372C11.9911 3.84504 13.5997 4.00347 15.0615 4.60897C16.5233 5.21447 17.7727 6.23985 18.6518 7.55544C19.5308 8.87103 20 10.4178 20 12C20 14.1217 19.1571 16.1566 17.6569 17.6569C16.1566 19.1571 14.1217 20 12 20ZM12 5.14286C10.6438 5.14286 9.31803 5.54502 8.19038 6.2985C7.06273 7.05197 6.18383 8.12291 5.66483 9.37589C5.14583 10.6289 5.01003 12.0076 5.27462 13.3378C5.5392 14.6679 6.19228 15.8897 7.15127 16.8487C8.11026 17.8077 9.33209 18.4608 10.6622 18.7254C11.9924 18.99 13.3711 18.8542 14.6241 18.3352C15.8771 17.8162 16.948 16.9373 17.7015 15.8096C18.455 14.682 18.8571 13.3562 18.8571 12C18.8571 10.1814 18.1347 8.43723 16.8487 7.15127C15.5628 5.86531 13.8186 5.14286 12 5.14286Z" fill="#960F19"/>
<path d="M14.9929 16L11 12.646V7H12.4286V12.148L16 15.154L14.9929 16Z" fill="#960F19"/>
</svg>
