<svg width="48" height="48" viewBox="0 0 48 48" fill="none" xmlns="http://www.w3.org/2000/svg">
<path d="M47.2969 29.1184C47.6852 29.1184 48 28.8037 48 28.4153V13.47C48 11.5314 46.4229 9.95438 44.4844 9.95438H37.1096V3.51562C37.1096 1.57706 35.5326 0 33.594 0H14.406C12.4674 0 10.8904 1.57706 10.8904 3.51562V9.95438H3.51562C1.57706 9.95438 0 11.5314 0 13.47V37.3425C0 39.2811 1.57706 40.8581 3.51562 40.8581H20.5568V43.7812H19.6685C17.8851 43.7812 16.4341 45.2322 16.4341 47.0156C16.4341 47.5584 16.8757 48 17.4185 48H30.5814C31.1243 48 31.5658 47.5584 31.5658 47.0156C31.5658 45.2322 30.1148 43.7812 28.3314 43.7812H27.4432V40.8581H44.4844C46.4229 40.8581 48 39.2811 48 37.3425V31.6964C48 31.308 47.6852 30.9933 47.2969 30.9933C46.9086 30.9933 46.5938 31.308 46.5938 31.6964V37.3425C46.5938 38.5056 45.6475 39.4519 44.4844 39.4519H26.7473C26.7449 39.4519 26.7426 39.4515 26.7401 39.4515C26.7377 39.4515 26.7353 39.4519 26.7329 39.4519H21.2672C21.2648 39.4519 21.2624 39.4515 21.26 39.4515C21.2575 39.4515 21.2552 39.4519 21.2528 39.4519H3.51562C2.35247 39.4519 1.40625 38.5056 1.40625 37.3425V13.47C1.40625 12.3069 2.35247 11.3606 3.51562 11.3606H10.8904V12.7669H3.79688C3.25406 12.7669 2.8125 13.2084 2.8125 13.7512V37.3425C2.8125 37.7309 3.12731 38.0456 3.51562 38.0456H44.2031C44.7459 38.0456 45.1875 37.6041 45.1875 37.0612V13.7512C45.1875 13.2084 44.7459 12.7669 44.2031 12.7669H37.1096V11.3606H44.4844C45.6475 11.3606 46.5938 12.3069 46.5938 13.47V28.4153C46.5938 28.8036 46.9086 29.1184 47.2969 29.1184ZM21.963 40.8581H26.037V43.7812H21.963V40.8581ZM28.3315 45.1875C29.1944 45.1875 29.9196 45.7883 30.1105 46.5938H17.8895C18.0804 45.7883 18.8056 45.1875 19.6685 45.1875H28.3315ZM10.8904 36.6394H4.21875V14.1731H10.8904V36.6394ZM35.7034 36.6394H12.2966V3.51562C12.2966 2.35256 13.2428 1.40625 14.406 1.40625H33.594C34.7572 1.40625 35.7034 2.35256 35.7034 3.51562V36.6394ZM43.7812 14.1731V36.6394H37.1096V14.1731H43.7812ZM32.096 25.4062H15.904C15.5157 25.4062 15.2009 25.721 15.2009 26.1094C15.2009 26.4978 15.5157 26.8125 15.904 26.8125H32.096C32.4843 26.8125 32.7991 26.4978 32.7991 26.1094C32.7991 25.721 32.4843 25.4062 32.096 25.4062ZM24 4.21875C22.0443 4.21875 20.1832 4.83787 18.6178 6.00937C18.3069 6.24197 18.2435 6.68278 18.4762 6.99356C18.7088 7.30444 19.1495 7.368 19.4604 7.13531C20.7806 6.14719 22.3504 5.625 24 5.625C28.1873 5.625 31.5938 9.03159 31.5938 13.2188C31.5938 17.4059 28.1873 20.8125 24 20.8125C19.8127 20.8125 16.4062 17.4059 16.4062 13.2188C16.4062 11.8616 16.7702 10.5291 17.4588 9.36506C17.6565 9.03094 17.5459 8.59969 17.2117 8.40197C16.8774 8.20434 16.4462 8.31488 16.2485 8.64919C15.4317 10.0297 15 11.6099 15 13.2188C15 18.1814 19.0373 22.2188 24 22.2188C28.9627 22.2188 33 18.1814 33 13.2188C33 8.25609 28.9627 4.21875 24 4.21875ZM20.7604 16.838C21.7402 17.8268 23.4211 17.8339 24.4061 16.8377L28.7973 12.4464C29.6402 11.6105 29.5948 10.1859 28.7241 9.39356C27.8904 8.63494 26.5998 8.67797 25.7861 9.49153L22.5832 12.6945L22.1857 12.297C21.3764 11.4796 20.014 11.4853 19.2024 12.2969C18.3801 13.1193 18.38 14.4575 19.2024 15.2799L20.7604 16.838ZM20.1969 13.2913C20.4675 13.0208 20.922 13.0192 21.1913 13.2912L21.8871 13.987C22.2625 14.3664 22.9026 14.3679 23.2792 13.9872L26.7805 10.4859C27.0576 10.2088 27.505 10.1854 27.7777 10.4335C28.0702 10.6996 28.0849 11.1732 27.8031 11.4519L23.4119 15.8432C23.1911 16.0639 22.8968 16.1855 22.5833 16.1855C22.2697 16.1855 21.9754 16.064 21.7548 15.8435L20.197 14.2856C19.9228 14.0115 19.9228 13.5654 20.1969 13.2913ZM32.096 29.625H15.904C15.5157 29.625 15.2009 29.9397 15.2009 30.3281C15.2009 30.7165 15.5157 31.0312 15.904 31.0312H32.096C32.4843 31.0312 32.7991 30.7165 32.7991 30.3281C32.7991 29.9397 32.4843 29.625 32.096 29.625Z" fill="#960F19"/>
</svg>
