<svg width="48" height="48" viewBox="0 0 48 48" fill="none" xmlns="http://www.w3.org/2000/svg">
<path d="M8.33333 28H5.66667C5.298 28 5 28.3725 5 28.8333V32.1667C5 32.6275 5.298 33 5.66667 33H8.33333C8.702 33 9 32.6275 9 32.1667V28.8333C9 28.3725 8.702 28 8.33333 28ZM7.66667 31.3333H6.33333V29.6667H7.66667V31.3333Z" fill="#333333"/>
<path d="M8.33333 34H5.66667C5.298 34 5 34.3725 5 34.8333V38.1667C5 38.6275 5.298 39 5.66667 39H8.33333C8.702 39 9 38.6275 9 38.1667V34.8333C9 34.3725 8.702 34 8.33333 34ZM7.66667 37.3333H6.33333V35.6667H7.66667V37.3333Z" fill="#333333"/>
<path d="M8.33333 40H5.66667C5.298 40 5 40.3725 5 40.8333V44.1667C5 44.6275 5.298 45 5.66667 45H8.33333C8.702 45 9 44.6275 9 44.1667V40.8333C9 40.3725 8.702 40 8.33333 40ZM7.66667 43.3333H6.33333V41.6667H7.66667V43.3333Z" fill="#333333"/>
<path d="M42.3333 28H39.6667C39.298 28 39 28.3725 39 28.8333V32.1667C39 32.6275 39.298 33 39.6667 33H42.3333C42.702 33 43 32.6275 43 32.1667V28.8333C43 28.3725 42.702 28 42.3333 28ZM41.6667 31.3333H40.3333V29.6667H41.6667V31.3333Z" fill="#333333"/>
<path d="M8.33333 22H5.66667C5.298 22 5 22.298 5 22.6667V25.3333C5 25.702 5.298 26 5.66667 26H8.33333C8.702 26 9 25.702 9 25.3333V22.6667C9 22.298 8.702 22 8.33333 22ZM7.66667 24.6667H6.33333V23.3333H7.66667V24.6667Z" fill="#333333"/>
<path d="M42.3333 22H39.6667C39.298 22 39 22.298 39 22.6667V25.3333C39 25.702 39.298 26 39.6667 26H42.3333C42.702 26 43 25.702 43 25.3333V22.6667C43 22.298 42.702 22 42.3333 22ZM41.6667 24.6667H40.3333V23.3333H41.6667V24.6667Z" fill="#333333"/>
<path d="M42.3333 34H39.6667C39.298 34 39 34.3725 39 34.8333V38.1667C39 38.6275 39.298 39 39.6667 39H42.3333C42.702 39 43 38.6275 43 38.1667V34.8333C43 34.3725 42.702 34 42.3333 34ZM41.6667 37.3333H40.3333V35.6667H41.6667V37.3333Z" fill="#333333"/>
<path d="M32.1667 34H28.8333C28.3725 34 28 34.3725 28 34.8333V38.1667C28 38.6275 28.3725 39 28.8333 39H32.1667C32.6275 39 33 38.6275 33 38.1667V34.8333C33 34.3725 32.6275 34 32.1667 34ZM31.3333 37.3333H29.6667V35.6667H31.3333V37.3333Z" fill="#333333"/>
<path d="M25.3333 34H22.6667C22.298 34 22 34.3725 22 34.8333V38.1667C22 38.6275 22.298 39 22.6667 39H25.3333C25.702 39 26 38.6275 26 38.1667V34.8333C26 34.3725 25.702 34 25.3333 34ZM24.6667 37.3333H23.3333V35.6667H24.6667V37.3333Z" fill="#333333"/>
<path d="M19.1667 34H15.8333C15.3725 34 15 34.3725 15 34.8333V38.1667C15 38.6275 15.3725 39 15.8333 39H19.1667C19.6275 39 20 38.6275 20 38.1667V34.8333C20 34.3725 19.6275 34 19.1667 34ZM18.3333 37.3333H16.6667V35.6667H18.3333V37.3333Z" fill="#333333"/>
<path d="M33 22.6667C33 22.298 32.6275 22 32.1667 22H28.8333C28.3725 22 28 22.298 28 22.6667V25.3333C28 25.702 28.3725 26 28.8333 26H32.1667C32.6275 26 33 25.702 33 25.3333V22.6667ZM31.3333 24.6667H29.6667V23.3333H31.3333V24.6667Z" fill="#333333"/>
<path d="M26 22.6667C26 22.298 25.702 22 25.3333 22H22.6667C22.298 22 22 22.298 22 22.6667V25.3333C22 25.702 22.298 26 22.6667 26H25.3333C25.702 26 26 25.702 26 25.3333V22.6667ZM24.6667 24.6667H23.3333V23.3333H24.6667V24.6667Z" fill="#333333"/>
<path d="M20 22.6667C20 22.298 19.6275 22 19.1667 22H15.8333C15.3725 22 15 22.298 15 22.6667V25.3333C15 25.702 15.3725 26 15.8333 26H19.1667C19.6275 26 20 25.702 20 25.3333V22.6667ZM18.3333 24.6667H16.6667V23.3333H18.3333V24.6667Z" fill="#333333"/>
<path d="M33 28.8333C33 28.3725 32.6275 28 32.1667 28H28.8333C28.3725 28 28 28.3725 28 28.8333V32.1667C28 32.6275 28.3725 33 28.8333 33H32.1667C32.6275 33 33 32.6275 33 32.1667V28.8333ZM31.3333 31.3333H29.6667V29.6667H31.3333V31.3333Z" fill="#333333"/>
<path d="M26 28.8333C26 28.3725 25.702 28 25.3333 28H22.6667C22.298 28 22 28.3725 22 28.8333V32.1667C22 32.6275 22.298 33 22.6667 33H25.3333C25.702 33 26 32.6275 26 32.1667V28.8333ZM24.6667 31.3333H23.3333V29.6667H24.6667V31.3333Z" fill="#333333"/>
<path d="M20 28.8333C20 28.3725 19.6275 28 19.1667 28H15.8333C15.3725 28 15 28.3725 15 28.8333V32.1667C15 32.6275 15.3725 33 15.8333 33H19.1667C19.6275 33 20 32.6275 20 32.1667V28.8333ZM18.3333 31.3333H16.6667V29.6667H18.3333V31.3333Z" fill="#333333"/>
<path d="M42.3333 40H39.6667C39.298 40 39 40.3725 39 40.8333V44.1667C39 44.6275 39.298 45 39.6667 45H42.3333C42.702 45 43 44.6275 43 44.1667V40.8333C43 40.3725 42.702 40 42.3333 40ZM41.6667 43.3333H40.3333V41.6667H41.6667V43.3333Z" fill="#333333"/>
<path d="M46.4516 46.4348V19.0435C46.4516 18.6107 46.1055 18.2609 45.6774 18.2609H44.9032V15.913C44.9032 15.4803 44.5572 15.1304 44.129 15.1304H35.6129V12.7826C35.6129 12.3498 35.2668 12 34.8387 12H31.7419V13.5652H34.0645V46.4348H27.871V40.9565C27.871 40.5237 27.5249 40.1739 27.0968 40.1739H20.9032C20.4751 40.1739 20.129 40.5237 20.129 40.9565V46.4348H13.9355V13.5652H16.2581V12H13.1613C12.7332 12 12.3871 12.3498 12.3871 12.7826V15.1304H3.87097C3.44284 15.1304 3.09677 15.4803 3.09677 15.913V18.2609H2.32258C1.89445 18.2609 1.54839 18.6107 1.54839 19.0435V46.4348H0V48H48V46.4348H46.4516ZM43.3548 16.6957V18.2609H35.6129V16.6957H43.3548ZM35.6129 19.8261H44.9032V46.4348H35.6129V19.8261ZM21.6774 41.7391H26.3226V46.4348H21.6774V41.7391ZM4.64516 16.6957H12.3871V18.2609H4.64516V16.6957ZM3.09677 19.8261H12.3871V46.4348H3.09677V19.8261Z" fill="#333333"/>
<path d="M21.7104 15.0577L23.2416 19.4738C23.3504 19.7885 23.6552 20 24 20C24.3448 20 24.6496 19.7885 24.7584 19.4738L26.2896 15.0577C29.6744 14.0908 32 11.1223 32 7.69231C32 3.45077 28.4112 0 24 0C19.5888 0 16 3.45077 16 7.69231C16 11.1223 18.3256 14.0908 21.7104 15.0577ZM24 1.53846C27.5288 1.53846 30.4 4.29923 30.4 7.69231C30.4 10.5531 28.3784 13.0123 25.4824 13.6731C25.2136 13.7346 24.9968 13.9254 24.9088 14.1777L24 16.7985L23.0912 14.1785C23.004 13.9262 22.7864 13.7354 22.5176 13.6738C19.6216 13.0123 17.6 10.5531 17.6 7.69231C17.6 4.29923 20.4712 1.53846 24 1.53846Z" fill="#333333"/>
<path d="M24 12C26.7575 12 29 9.98175 29 7.5C29 5.01825 26.7575 3 24 3C21.2425 3 19 5.01825 19 7.5C19 9.98175 21.2425 12 24 12ZM24 4.5C25.8383 4.5 27.3333 5.8455 27.3333 7.5C27.3333 9.1545 25.8383 10.5 24 10.5C22.1617 10.5 20.6667 9.1545 20.6667 7.5C20.6667 5.8455 22.1617 4.5 24 4.5Z" fill="#333333"/>
</svg>
