<svg width="48" height="48" viewBox="0 0 48 48" fill="none" xmlns="http://www.w3.org/2000/svg">
<path d="M27.9001 16.125C28.2729 16.125 28.5751 15.8228 28.5751 15.45C28.5751 15.0772 28.2729 14.775 27.9001 14.775C27.5273 14.775 27.2251 15.0772 27.2251 15.45C27.2251 15.8228 27.5273 16.125 27.9001 16.125Z" fill="#333333"/>
<path d="M20.0998 16.125C20.4726 16.125 20.7748 15.8228 20.7748 15.45C20.7748 15.0772 20.4726 14.775 20.0998 14.775C19.727 14.775 19.4248 15.0772 19.4248 15.45C19.4248 15.8228 19.727 16.125 20.0998 16.125Z" fill="#333333"/>
<path d="M24 22.35C22.35 22.35 21 21 21 19.425H22.425C22.5 20.25 23.175 21 24.075 21C24.975 21 25.65 20.325 25.725 19.425H27C27 21.075 25.65 22.35 24 22.35Z" fill="#333333"/>
<path d="M3.1502 47.925V46.5H7.80019V38.625H6.30019V32.475C6.30019 31.125 6.8252 29.85 7.72519 28.875L7.80019 28.8L3.7502 24.75L3.6752 24.825C3.0752 25.5 2.4002 25.95 1.5752 26.1H1.5002V31.575H0.0751953V8.62499H1.5002V13.35H1.5752C3.3002 13.725 4.5752 15.3 4.5752 17.1V17.55L13.9502 26.925L13.8752 26.7L18.6752 25.8V24.15C17.5502 23.025 16.8002 21.6 16.5002 20.1V20.025H16.4252C14.5502 19.725 13.2752 18.15 13.2752 16.275V10.125C13.2752 4.57499 17.7752 0.149994 23.2502 0.149994C25.9502 0.149994 28.4252 1.19999 30.3002 3.07499L31.3502 4.12499C33.4502 5.24999 34.7252 7.34999 34.7252 9.74999V16.35C34.7252 18.225 33.3752 19.8 31.5752 20.1H31.5002V20.175C31.2002 21.675 30.4502 23.1 29.3252 24.15V25.875L37.3502 27.375C39.9002 27.825 41.7002 30.075 41.7002 32.625V38.775H40.1252V46.5H44.7752V47.925H3.1502ZM30.9752 43.275C30.0752 43.275 29.3252 44.025 29.3252 44.925C29.3252 45.825 30.0752 46.575 30.9752 46.575H38.7752V38.625H35.5502V41.85H37.1252V43.275H30.9752ZM21.1502 36.15C20.2502 36.525 19.5002 37.125 18.8252 37.875H18.7502L27.3752 46.5H28.2752H28.4252L28.3502 46.35C28.0502 45.9 27.9002 45.375 27.9002 44.85C27.9002 44.325 28.0502 43.8 28.3502 43.35V43.275L21.1502 36.15ZM17.8502 39.15C17.4002 39.975 17.1002 40.875 16.9502 41.85V41.925H17.0252C18.6752 41.925 20.0252 43.275 20.0252 44.925C20.0252 45.45 19.8752 45.975 19.5752 46.425V46.5H25.4252L17.9252 39L17.8502 39.15ZM9.22519 46.5H17.0252C17.9252 46.5 18.6752 45.75 18.6752 44.85C18.6752 43.95 17.9252 43.2 17.0252 43.2H10.8752V41.775H12.4502V38.55H9.22519V46.5ZM24.0002 35.55C23.6252 35.55 23.2502 35.55 22.8752 35.625H22.7252L29.4002 42.3H29.4752C29.9252 42 30.4502 41.85 30.9752 41.85H31.0502V41.775C30.6002 38.25 27.6002 35.55 24.0002 35.55ZM24.0002 34.125C28.3502 34.125 32.0252 37.5 32.4002 41.775V41.85H34.1252V41.775C33.7502 36.525 29.2502 32.4 24.0002 32.4C18.7502 32.4 14.3252 36.525 13.8752 41.775V41.85H15.6002V41.775C15.9752 37.5 19.6502 34.125 24.0002 34.125ZM35.5502 37.2H40.3502V32.475C40.3502 30.6 39.0002 28.95 37.1252 28.575L28.9502 27.075C28.1252 27.9 26.5502 29.325 24.0002 29.325C21.4502 29.325 19.8002 27.9 19.1252 27.075L14.9252 27.825L19.2002 32.1H19.2752C20.7752 31.425 22.4252 31.05 24.0752 31.05C28.2002 31.05 32.0252 33.3 34.0502 36.825L34.2002 37.05V31.8H35.6252V37.2H35.5502ZM8.62519 29.925C7.95019 30.675 7.6502 31.575 7.6502 32.55V37.275H12.4502V33.675L8.62519 29.925ZM13.8752 37.125L14.0252 36.9C14.2502 36.6 14.4002 36.225 14.7002 35.925V35.85L13.8752 35.025V37.125ZM4.5752 22.425C4.5752 22.725 4.5002 23.1 4.4252 23.475V23.55L15.6002 34.725L15.6752 34.65C16.3502 33.975 17.0252 33.375 17.8502 32.85L17.9252 32.775L4.5752 19.5V22.425ZM20.0252 26.1C20.4752 26.7 21.7502 27.975 24.0002 27.975C26.1752 27.975 27.4502 26.7 27.9002 26.175V25.2L27.8252 25.275C26.7002 25.875 25.3502 26.25 24.0002 26.25C22.6502 26.25 21.3002 25.875 20.1752 25.2L20.0252 25.125V26.1ZM17.7002 18.6C17.7002 22.05 20.4752 24.9 24.0002 24.9C27.4502 24.9 30.3002 22.125 30.3002 18.6V13.05H30.2252C29.1002 12.9 27.9752 12.45 27.0752 11.775H27.0002H26.9252C25.4252 12.675 23.7002 13.125 21.9002 13.125H17.6252V18.6H17.7002ZM1.5002 24.75H1.5752C2.5502 24.375 3.1502 23.475 3.1502 22.5V17.1C3.1502 16.125 2.4752 15.225 1.5752 14.85H1.5002V24.75ZM31.6502 18.525H31.7252C32.7002 18.15 33.3002 17.25 33.3002 16.275C33.3002 15.3 32.6252 14.4 31.7252 14.025H31.6502V18.525ZM16.2002 14.025C15.2252 14.4 14.6252 15.3 14.6252 16.275C14.6252 17.25 15.3002 18.15 16.2002 18.525H16.2752V13.95L16.2002 14.025ZM31.6502 12.525C32.2502 12.675 32.7752 12.9 33.2252 13.275L33.3752 13.35V9.67499C33.3752 7.79999 32.3252 6.14999 30.6752 5.32499L30.5252 5.24999L29.3252 4.04999C27.6752 2.39999 25.5752 1.49999 23.2502 1.49999C18.5252 1.49999 14.6252 5.32499 14.6252 10.125V13.35L14.7752 13.275C15.2252 12.9 15.7502 12.675 16.2752 12.6H16.3502V10.95H17.7752V11.7H22.0502C23.7752 11.7 25.3502 11.175 26.7752 10.275L27.2252 9.97499L27.6002 10.35C28.2752 11.025 29.1752 11.475 30.2252 11.625H30.3002V10.875H31.7252V12.525H31.6502Z" fill="#333333"/>
<path d="M47.925 46.5H46.5V47.925H47.925V46.5Z" fill="#333333"/>
<path d="M1.5002 46.5H0.0751953V47.925H1.5002V46.5Z" fill="#333333"/>
</svg>
