<svg width="25" height="24" viewBox="0 0 25 24" fill="none" xmlns="http://www.w3.org/2000/svg">
<path fill-rule="evenodd" clip-rule="evenodd" d="M13.1891 3.23515C12.8506 2.08698 11.2237 2.08698 10.8851 3.23515L10.7557 3.67379C10.6469 4.04223 10.457 4.38169 10.1998 4.6673C9.94271 4.9529 9.62488 5.17743 9.26964 5.32443C8.9144 5.47142 8.53074 5.53717 8.14677 5.51685C7.7628 5.49652 7.38824 5.39065 7.05053 5.20697L6.64863 4.98697C5.59709 4.41632 4.44644 5.56449 5.01901 6.6164L5.23786 7.01792C5.42171 7.3553 5.52768 7.7295 5.54803 8.11311C5.56837 8.49671 5.50256 8.88 5.35542 9.2349C5.20828 9.58981 4.98354 9.90733 4.69766 10.1642C4.41178 10.4211 4.072 10.6109 3.7032 10.7196L3.26414 10.8488C2.11488 11.1871 2.11488 12.8124 3.26414 13.1507L3.7032 13.2799C4.07219 13.3886 4.41216 13.5783 4.69818 13.8353C4.98421 14.0923 5.20904 14.41 5.3562 14.7651C5.50335 15.1202 5.5691 15.5036 5.54863 15.8874C5.52815 16.2712 5.42196 16.6455 5.23786 16.9829L5.01764 17.3831C4.44644 18.4336 5.59571 19.5832 6.64863 19.0111L7.05053 18.7925C7.38833 18.6088 7.76298 18.503 8.14703 18.4828C8.53107 18.4626 8.91478 18.5284 9.27005 18.6756C9.62531 18.8227 9.94312 19.0474 10.2002 19.3331C10.4573 19.6189 10.6471 19.9585 10.7557 20.3271L10.8851 20.7643C11.2237 21.9125 12.8506 21.9125 13.1891 20.7643L13.3185 20.3257C13.4273 19.9571 13.6172 19.6174 13.8745 19.3317C14.1317 19.0459 14.4497 18.8213 14.8051 18.6743C15.1605 18.5273 15.5444 18.4616 15.9285 18.482C16.3126 18.5025 16.6873 18.6086 17.0251 18.7925L17.4256 19.0125C18.4771 19.5832 19.6278 18.435 19.0552 17.3831L18.8364 16.9829C18.6523 16.6454 18.5462 16.271 18.5258 15.8871C18.5054 15.5033 18.5712 15.1198 18.7185 14.7647C18.8658 14.4096 19.0908 14.0919 19.377 13.835C19.6632 13.5781 20.0033 13.3884 20.3724 13.2799L20.8101 13.1507C21.9594 12.8124 21.9594 11.1871 20.8101 10.8488L20.371 10.7196C20.0022 10.6109 19.6625 10.4211 19.3766 10.1642C19.0907 9.90733 18.866 9.58981 18.7188 9.2349C18.5717 8.88 18.5059 8.49671 18.5262 8.11311C18.5466 7.7295 18.6525 7.3553 18.8364 7.01792L19.0566 6.6164C19.6278 5.56586 18.4785 4.41632 17.4256 4.98834L17.0251 5.20697C16.6873 5.39117 16.3125 5.49746 15.9282 5.51805C15.5439 5.53864 15.1598 5.47301 14.8042 5.32598C14.4486 5.17894 14.1305 4.95423 13.8732 4.66834C13.6158 4.38244 13.4259 4.04261 13.3171 3.67379L13.1878 3.23515H13.1891ZM9.56516 2.84601C10.2905 0.384664 13.7837 0.384664 14.5091 2.84601L14.6385 3.28465C14.6891 3.45647 14.7776 3.61478 14.8975 3.74799C15.0173 3.88119 15.1655 3.98592 15.3311 4.05448C15.4968 4.12304 15.6756 4.1537 15.8547 4.14422C16.0337 4.13474 16.2084 4.08535 16.3658 3.99968L16.7677 3.77967C19.0249 2.55312 21.4942 5.01859 20.2637 7.27368L20.0448 7.6752C19.9591 7.83249 19.9096 8.00697 19.9002 8.18583C19.8907 8.36469 19.9214 8.54341 19.99 8.70888C20.0586 8.87435 20.1634 9.02238 20.2968 9.14213C20.4301 9.26187 20.5886 9.35028 20.7605 9.40089L21.1996 9.53014C23.6633 10.2548 23.6633 13.7447 21.1996 14.4693L20.7605 14.5986C20.5886 14.6492 20.4301 14.7376 20.2968 14.8574C20.1634 14.9771 20.0586 15.1251 19.99 15.2906C19.9214 15.4561 19.8907 15.6348 19.9002 15.8136C19.9096 15.9925 19.9591 16.167 20.0448 16.3243L20.2651 16.7258C21.4942 18.9809 19.0236 21.4477 16.7677 20.2184L16.3658 19.9998C16.2084 19.9141 16.0337 19.8647 15.8547 19.8553C15.6756 19.8458 15.4968 19.8764 15.3311 19.945C15.1655 20.0136 15.0173 20.1183 14.8975 20.2515C14.7776 20.3847 14.6891 20.543 14.6385 20.7148L14.5091 21.1535C13.7837 23.6148 10.2905 23.6148 9.56516 21.1535L9.43578 20.7148C9.38513 20.543 9.29663 20.3847 9.17677 20.2515C9.05692 20.1183 8.90874 20.0136 8.74311 19.945C8.57748 19.8764 8.39859 19.8458 8.21956 19.8553C8.04053 19.8647 7.86588 19.9141 7.70844 19.9998L7.30654 20.2198C5.04929 21.4477 2.58146 18.9795 3.81056 16.7258L4.0294 16.3243C4.11516 16.167 4.16459 15.9925 4.17409 15.8136C4.18358 15.6348 4.15288 15.4561 4.08426 15.2906C4.01563 15.1251 3.91081 14.9771 3.77747 14.8574C3.64414 14.7376 3.48567 14.6492 3.31369 14.5986L2.87463 14.4693C0.41093 13.7447 0.41093 10.2548 2.87463 9.53014L3.31369 9.40089C3.48567 9.35028 3.64414 9.26187 3.77747 9.14213C3.91081 9.02238 4.01563 8.87435 4.08426 8.70888C4.15288 8.54341 4.18358 8.36469 4.17409 8.18583C4.16459 8.00697 4.11516 7.83249 4.0294 7.6752L3.80919 7.27368C2.58146 5.01859 5.05067 2.55312 7.30654 3.78105L7.70844 3.99968C7.86588 4.08535 8.04053 4.13474 8.21956 4.14422C8.39859 4.1537 8.57748 4.12304 8.74311 4.05448C8.90874 3.98592 9.05692 3.88119 9.17677 3.74799C9.29663 3.61478 9.38513 3.45647 9.43578 3.28465L9.56516 2.84601Z" fill="#929AAB"/>
<path fill-rule="evenodd" clip-rule="evenodd" d="M12.0383 8.91158C11.2184 8.91158 10.4321 9.23696 9.85235 9.81615C9.27262 10.3953 8.94693 11.1809 8.94693 12C8.94693 12.819 9.27262 13.6046 9.85235 14.1838C10.4321 14.7629 11.2184 15.0883 12.0383 15.0883C12.8581 15.0883 13.6444 14.7629 14.2241 14.1838C14.8039 13.6046 15.1296 12.819 15.1296 12C15.1296 11.1809 14.8039 10.3953 14.2241 9.81615C13.6444 9.23696 12.8581 8.91158 12.0383 8.91158ZM7.57056 12C7.57056 11.4138 7.68612 10.8334 7.91064 10.2919C8.13516 9.75035 8.46425 9.2583 8.87911 8.84384C9.29398 8.42937 9.78649 8.1006 10.3285 7.87629C10.8706 7.65198 11.4515 7.53653 12.0383 7.53653C12.625 7.53653 13.2059 7.65198 13.748 7.87629C14.29 8.1006 14.7825 8.42937 15.1974 8.84384C15.6123 9.2583 15.9413 9.75035 16.1659 10.2919C16.3904 10.8334 16.5059 11.4138 16.5059 12C16.5059 13.1837 16.0352 14.319 15.1974 15.1561C14.3595 15.9931 13.2232 16.4634 12.0383 16.4634C10.8533 16.4634 9.71697 15.9931 8.87911 15.1561C8.04126 14.319 7.57056 13.1837 7.57056 12Z" fill="#929AAB"/>
</svg>
