<svg width="32" height="32" viewBox="0 0 32 32" fill="none" xmlns="http://www.w3.org/2000/svg">
<path fill-rule="evenodd" clip-rule="evenodd" d="M4 12V29C4 29.2652 4.10536 29.5196 4.29289 29.7071C4.48043 29.8946 4.73478 30 5 30H27C27.2652 30 27.5196 29.8946 27.7071 29.7071C27.8946 29.5196 28 29.2652 28 29V12H30V29C30 29.7956 29.6839 30.5587 29.1213 31.1213C28.5587 31.6839 27.7956 32 27 32H5C4.20435 32 3.44129 31.6839 2.87868 31.1213C2.31607 30.5587 2 29.7956 2 29V12H4ZM20 2C19.2044 2 18.4413 2.31607 17.8787 2.87868C17.3161 3.44129 17 4.20435 17 5C17 5.196 17.066 5.32 17.24 5.454C17.446 5.616 17.784 5.754 18.22 5.854C18.7784 5.97302 19.3495 6.02206 19.92 6H19.95L20 5.998L20.05 6.002H20.078C20.2473 6.00971 20.4168 6.00904 20.586 6C20.926 5.988 21.36 5.948 21.782 5.854C22.216 5.758 22.554 5.618 22.762 5.456C22.934 5.324 23 5.196 23 5.002C23.0003 4.60787 22.9229 4.21754 22.7722 3.85334C22.6216 3.48913 22.4006 3.15817 22.122 2.87939C21.8434 2.6006 21.5126 2.37944 21.1485 2.22855C20.7844 2.07766 20.3941 2 20 2ZM20 8H19.988C19.7708 8.01003 19.5532 8.01003 19.336 8C18.8133 7.98128 18.2933 7.91636 17.782 7.806C17.216 7.68 16.554 7.456 16.012 7.036C15.695 6.80023 15.4381 6.49295 15.2622 6.13916C15.0864 5.78537 14.9965 5.39507 15 5C15 3.67392 15.5268 2.40215 16.4645 1.46447C17.4021 0.526784 18.6739 0 20 0C21.3261 0 22.5979 0.526784 23.5355 1.46447C24.4732 2.40215 25 3.67392 25 5C25 5.908 24.566 6.586 23.988 7.034C23.448 7.454 22.784 7.678 22.218 7.804C21.4932 7.9621 20.7514 8.02862 20.01 8.002H20V8Z" fill="#960F19"/>
<path fill-rule="evenodd" clip-rule="evenodd" d="M12 2C11.2043 2 10.4413 2.31607 9.87865 2.87868C9.31604 3.44129 8.99997 4.20435 8.99997 5C8.99997 5.196 9.06597 5.32 9.23997 5.454C9.44597 5.616 9.78397 5.754 10.22 5.854C10.7784 5.97302 11.3494 6.02206 11.92 6H11.95L12 5.998L12.05 6.002H12.078L12.184 6.004C12.7205 6.00887 13.256 5.95793 13.782 5.852C14.216 5.756 14.554 5.616 14.762 5.454C14.934 5.322 15 5.194 15 5C15 4.20435 14.6839 3.44129 14.1213 2.87868C13.5587 2.31607 12.7956 2 12 2ZM12 8H11.988C11.7708 8.01003 11.5532 8.01003 11.336 8C10.8133 7.98128 10.2932 7.91636 9.78197 7.806C9.21597 7.68 8.55397 7.456 8.01197 7.036C7.69496 6.80023 7.43807 6.49295 7.26222 6.13916C7.08637 5.78537 6.99652 5.39507 6.99997 5C6.99997 3.67392 7.52676 2.40215 8.46444 1.46447C9.40212 0.526784 10.6739 0 12 0C13.3261 0 14.5978 0.526784 15.5355 1.46447C16.4732 2.40215 17 3.67392 17 5C17 5.908 16.566 6.586 15.988 7.034C15.448 7.454 14.784 7.678 14.218 7.804C13.4938 7.96191 12.7527 8.02843 12.012 8.002H12V8ZM15 32V12H17V32H15Z" fill="#960F19"/>
<path fill-rule="evenodd" clip-rule="evenodd" d="M30 8H2V10H30V8ZM2 6C1.46957 6 0.960859 6.21071 0.585786 6.58579C0.210714 6.96086 0 7.46957 0 8L0 10C0 10.5304 0.210714 11.0391 0.585786 11.4142C0.960859 11.7893 1.46957 12 2 12H30C30.5304 12 31.0391 11.7893 31.4142 11.4142C31.7893 11.0391 32 10.5304 32 10V8C32 7.46957 31.7893 6.96086 31.4142 6.58579C31.0391 6.21071 30.5304 6 30 6H2Z" fill="#960F19"/>
</svg>
