<svg width="25" height="24" viewBox="0 0 25 24" fill="none" xmlns="http://www.w3.org/2000/svg">
<path fill-rule="evenodd" clip-rule="evenodd" d="M8.68129 2.9865C7.3082 3.35528 5.94402 3.75639 4.58988 4.1895C4.46733 4.22729 4.35795 4.29886 4.27429 4.39597C4.19062 4.49308 4.13608 4.61181 4.11693 4.7385C3.31666 10.584 5.16343 14.85 7.36603 17.6595C8.47109 19.0695 9.66774 20.1135 10.6647 20.799C11.1647 21.141 11.6046 21.39 11.9514 21.549C12.1256 21.6285 12.2667 21.6825 12.3748 21.714C12.4225 21.7293 12.4712 21.7413 12.5205 21.75C12.531 21.7485 12.5775 21.7425 12.6661 21.7155C12.7742 21.6825 12.9153 21.6285 13.0895 21.549C13.4348 21.39 13.8778 21.141 14.3762 20.799C15.6264 19.9227 16.7382 18.8645 17.6749 17.6595C19.8775 14.85 21.7243 10.584 20.924 4.7385C20.9048 4.61181 20.8503 4.49308 20.7666 4.39597C20.683 4.29886 20.5736 4.22729 20.451 4.1895C19.5111 3.8895 17.9256 3.4005 16.3596 2.9865C14.7591 2.565 13.2862 2.25 12.5205 2.25C11.7547 2.25 10.2833 2.565 8.68129 2.9865ZM8.29692 1.5375C9.86292 1.1235 11.525 0.75 12.5205 0.75C13.5144 0.75 15.178 1.1235 16.744 1.5375C18.1408 1.91216 19.5285 2.31978 20.906 2.76C21.6987 3.012 22.2963 3.6945 22.4119 4.536C23.2722 10.8315 21.2768 15.4965 18.858 18.5835C17.8273 19.9083 16.6035 21.0712 15.2276 22.0335C14.7491 22.3683 14.2434 22.6623 13.7156 22.9125C13.3102 23.0985 12.8778 23.25 12.5205 23.25C12.1631 23.25 11.7307 23.0985 11.3253 22.9125C10.7975 22.6626 10.2917 22.3685 9.81337 22.0335C8.43797 21.0711 7.21473 19.9082 6.18441 18.5835C3.76259 15.4965 1.76868 10.8315 2.62901 4.536C2.68653 4.12811 2.8585 3.74483 3.12501 3.43052C3.39152 3.11622 3.74167 2.88374 4.13495 2.76C5.51243 2.31979 6.90015 1.91217 8.29692 1.5375Z" fill="#929AAB"/>
<path fill-rule="evenodd" clip-rule="evenodd" d="M16.8055 9.219C16.8754 9.28867 16.9309 9.37143 16.9687 9.46255C17.0066 9.55366 17.0261 9.65135 17.0261 9.75C17.0261 9.84865 17.0066 9.94633 16.9687 10.0374C16.9309 10.1286 16.8754 10.2113 16.8055 10.281L12.3012 14.781C12.2315 14.8508 12.1486 14.9063 12.0574 14.9441C11.9662 14.9819 11.8684 15.0013 11.7697 15.0013C11.6709 15.0013 11.5732 14.9819 11.482 14.9441C11.3908 14.9063 11.3079 14.8508 11.2382 14.781L8.98603 12.531C8.91623 12.4613 8.86086 12.3785 8.82309 12.2874C8.78531 12.1963 8.76587 12.0986 8.76587 12C8.76587 11.9014 8.78531 11.8037 8.82309 11.7126C8.86086 11.6215 8.91623 11.5387 8.98603 11.469C9.05583 11.3993 9.13869 11.344 9.22988 11.3062C9.32108 11.2685 9.41883 11.249 9.51754 11.249C9.61625 11.249 9.71399 11.2685 9.80519 11.3062C9.89638 11.344 9.97924 11.3993 10.049 11.469L11.7697 13.1895L15.7425 9.219C15.8122 9.14915 15.8951 9.09374 15.9863 9.05593C16.0775 9.01812 16.1752 8.99866 16.274 8.99866C16.3727 8.99866 16.4705 9.01812 16.5617 9.05593C16.6529 9.09374 16.7358 9.14915 16.8055 9.219Z" fill="#929AAB"/>
</svg>
