<svg width="16" height="16" viewBox="0 0 16 16" fill="none" xmlns="http://www.w3.org/2000/svg">
<g clip-path="url(#clip0)">
<circle cx="8" cy="8" r="8" fill="#DBDBDB"/>
<path d="M8.92995 6.58789L6.63995 6.87489L6.55795 7.25489L7.00795 7.33789C7.30195 7.40789 7.35995 7.51389 7.29595 7.80689L6.55795 11.2749C6.36395 12.1719 6.66295 12.5939 7.36595 12.5939C7.91095 12.5939 8.54395 12.3419 8.83095 11.9959L8.91895 11.5799C8.71895 11.7559 8.42695 11.8259 8.23295 11.8259C7.95795 11.8259 7.85795 11.6329 7.92895 11.2929L8.92995 6.58789Z" fill="white"/>
<path d="M8 5.5C8.55228 5.5 9 5.05228 9 4.5C9 3.94772 8.55228 3.5 8 3.5C7.44772 3.5 7 3.94772 7 4.5C7 5.05228 7.44772 5.5 8 5.5Z" fill="white"/>
</g>
<defs>
<clipPath id="clip0">
<rect width="16" height="16" fill="white"/>
</clipPath>
</defs>
</svg>
