<svg width="36" height="36" viewBox="0 0 36 36" fill="none" xmlns="http://www.w3.org/2000/svg">
<path d="M16.9421 23.1406C16.6222 22.8191 16.1051 22.8191 15.7852 23.139L12.7522 26.1745H10.6363C10.1839 26.1745 9.81816 26.541 9.81816 26.9935V28.6306H8.18177C7.72931 28.6306 7.36362 28.9972 7.36362 29.4496V31.0868H5.7273C5.27569 31.0868 4.90915 31.4533 4.90915 31.9058V34.0232L4.57045 34.362H1.63638V31.4264L15.3049 17.7464C15.6248 17.4273 15.6248 16.9085 15.3058 16.5887L15.0661 16.3482C14.8476 16.1305 14.7281 15.8408 14.7281 15.5324V15.5291C14.7281 15.0766 14.3625 14.7117 13.91 14.7117C13.4575 14.7117 13.0918 15.0799 13.0918 15.5323C13.0918 16.1157 13.2694 16.672 13.5991 17.1384L0.239695 30.5083C0.0859219 30.6622 0 30.8699 0 31.0876V35.1818C0 35.6334 0.366539 35.9999 0.818156 35.9999H4.90908C5.12592 35.9999 5.33454 35.9132 5.48754 35.7602L6.3057 34.9412C6.45954 34.7874 6.54539 34.5796 6.54539 34.3628V32.7256H8.18177C8.63423 32.7256 8.99993 32.3591 8.99993 31.9066V30.2695H10.6363C11.0888 30.2695 11.4545 29.9029 11.4545 29.4505V27.8133H13.0909C13.3085 27.8133 13.5163 27.7266 13.6693 27.5736L16.942 24.2985C17.262 23.9784 17.262 23.4605 16.9421 23.1406Z" fill="#960F19"/>
<path d="M29.6239 9.62992L26.3512 6.35476C25.3873 5.38846 23.7035 5.38846 22.7397 6.35476C21.744 7.3513 21.744 8.97292 22.7397 9.96869L26.0124 13.2438C26.4943 13.7265 27.1358 13.9925 27.8181 13.9925C28.5005 13.9925 29.1419 13.7265 29.6238 13.2438C30.6195 12.2473 30.6196 10.6257 29.6239 9.62992ZM28.4669 12.0853C28.12 12.4322 27.5162 12.4322 27.1693 12.0853L23.8966 8.81015C23.5399 8.45261 23.5399 7.87007 23.8966 7.51169C24.0701 7.33823 24.3 7.24253 24.5455 7.24253C24.7909 7.24253 25.0208 7.33823 25.1943 7.51169L28.467 10.7868C28.8245 11.1444 28.8245 11.7278 28.4669 12.0853Z" fill="#960F19"/>
<path d="M35.1818 10.2788L25.7023 0.791943C24.646 -0.263518 22.8084 -0.264362 21.7521 0.791943L13.909 8.64079C13.3813 9.16848 13.0908 9.87048 13.0908 10.6175C13.0908 11.3645 13.3813 12.0665 13.909 12.5942L21.752 20.443L21.271 20.9249C21.0534 21.1426 20.7637 21.2629 20.456 21.2629H20.4552C20.1467 21.2629 19.8563 21.1426 19.6378 20.9242L17.351 18.6357C17.031 18.3158 16.514 18.3158 16.194 18.6357L11.694 23.139C11.3741 23.4589 11.3741 23.9769 11.694 24.2967C11.8536 24.4562 12.063 24.5364 12.2725 24.5364C12.482 24.5364 12.6914 24.4562 12.851 24.2967L16.7725 20.3727L18.4809 22.0819C19.0086 22.6096 19.709 22.9 20.456 22.9C20.4568 22.9 20.4576 22.9 20.4584 22.9C21.203 22.8992 21.9025 22.6079 22.4278 22.0819L23.4874 21.0215C23.8073 20.7016 23.8073 20.1836 23.4874 19.8638L15.0659 11.4357C14.8466 11.2172 14.7272 10.9268 14.7272 10.6176C14.7272 10.3082 14.8466 10.0179 15.0659 9.79855L22.909 1.95048C23.3467 1.51194 24.1076 1.51279 24.5454 1.95048L34.0248 11.4373C34.2441 11.6558 34.3636 11.9462 34.3636 12.2555C34.3636 12.5647 34.2441 12.8552 34.0248 13.0745L26.1817 20.9225C25.9624 21.1418 25.6728 21.262 25.3636 21.262C24.9111 21.262 24.5454 21.6286 24.5454 22.081C24.5454 22.5335 24.9111 22.9 25.3636 22.9C26.109 22.9 26.811 22.6096 27.3387 22.081L35.1818 14.2322C35.7094 13.7045 35.9999 13.0025 35.9999 12.2555C35.9999 11.5077 35.7094 10.8057 35.1818 10.2788Z" fill="#960F19"/>
</svg>
