<svg width="32" height="32" viewBox="0 0 32 32" fill="none" xmlns="http://www.w3.org/2000/svg">
<path d="M20.1287 23.7427C26.6746 23.7427 32 18.4172 32 11.8713C32 5.32544 26.6746 0 20.1287 0C13.5828 0 8.25732 5.32544 8.25732 11.8713C8.25732 14.3557 9.0249 16.6636 10.3347 18.572L8.39282 20.5139L8.12842 20.2495C7.88428 20.0054 7.48853 20.0054 7.24438 20.2495L0.93335 26.5605C0.331543 27.1624 0 27.9626 0 28.8137C0 29.6648 0.331543 30.4648 0.93335 31.0667C1.53516 31.6685 2.33521 32 3.18628 32C4.03735 32 4.83765 31.6685 5.43945 31.0667L11.7507 24.7556C11.8679 24.6384 11.9336 24.4795 11.9336 24.3137C11.9336 24.1479 11.8679 23.9888 11.7507 23.8716L11.4861 23.6072L13.428 21.6653C15.3364 22.9751 17.6445 23.7427 20.1287 23.7427ZM20.1287 1.25C25.9854 1.25 30.75 6.01465 30.75 11.8713C30.75 17.728 25.9854 22.4927 20.1287 22.4927C14.2722 22.4927 9.50732 17.728 9.50732 11.8713C9.50732 6.01465 14.2722 1.25 20.1287 1.25ZM4.55566 30.1829C4.1897 30.5486 3.70361 30.75 3.18628 30.75C2.66895 30.75 2.18286 30.5486 1.81714 30.1829C1.06201 29.428 1.06201 28.1995 1.81714 27.4443L7.68628 21.5752L7.95068 21.8394C7.95068 21.8396 7.95093 21.8396 7.95093 21.8398L10.4248 24.3137L4.55566 30.1829ZM10.6023 22.7231L9.27686 21.3977L11.1021 19.5725C11.5085 20.0481 11.9519 20.4915 12.4275 20.8979L10.6023 22.7231Z" fill="#960F19"/>
</svg>
