<svg width="28" height="18" viewBox="0 0 28 18" fill="none" xmlns="http://www.w3.org/2000/svg">
<path d="M10.2045 1.86865H17.7677V15.6049H10.2045V1.86865Z" fill="#FF5F00"/>
<path d="M10.6847 8.73687C10.6847 5.94597 11.9813 3.47047 13.9741 1.86867C12.5095 0.703779 10.6608 0 8.64391 0C3.86564 0 0 3.90727 0 8.73687C0 13.5664 3.86564 17.4737 8.6438 17.4737C10.6607 17.4737 12.5094 16.77 13.9741 15.605C11.9813 14.0275 10.6847 11.5278 10.6847 8.73687Z" fill="#EB001B"/>
<path d="M27.9722 8.73687C27.9722 13.5664 24.1066 17.4737 19.3284 17.4737C17.3115 17.4737 15.4628 16.77 13.9981 15.605C16.015 14.0033 17.2876 11.5278 17.2876 8.73687C17.2876 5.94597 15.991 3.47047 13.9981 1.86867C15.4627 0.703779 17.3115 0 19.3284 0C24.1066 0 27.9723 3.93159 27.9723 8.73687H27.9722Z" fill="#F79E1B"/>
</svg>
