<svg width="25" height="24" viewBox="0 0 25 24" fill="none" xmlns="http://www.w3.org/2000/svg">
<path d="M12.5206 22.5C10.4419 22.5 8.40985 21.8842 6.68148 20.7304C4.95311 19.5767 3.60601 17.9368 2.81053 16.0182C2.01505 14.0996 1.80692 11.9884 2.21245 9.95156C2.61798 7.91476 3.61897 6.04383 5.08882 4.57538C6.55868 3.10693 8.43139 2.1069 10.4701 1.70176C12.5089 1.29661 14.6221 1.50455 16.5426 2.29927C18.463 3.09399 20.1045 4.4398 21.2593 6.16652C22.4142 7.89323 23.0306 9.9233 23.0306 12C23.0306 14.7848 21.9233 17.4555 19.9523 19.4246C17.9813 21.3938 15.308 22.5 12.5206 22.5ZM12.5206 3C10.7388 3 8.99709 3.52785 7.51563 4.51678C6.03418 5.50571 4.87952 6.91132 4.19768 8.55585C3.51584 10.2004 3.33744 12.01 3.68504 13.7558C4.03264 15.5016 4.89062 17.1053 6.1505 18.364C7.41038 19.6226 9.01556 20.4798 10.7631 20.8271C12.5106 21.1743 14.3219 20.9961 15.968 20.3149C17.6141 19.6337 19.0211 18.4802 20.0109 17.0001C21.0008 15.5201 21.5292 13.78 21.5292 12C21.5292 9.61306 20.58 7.32387 18.8906 5.63604C17.2012 3.94822 14.9098 3 12.5206 3Z" fill="#929AAB"/>
<path d="M16.274 9.3075V12H17.7754V6.75H12.5204V8.25H15.2155L8.76682 14.6925V12H7.26538V17.25H12.5204V15.75H9.82533L16.274 9.3075Z" fill="#929AAB"/>
</svg>
