<svg width="48" height="48" viewBox="0 0 48 48" fill="none" xmlns="http://www.w3.org/2000/svg">
<path d="M45.75 12.75H45V9.75005C44.9999 9.64342 44.977 9.53805 44.9328 9.44097C44.8887 9.34389 44.8245 9.25733 44.7442 9.18706C44.664 9.11679 44.5698 9.06444 44.4677 9.03348C44.3657 9.00253 44.2582 8.99369 44.1525 9.00755L43.5 9.09005V6.00005C43.5006 5.88536 43.4745 5.77211 43.4237 5.66927C43.3729 5.56643 43.2989 5.47682 43.2075 5.40755C43.117 5.33816 43.012 5.29 42.9004 5.26664C42.7887 5.24327 42.6733 5.24529 42.5625 5.27255L15.0525 12.33L17.85 7.48505C18.1731 6.91558 18.3436 6.27229 18.345 5.61755C18.3466 4.79143 18.0754 3.9879 17.5735 3.33175C17.0715 2.67561 16.367 2.20357 15.5692 1.98895C14.7715 1.77434 13.9252 1.82916 13.1618 2.1449C12.3984 2.46064 11.7606 3.01963 11.3475 3.73505L2.01002 19.92C1.67606 20.4912 1.50004 21.1409 1.50002 21.8025V31.08C1.49894 31.4275 1.54691 31.7735 1.64252 32.1075L4.03502 40.5H3.75002C3.55111 40.5 3.36034 40.5791 3.21969 40.7197C3.07904 40.8604 3.00002 41.0511 3.00002 41.25V45.75C3.00002 45.949 3.07904 46.1397 3.21969 46.2804C3.36034 46.421 3.55111 46.5 3.75002 46.5H20.25C20.4489 46.5 20.6397 46.421 20.7803 46.2804C20.921 46.1397 21 45.949 21 45.75V41.25C21 41.0511 20.921 40.8604 20.7803 40.7197C20.6397 40.5791 20.4489 40.5 20.25 40.5V38.6175C20.2511 37.9268 20.1158 37.2427 19.8519 36.6043C19.5881 35.966 19.2009 35.386 18.7125 34.8975L17.5575 33.75H45.75C45.9489 33.75 46.1397 33.671 46.2803 33.5304C46.421 33.3897 46.5 33.199 46.5 33V13.5C46.5 13.3011 46.421 13.1104 46.2803 12.9697C46.1397 12.8291 45.9489 12.75 45.75 12.75ZM43.5 10.605V12.75H27.2025L43.5 10.605ZM42 6.96755V9.29255L23.3925 11.7375L42 6.96755ZM19.5 45H4.50002V42H19.5V45ZM15.06 33.285C15.0972 33.3759 15.1535 33.4578 15.225 33.525L15.2175 33.5325L17.6475 35.9625C17.9987 36.3094 18.2772 36.723 18.4665 37.1789C18.6558 37.6348 18.7522 38.1239 18.75 38.6175V40.5H5.59502L3.08252 31.7025C3.02884 31.4994 3.00112 31.2902 3.00002 31.08V21.8025C2.9988 21.4066 3.10508 21.0178 3.30752 20.6775L12.6525 4.48505C12.799 4.22862 12.9948 4.00382 13.2288 3.82366C13.4628 3.6435 13.7302 3.51158 14.0155 3.43554C14.3008 3.35949 14.5984 3.34084 14.891 3.38067C15.1836 3.4205 15.4654 3.51801 15.72 3.66755C16.0649 3.86216 16.3512 4.14577 16.5491 4.48876C16.747 4.83176 16.8492 5.22158 16.845 5.61755C16.8441 6.00983 16.7407 6.39507 16.545 6.73505L13.0725 12.75H11.25C11.0511 12.75 10.8603 12.8291 10.7197 12.9697C10.579 13.1104 10.5 13.3011 10.5 13.5V29.25C10.5008 29.399 10.5453 29.5445 10.628 29.6685C10.7106 29.7925 10.8278 29.8895 10.965 29.9475C11.1047 30.0038 11.2581 30.0168 11.4053 29.9847C11.5524 29.9526 11.6865 29.8769 11.79 29.7675L18.405 22.9275C18.6944 22.6398 19.0565 22.436 19.4526 22.3379C19.8487 22.2398 20.2641 22.2509 20.6543 22.3702C21.0446 22.4896 21.3952 22.7125 21.6687 23.0154C21.9422 23.3183 22.1285 23.6897 22.2075 24.09C22.2225 24.24 22.2375 24.39 22.245 24.51C22.2393 25.1055 22.0027 25.6755 21.585 26.1L15.2175 32.4675C15.1134 32.573 15.043 32.7069 15.0149 32.8524C14.9869 32.9979 15.0026 33.1485 15.06 33.285ZM45 32.25H17.5575L22.32 27.495C23.0041 28.5029 23.9256 29.327 25.0034 29.8946C26.0811 30.4623 27.2819 30.756 28.5 30.75C29.8875 30.7513 31.2481 30.3676 32.4305 29.6417C33.6129 28.9158 34.5708 27.8761 35.1976 26.6383C35.8244 25.4005 36.0956 24.0131 35.9809 22.6304C35.8663 21.2476 35.3704 19.9238 34.5483 18.8061C33.7262 17.6885 32.6101 16.8207 31.3243 16.2995C30.0385 15.7782 28.6333 15.6238 27.265 15.8535C25.8966 16.0832 24.6189 16.688 23.5737 17.6006C22.5286 18.5131 21.7571 19.6977 21.345 21.0225C20.665 20.763 19.9244 20.7057 19.2125 20.8573C18.5006 21.009 17.8477 21.3633 17.3325 21.8775L12 27.3975V14.25H45V32.25ZM23.685 23.85C23.5494 23.1077 23.194 22.4232 22.665 21.885C22.9791 20.5186 23.7606 19.3047 24.8744 18.4531C25.9882 17.6015 27.3644 17.1655 28.7654 17.2205C30.1664 17.2756 31.5043 17.8181 32.5478 18.7545C33.5914 19.6908 34.2753 20.9622 34.4813 22.3491C34.6872 23.736 34.4025 25.1512 33.6761 26.3505C32.9497 27.5498 31.8274 28.4577 30.5028 28.9176C29.1783 29.3774 27.7348 29.3603 26.4215 28.8692C25.1083 28.378 24.0077 27.4437 23.31 26.2275C23.5838 25.6876 23.7325 25.0928 23.745 24.4875C23.7375 24.285 23.715 24.09 23.685 23.85Z" fill="#333333"/>
<path d="M28.5 25.5C28.3011 25.5 28.1103 25.421 27.9697 25.2803C27.829 25.1397 27.75 24.9489 27.75 24.75H26.25C26.2519 25.2137 26.3971 25.6655 26.6656 26.0435C26.9341 26.4216 27.3128 26.7074 27.75 26.862V27.75H29.25V26.862C29.75 26.6859 30.1716 26.3385 30.44 25.8813C30.7084 25.4242 30.8064 24.8868 30.7165 24.3644C30.6267 23.8419 30.3549 23.3681 29.9492 23.0269C29.5435 22.6856 29.0301 22.499 28.5 22.5C28.3517 22.5 28.2067 22.456 28.0833 22.3736C27.96 22.2912 27.8639 22.1741 27.8071 22.037C27.7503 21.9 27.7355 21.7492 27.7644 21.6037C27.7933 21.4582 27.8648 21.3246 27.9697 21.2197C28.0746 21.1148 28.2082 21.0433 28.3537 21.0144C28.4992 20.9855 28.65 21.0003 28.787 21.0571C28.9241 21.1139 29.0412 21.21 29.1236 21.3333C29.206 21.4567 29.25 21.6017 29.25 21.75H30.75C30.7481 21.2863 30.6029 20.8345 30.3344 20.4565C30.0659 20.0784 29.6872 19.7926 29.25 19.638V18.75H27.75V19.638C27.25 19.8141 26.8284 20.1615 26.56 20.6186C26.2916 21.0758 26.1936 21.6132 26.2835 22.1356C26.3733 22.6581 26.6451 23.1319 27.0508 23.4731C27.4565 23.8144 27.9699 24.001 28.5 24C28.6989 24 28.8897 24.079 29.0303 24.2197C29.171 24.3603 29.25 24.5511 29.25 24.75C29.25 24.9489 29.171 25.1397 29.0303 25.2803C28.8897 25.421 28.6989 25.5 28.5 25.5Z" fill="#333333"/>
<path d="M15 18.6547C15.5184 18.5198 15.9914 18.2489 16.3701 17.8701C16.7489 17.4914 17.0198 17.0184 17.1547 16.5H18.75V15H16.5C16.3011 15 16.1103 15.079 15.9697 15.2197C15.829 15.3603 15.75 15.5511 15.75 15.75C15.75 16.1478 15.592 16.5294 15.3107 16.8107C15.0294 17.092 14.6478 17.25 14.25 17.25C14.0511 17.25 13.8603 17.329 13.7197 17.4697C13.579 17.6103 13.5 17.8011 13.5 18V20.25H15V18.6547Z" fill="#333333"/>
<path d="M42 19.4047V21H43.5V18.75C43.5 18.5511 43.421 18.3603 43.2803 18.2197C43.1397 18.079 42.9489 18 42.75 18C42.3522 18 41.9706 17.842 41.6893 17.5607C41.408 17.2794 41.25 16.8978 41.25 16.5C41.25 16.3011 41.171 16.1103 41.0303 15.9697C40.8897 15.829 40.6989 15.75 40.5 15.75H38.25V17.25H39.8452C39.9802 17.7684 40.2511 18.2414 40.6299 18.6201C41.0086 18.9989 41.4816 19.2698 42 19.4047Z" fill="#333333"/>
<path d="M41.25 30C41.25 29.6022 41.408 29.2206 41.6893 28.9393C41.9706 28.658 42.3522 28.5 42.75 28.5C42.9489 28.5 43.1397 28.421 43.2803 28.2803C43.421 28.1397 43.5 27.9489 43.5 27.75V25.5H42V27.0952C41.4816 27.2302 41.0086 27.5011 40.6299 27.8799C40.2511 28.2586 39.9802 28.7316 39.8452 29.25H38.25V30.75H40.5C40.6989 30.75 40.8897 30.671 41.0303 30.5303C41.171 30.3897 41.25 30.1989 41.25 30Z" fill="#333333"/>
</svg>
