<svg width="48" height="48" viewBox="0 0 48 48" fill="none" xmlns="http://www.w3.org/2000/svg">
<path d="M24.052 24.939C22.3968 24.939 21.0503 26.2856 21.0503 27.9407C21.0503 29.5959 22.3968 30.9424 24.052 30.9424C25.707 30.9423 27.0536 29.5958 27.0536 27.9407C27.0537 26.2856 25.7071 24.939 24.052 24.939ZM24.052 29.5184C23.182 29.5183 22.4743 28.8106 22.4743 27.9407C22.4743 27.327 22.8271 26.7956 23.3399 26.5347V27.9407C23.3399 28.3339 23.6587 28.6527 24.052 28.6527H25.458C25.1972 29.1655 24.6657 29.5184 24.052 29.5184ZM24.764 27.2288V26.5348C25.0626 26.6866 25.3061 26.9303 25.458 27.2288H24.764Z" fill="#333333"/>
<path d="M25.7888 1.29126C25.6724 0.932574 25.2961 0.727074 24.9315 0.822511L24.7724 0.864136L24.7628 0.69998C24.7409 0.32348 24.4291 0.02948 24.0521 0.02948C23.675 0.02948 23.3632 0.32348 23.3413 0.69998L23.3317 0.864136L23.1726 0.822511C22.8082 0.72698 22.4319 0.932667 22.3153 1.29126C22.1987 1.64995 22.3821 2.03714 22.7334 2.17439L22.8865 2.2342L22.7977 2.37257C22.5942 2.69001 22.6735 3.11114 22.9786 3.33285C23.2837 3.55457 23.7087 3.49982 23.9477 3.20817L24.0521 3.08095L24.1563 3.20817C24.2967 3.37936 24.501 3.46889 24.7074 3.46889C24.8528 3.46889 24.9994 3.42445 25.1255 3.33285C25.4307 3.11123 25.51 2.6901 25.3065 2.37257L25.2177 2.2342L25.3708 2.17439C25.722 2.03714 25.9053 1.64985 25.7888 1.29126Z" fill="#333333"/>
<path d="M47.2881 46.5467H30.6258V33.2199H31.0367C31.4299 33.2199 31.7487 32.9011 31.7487 32.5079C31.7487 32.1147 31.43 31.7958 31.0367 31.7958H29.9138H28.8398V24.5572C29.2031 24.5249 29.488 24.2201 29.488 23.8484C29.488 23.4553 29.1693 23.1364 28.776 23.1364H28.1278H27.8324V15.1019C27.8324 14.7088 27.5137 14.3899 27.1204 14.3899H26.6729L24.7507 4.65435C24.6848 4.32079 24.3923 4.08032 24.0522 4.08032C23.7122 4.08032 23.4196 4.32079 23.3537 4.65435L21.4314 14.3899H20.984C20.5908 14.3899 20.2719 14.7087 20.2719 15.1019V23.1364H19.9765H19.3283C18.9352 23.1364 18.6163 23.4552 18.6163 23.8484C18.6163 24.2201 18.9012 24.5249 19.2645 24.5572V25.8292C19.2645 26.2224 19.5833 26.5412 19.9765 26.5412C20.3697 26.5412 20.6886 26.2225 20.6886 25.8292V24.5604H27.4158V31.7957H20.6886V28.2026C20.6886 27.8094 20.3698 27.4905 19.9765 27.4905C19.5833 27.4905 19.2645 27.8093 19.2645 28.2026V31.7957H18.1448H17.0219C16.6287 31.7957 16.3099 32.1145 16.3099 32.5078C16.3099 32.901 16.6286 33.2198 17.0219 33.2198H17.4328V46.5467H0.770625C0.377438 46.5467 0.0585938 46.8655 0.0585938 47.2588C0.0585938 47.6519 0.377344 47.9708 0.770625 47.9708H18.1448H29.9137H47.288C47.6812 47.9708 48 47.652 48 47.2588C48.0001 46.8655 47.6813 46.5467 47.2881 46.5467ZM24.0522 8.46801L25.2214 14.3898H22.8829L24.0522 8.46801ZM21.6961 15.8139H22.02C22.0213 15.8139 22.0226 15.8139 22.024 15.8139H26.0839C26.0849 15.8139 26.0859 15.814 26.087 15.814C26.0879 15.814 26.0888 15.8139 26.0898 15.8139H26.4083V20.1598H25.8333V16.7436C25.8334 16.3504 25.5146 16.0316 25.1213 16.0316C24.7282 16.0316 24.4093 16.3503 24.4093 16.7436V20.1598H23.695V16.7436C23.695 16.3504 23.3763 16.0316 22.983 16.0316C22.5898 16.0316 22.271 16.3503 22.271 16.7436V20.1598H21.696V15.8139H21.6961ZM26.4084 23.1364H21.6961V21.5839H26.4084V23.1364ZM22.4094 46.5467V44.0654C22.4094 43.4641 22.7357 42.9089 23.2608 42.6162C23.3018 42.5933 23.3438 42.573 23.3859 42.5538V46.5467H22.4094ZM25.7281 46.5467H24.81V42.5821C24.8305 42.5924 24.8512 42.6024 24.8713 42.6135C24.873 42.6145 24.8747 42.6154 24.8765 42.6164C25.4018 42.909 25.7281 43.4643 25.7281 44.0656V46.5467ZM29.2017 46.5467H27.1521V44.0656C27.1521 42.9503 26.548 41.9202 25.5751 41.3756C25.573 41.3744 25.5708 41.3732 25.5687 41.372C24.6291 40.8485 23.5072 40.8487 22.5677 41.3724C21.5917 41.9162 20.9855 42.9482 20.9855 44.0654V46.5467H18.857V38.7467H29.2017V46.5467ZM29.2018 37.3228H28.2409V35.146C28.2409 34.7528 27.9221 34.434 27.5288 34.434C27.1356 34.434 26.8168 34.7527 26.8168 35.146V37.3228H25.8314V35.146C25.8314 34.7528 25.5127 34.434 25.1194 34.434C24.7261 34.434 24.4073 34.7527 24.4073 35.146V37.3228H23.4219V35.146C23.4219 34.7528 23.1032 34.434 22.7099 34.434C22.3167 34.434 21.9979 34.7527 21.9979 35.146V37.3228H21.0125V35.146C21.0125 34.7528 20.6937 34.434 20.3004 34.434C19.9072 34.434 19.5884 34.7527 19.5884 35.146V37.3228H18.8566V33.2198H19.9763H28.1276H29.2016V37.3228H29.2018Z" fill="#333333"/>
<path d="M36.1809 42.0153H34.757C34.3638 42.0153 34.0449 42.3341 34.0449 42.7274C34.0449 43.1206 34.3637 43.4394 34.757 43.4394H36.1809C36.5741 43.4394 36.893 43.1206 36.893 42.7274C36.893 42.3341 36.5742 42.0153 36.1809 42.0153Z" fill="#333333"/>
<path d="M40.5481 43.4395H39.1241C38.731 43.4395 38.4121 43.7582 38.4121 44.1515C38.4121 44.5448 38.7309 44.8635 39.1241 44.8635H40.5481C40.9413 44.8635 41.2601 44.5448 41.2601 44.1515C41.2601 43.7582 40.9413 43.4395 40.5481 43.4395Z" fill="#333333"/>
<path d="M6.46706 41.4457H5.04309C4.6499 41.4457 4.33105 41.7645 4.33105 42.1578C4.33105 42.5511 4.6498 42.8698 5.04309 42.8698H6.46706C6.86024 42.8698 7.17909 42.5511 7.17909 42.1578C7.17909 41.7645 6.86024 41.4457 6.46706 41.4457Z" fill="#333333"/>
<path d="M11.4983 43.2495H10.0743C9.68115 43.2495 9.3623 43.5683 9.3623 43.9615C9.3623 44.3547 9.68106 44.6736 10.0743 44.6736H11.4983C11.8915 44.6736 12.2103 44.3548 12.2103 43.9615C12.2103 43.5684 11.8915 43.2495 11.4983 43.2495Z" fill="#333333"/>
<path d="M47.1931 37.2479H45.8052V32.4777C45.8052 32.0845 45.4865 31.7657 45.0932 31.7657C44.2126 31.7657 43.4218 32.1577 42.8861 32.7763C42.3504 32.1577 41.5597 31.7657 40.6791 31.7657C40.2859 31.7657 39.967 32.0844 39.967 32.4777V37.248H38.8279V36.3669C38.8279 35.9737 38.5091 35.6549 38.1158 35.6549C37.7227 35.6549 37.4038 35.9737 37.4038 36.3669V37.9599C37.4038 38.3531 37.7226 38.672 38.1158 38.672H40.679C41.0722 38.672 41.391 38.3532 41.391 37.9599V33.3704C41.857 33.6239 42.1741 34.118 42.1741 34.6848C42.1741 35.078 42.4928 35.3968 42.8861 35.3968C43.2793 35.3968 43.5982 35.0781 43.5982 34.6848C43.5982 34.118 43.9151 33.6238 44.3812 33.3704V37.9599C44.3812 38.3531 44.7 38.672 45.0933 38.672H47.1931C47.5863 38.672 47.9051 38.3532 47.9051 37.9599C47.9051 37.5667 47.5863 37.2479 47.1931 37.2479Z" fill="#333333"/>
<path d="M38.1159 31.7657C37.2354 31.7657 36.4446 32.1577 35.9088 32.7763C35.3731 32.1577 34.5823 31.7657 33.7017 31.7657C33.3085 31.7657 32.9897 32.0844 32.9897 32.4777V37.248H32.088C31.6948 37.2479 31.376 37.5667 31.376 37.9599C31.376 38.3532 31.6947 38.672 32.088 38.672H33.7017C34.0949 38.672 34.4138 38.3532 34.4138 37.9599V33.3704C34.8799 33.6238 35.1969 34.118 35.1969 34.6848C35.1969 35.078 35.5156 35.3968 35.9089 35.3968C36.3021 35.3968 36.6209 35.0781 36.6209 34.6848C36.6209 34.1181 36.938 33.6239 37.404 33.3704V33.9936C37.404 34.3867 37.7228 34.7056 38.116 34.7056C38.5092 34.7056 38.8281 34.3868 38.8281 33.9936V32.4777C38.8279 32.0845 38.5091 31.7657 38.1159 31.7657Z" fill="#333333"/>
<path d="M15.817 37.2479H14.9153V32.4777C14.9153 32.0845 14.5966 31.7657 14.2033 31.7657C13.3227 31.7657 12.5319 32.1577 11.9962 32.7763C11.4605 32.1577 10.6698 31.7657 9.78909 31.7657C9.39591 31.7657 9.07706 32.0844 9.07706 32.4777V37.248H7.938V32.4777C7.938 32.0845 7.61925 31.7657 7.22597 31.7657C6.34538 31.7657 5.55459 32.1577 5.01891 32.7763C4.48322 32.1577 3.69244 31.7657 2.81184 31.7657C2.41866 31.7657 2.09981 32.0844 2.09981 32.4777V37.248H0.712031C0.318844 37.248 0 37.5667 0 37.96C0 38.3533 0.31875 38.672 0.712031 38.672H2.81184C3.20503 38.672 3.52388 38.3532 3.52388 37.9599V33.3704C3.99 33.6238 4.30697 34.118 4.30697 34.6848C4.30697 35.078 4.62572 35.3968 5.019 35.3968C5.41228 35.3968 5.73103 35.0781 5.73103 34.6848C5.73103 34.118 6.048 33.6238 6.51412 33.3704V37.9599C6.51412 38.3531 6.83288 38.672 7.22616 38.672H9.78928C10.1825 38.672 10.5013 38.3532 10.5013 37.9599V33.3704C10.9673 33.6239 11.2844 34.118 11.2844 34.6848C11.2844 35.078 11.6032 35.3968 11.9964 35.3968C12.3896 35.3968 12.7085 35.0781 12.7085 34.6848C12.7085 34.118 13.0254 33.6238 13.4916 33.3704V37.9599C13.4916 38.3531 13.8103 38.672 14.2036 38.672H15.8173C16.2105 38.672 16.5293 38.3532 16.5293 37.9599C16.5293 37.5667 16.2103 37.2479 15.817 37.2479Z" fill="#333333"/>
</svg>
