<svg width="36" height="36" viewBox="0 0 36 36" fill="none" xmlns="http://www.w3.org/2000/svg">
<path d="M32.2037 1.74902H8.92484C6.90457 1.74902 5.26091 3.37731 5.26091 5.37225L5.11089 25.8705H0.567908C0.245951 25.8705 0 26.1551 0 26.4771V29.2981C0 31.939 2.11336 34.0988 4.66396 34.2172V34.251H24.2672V34.2129C24.4129 34.2189 24.5012 34.251 24.6014 34.251H24.6153C27.3356 34.2351 29.5284 32.0178 29.5141 29.2976V11.3685H35.4321C35.754 11.3685 36 11.077 36 10.7553V5.5792C36.0037 3.47552 34.3073 1.76411 32.2037 1.74902V1.74902ZM4.91902 33.0851H4.91504C2.84125 33.0851 1.16599 31.3711 1.16599 29.2976V27.0365H19.6761V29.2879C19.6715 30.6002 20.1899 31.8601 21.1165 32.7893C21.215 32.8884 21.318 32.9393 21.4234 33.0851H4.91902ZM28.3482 29.297C28.3482 31.3711 26.6891 33.0851 24.6145 33.0851H24.6025C22.5176 33.07 20.8372 31.3731 20.8421 29.2882V26.4771C20.8438 26.1506 20.5856 25.8819 20.2591 25.8705H6.27688L6.4269 5.37624C6.4269 4.02037 7.54734 2.91502 8.92484 2.91502H29.4512C28.7868 3.64376 28.3482 4.56579 28.3482 5.59486V29.297ZM34.834 5.58945V10.2025H29.5141V5.59372C29.5141 4.13452 30.728 2.91502 32.1866 2.91502H32.2028C33.6651 2.92953 34.8408 4.12257 34.834 5.58518V5.58945Z" fill="#960F19"/>
<path d="M13.6898 16.0991L16.6955 18.1541C16.8917 18.2894 17.151 18.2894 17.3471 18.1541L20.3438 16.0997C21.3848 15.3895 22.1537 13.9046 22.1537 12.6456V8.48774C22.16 8.26798 22.0387 8.06416 21.8429 7.96424L17.2663 5.7131C17.1057 5.63339 16.9173 5.63339 16.7567 5.7131L12.1887 7.95798C11.9929 8.05789 11.8719 8.26171 11.8784 8.48148V12.6456C11.8784 13.9046 12.649 15.3895 13.6898 16.0991ZM13.0444 8.84528L17.0161 6.88564L20.9877 8.85069V12.6456C20.9877 13.5238 20.4121 14.6408 19.686 15.1358L17.0092 16.9665L14.3431 15.1361C13.6169 14.6405 13.0444 13.5238 13.0444 12.6456V8.84528Z" fill="#960F19"/>
<path d="M16.0299 13.5257C16.1387 13.6367 16.2873 13.6996 16.4427 13.7005H16.4441C16.599 13.6999 16.7473 13.6378 16.8563 13.528L19.1755 11.2079C19.4035 10.9802 19.4035 10.6107 19.1758 10.383C18.9483 10.1549 18.5788 10.1549 18.3511 10.3827L16.4461 12.2874L15.6846 11.5185C15.4578 11.2896 15.0885 11.2879 14.8597 11.5148C14.6308 11.7417 14.6294 12.1109 14.856 12.3398L16.0299 13.5257Z" fill="#960F19"/>
<path d="M24.2673 19.8218H10.2754C9.95342 19.8218 9.69238 20.0828 9.69238 20.4048C9.69238 20.7267 9.95342 20.9878 10.2754 20.9878H24.2673C24.5892 20.9878 24.8503 20.7267 24.8503 20.4048C24.8503 20.0828 24.5892 19.8218 24.2673 19.8218Z" fill="#960F19"/>
<path d="M24.2673 22.5183H10.2754C9.95342 22.5183 9.69238 22.7793 9.69238 23.1013C9.69238 23.4233 9.95342 23.6843 10.2754 23.6843H24.2673C24.5892 23.6843 24.8503 23.4233 24.8503 23.1013C24.8503 22.7793 24.5892 22.5183 24.2673 22.5183Z" fill="#960F19"/>
</svg>
