<svg width="32" height="32" viewBox="0 0 32 32" fill="none" xmlns="http://www.w3.org/2000/svg">
<path fill-rule="evenodd" clip-rule="evenodd" d="M20.5476 5.0265L18.7056 3.1385L20.1356 1.7425L21.3796 3.0165L23.1596 2.9945C23.9301 2.98538 24.6946 3.13041 25.4082 3.42107C26.1219 3.71173 26.7702 4.14215 27.315 4.68701C27.8599 5.23188 28.2903 5.88019 28.581 6.59382C28.8716 7.30745 29.0167 8.072 29.0076 8.8425L28.9876 10.6225L30.2596 11.8665C30.8105 12.4048 31.2482 13.0479 31.5471 13.7578C31.846 14.4677 32 15.2302 32 16.0005C32 16.7708 31.846 17.5333 31.5471 18.2432C31.2482 18.9531 30.8105 19.5962 30.2596 20.1345L28.9856 21.3785L29.0076 23.1585C29.0167 23.929 28.8716 24.6935 28.581 25.4072C28.2903 26.1208 27.8599 26.7691 27.315 27.314C26.7702 27.8588 26.1219 28.2893 25.4082 28.5799C24.6946 28.8706 23.9301 29.0156 23.1596 29.0065L21.3796 28.9865L20.1356 30.2585C19.5972 30.8094 18.9542 31.2472 18.2443 31.546C17.5343 31.8449 16.7718 31.9989 16.0016 31.9989C15.2313 31.9989 14.4688 31.8449 13.7589 31.546C13.0489 31.2472 12.4059 30.8094 11.8676 30.2585L10.6236 28.9845L8.84356 29.0065C8.07306 29.0156 7.30852 28.8706 6.59489 28.5799C5.88126 28.2893 5.23295 27.8588 4.68808 27.314C4.14322 26.7691 3.7128 26.1208 3.42214 25.4072C3.13148 24.6935 2.98644 23.929 2.99556 23.1585L3.01556 21.3785L1.74356 20.1345C1.19264 19.5962 0.754885 18.9531 0.45601 18.2432C0.157135 17.5333 0.00317383 16.7708 0.00317383 16.0005C0.00317383 15.2302 0.157135 14.4677 0.45601 13.7578C0.754885 13.0479 1.19264 12.4048 1.74356 11.8665L3.01756 10.6225L2.99556 8.8425C2.98644 8.072 3.13148 7.30745 3.42214 6.59382C3.7128 5.88019 4.14322 5.23188 4.68808 4.68701C5.23295 4.14215 5.88126 3.71173 6.59489 3.42107C7.30852 3.13041 8.07306 2.98538 8.84356 2.9945L10.6236 3.0145L11.8676 1.7425C12.4059 1.19158 13.0489 0.753817 13.7589 0.454942C14.4688 0.156067 15.2313 0.00210571 16.0016 0.00210571C16.7718 0.00210571 17.5343 0.156067 18.2443 0.454942C18.9542 0.753817 19.5972 1.19158 20.1356 1.7425L18.7056 3.1385C18.3535 2.77807 17.9329 2.49167 17.4685 2.29613C17.0042 2.10059 16.5054 1.99986 16.0016 1.99986C15.4977 1.99986 14.9989 2.10059 14.5346 2.29613C14.0702 2.49167 13.6496 2.77807 13.2976 3.1385L11.4576 5.0265L8.81756 4.9945C8.31392 4.98887 7.81423 5.08395 7.34785 5.27415C6.88147 5.46436 6.4578 5.74585 6.10174 6.1021C5.74568 6.45834 5.46441 6.88215 5.27445 7.34863C5.08449 7.81511 4.98967 8.31485 4.99556 8.8185L5.02756 11.4545L3.13956 13.2965C2.77914 13.6486 2.49273 14.0692 2.29719 14.5335C2.10166 14.9979 2.00092 15.4966 2.00092 16.0005C2.00092 16.5043 2.10166 17.0031 2.29719 17.4675C2.49273 17.9318 2.77914 18.3524 3.13956 18.7045L5.02756 20.5445L4.99556 23.1845C4.98993 23.6881 5.08501 24.1878 5.27522 24.6542C5.46542 25.1206 5.74692 25.5443 6.10316 25.9003C6.45941 26.2564 6.88322 26.5376 7.3497 26.7276C7.81618 26.9176 8.31592 27.0124 8.81956 27.0065L11.4556 26.9745L13.2976 28.8625C13.6496 29.2229 14.0702 29.5093 14.5346 29.7049C14.9989 29.9004 15.4977 30.0011 16.0016 30.0011C16.5054 30.0011 17.0042 29.9004 17.4685 29.7049C17.9329 29.5093 18.3535 29.2229 18.7056 28.8625L20.5456 26.9745L23.1856 27.0065C23.6892 27.0121 24.1889 26.917 24.6553 26.7268C25.1217 26.5366 25.5453 26.2551 25.9014 25.8989C26.2574 25.5427 26.5387 25.1188 26.7287 24.6524C26.9186 24.1859 27.0135 23.6861 27.0076 23.1825L26.9756 20.5465L28.8636 18.7045C29.224 18.3524 29.5104 17.9318 29.7059 17.4675C29.9015 17.0031 30.0022 16.5043 30.0022 16.0005C30.0022 15.4966 29.9015 14.9979 29.7059 14.5335C29.5104 14.0692 29.224 13.6486 28.8636 13.2965L26.9756 11.4565L27.0076 8.8165C27.0132 8.31285 26.9181 7.81316 26.7279 7.34678C26.5377 6.8804 26.2562 6.45673 25.9 6.10067C25.5437 5.74462 25.1199 5.46334 24.6534 5.27338C24.1869 5.08342 23.6872 4.9886 23.1836 4.9945L20.5476 5.0265Z" fill="#960F19"/>
<path fill-rule="evenodd" clip-rule="evenodd" d="M20.708 12.2919C20.8012 12.3848 20.8751 12.4952 20.9255 12.6167C20.9759 12.7381 21.0018 12.8684 21.0018 12.9999C21.0018 13.1315 20.9759 13.2617 20.9255 13.3832C20.8751 13.5047 20.8012 13.615 20.708 13.7079L14.708 19.7079C14.6152 19.8011 14.5048 19.8749 14.3833 19.9253C14.2618 19.9758 14.1316 20.0017 14 20.0017C13.8685 20.0017 13.7383 19.9758 13.6168 19.9253C13.4953 19.8749 13.3849 19.8011 13.292 19.7079L10.292 16.7079C10.1991 16.6149 10.1253 16.5046 10.075 16.3831C10.0247 16.2616 9.99878 16.1314 9.99878 15.9999C9.99878 15.8684 10.0247 15.7382 10.075 15.6168C10.1253 15.4953 10.1991 15.3849 10.292 15.2919C10.385 15.1989 10.4954 15.1252 10.6169 15.0749C10.7384 15.0246 10.8686 14.9987 11 14.9987C11.1315 14.9987 11.2617 15.0246 11.3832 15.0749C11.5047 15.1252 11.6151 15.1989 11.708 15.2919L14 17.5859L19.292 12.2919C19.3849 12.1988 19.4953 12.1249 19.6168 12.0745C19.7383 12.0241 19.8685 11.9981 20 11.9981C20.1316 11.9981 20.2618 12.0241 20.3833 12.0745C20.5048 12.1249 20.6152 12.1988 20.708 12.2919Z" fill="#960F19"/>
</svg>
