<svg width="24" height="24" viewBox="0 0 24 24" fill="none" xmlns="http://www.w3.org/2000/svg">
<path d="M22 13.4V12H18V19H19.3333V16.2H21.3333V14.8H19.3333V13.4H22Z" fill="#960F19"/>
<path d="M13.8571 19H11V12H13.8571C14.4253 12.0006 14.97 12.222 15.3717 12.6157C15.7735 13.0094 15.9994 13.5432 16 14.1V16.9C15.9994 17.4568 15.7735 17.9906 15.3717 18.3843C14.97 18.778 14.4253 18.9994 13.8571 19ZM12.4286 17.6H13.8571C14.0465 17.5998 14.2281 17.526 14.362 17.3948C14.4959 17.2635 14.5712 17.0856 14.5714 16.9V14.1C14.5712 13.9144 14.4959 13.7365 14.362 13.6052C14.2281 13.474 14.0465 13.4002 13.8571 13.4H12.4286V17.6Z" fill="#960F19"/>
<path d="M8.57143 12H5V19H6.42857V16.9H8.57143C8.95014 16.8994 9.31317 16.7518 9.58096 16.4893C9.84874 16.2269 9.99943 15.8711 10 15.5V13.4C9.99962 13.0288 9.84899 12.6729 9.58116 12.4105C9.31334 12.148 8.95019 12.0004 8.57143 12ZM6.42857 15.5V13.4H8.57143L8.57214 15.5H6.42857Z" fill="#960F19"/>
<path d="M15.9998 10.5716V7.71446C16.0022 7.62059 15.9847 7.52728 15.9485 7.44097C15.9122 7.35465 15.8581 7.27738 15.7898 7.21447L10.8899 2.21453C10.8282 2.14477 10.7525 2.08949 10.6679 2.0525C10.5833 2.0155 10.4919 1.99767 10.3999 2.00024H3.39998C3.02902 2.00137 2.67357 2.15224 2.41127 2.41991C2.14896 2.68757 2.00111 3.05027 2 3.4288V20.5714C2 20.9503 2.1475 21.3137 2.41004 21.5816C2.67259 21.8495 3.02868 22 3.39998 22H14.5998V20.5714H3.39998V3.4288H8.99989V7.71446C9.00099 8.09299 9.14885 8.45569 9.41115 8.72335C9.67346 8.99101 10.0289 9.14188 10.3999 9.14301H14.5998V10.5716H15.9998ZM10.3999 7.71446V3.71451L14.3198 7.71446H10.3999Z" fill="#960F19"/>
</svg>
