<svg width="24" height="24" viewBox="0 0 24 24" fill="none" xmlns="http://www.w3.org/2000/svg">
<path d="M12 23.2C11.3 23.2 10.6 23 9.89999 22.6C9.49999 22.3 9.09999 22.2 8.59999 22.2H8.29999C6.79999 22.2 5.49999 21.4 4.89999 20.1C4.69999 19.6 4.29999 19.3 3.89999 19C2.59999 18.3 1.79999 16.9 1.79999 15.5C1.79999 15 1.69999 14.4 1.39999 14C0.599988 12.7 0.599988 11.1 1.39999 9.89999C1.69999 9.49999 1.79999 9.09999 1.79999 8.59999V8.49999C1.69999 6.99999 2.59999 5.59999 3.89999 4.89999C4.39999 4.69999 4.69999 4.29999 4.99999 3.89999C5.69999 2.59999 6.99999 1.79999 8.39999 1.79999H8.69999C9.19999 1.79999 9.59999 1.69999 9.99999 1.39999C10.6 0.999988 11.3 0.799988 12 0.799988C12.7 0.799988 13.4 0.999988 14.1 1.39999C14.5 1.69999 14.9 1.79999 15.4 1.79999H15.7C17.2 1.79999 18.5 2.59999 19.1 3.89999C19.3 4.39999 19.7 4.69999 20.1 4.99999C21.4 5.69999 22.2 7.09999 22.2 8.49999C22.2 8.99999 22.3 9.59999 22.6 9.99999C23 10.6 23.2 11.3 23.2 12.1C23.2 12.8 23 13.6 22.6 14.2C22.3 14.6 22.2 15 22.2 15.5V15.6C22.3 17.1 21.4 18.5 20.1 19.2C19.6 19.4 19.3 19.8 19 20.2C18.3 21.5 17.1 22.3 15.6 22.3H15.4H15.2C14.7 22.3 14.3 22.4 13.9 22.7C13.4 23 12.7 23.2 12 23.2ZM8.59999 20.8C9.29999 20.8 10.1 21 10.7 21.4C11.1 21.7 11.5 21.8 12 21.8C12.5 21.8 12.9 21.7 13.3 21.4C13.9 21 14.6 20.8 15.3 20.8C15.4 20.8 15.5 20.8 15.5 20.8H15.7C16.6 20.8 17.4 20.3 17.8 19.5C18.2 18.8 18.8 18.2 19.5 17.8C20.4 17.4 20.9 16.5 20.8 15.5V15.3C20.8 14.6 21 13.8 21.4 13.2C21.9 12.4 21.9 11.4 21.4 10.6C21 9.99999 20.8 9.19999 20.8 8.39999C20.8 7.39999 20.3 6.49999 19.5 6.09999C18.8 5.69999 18.2 5.09999 17.8 4.39999C17.4 3.59999 16.6 3.09999 15.7 3.09999C15.7 3.09999 15.4 3.09999 15.3 3.09999C14.6 3.09999 13.9 2.89999 13.3 2.49999C12.9 2.19999 12.5 2.09999 12 2.09999C11.5 2.09999 11.1 2.19999 10.7 2.49999C10.1 2.89999 9.39999 3.09999 8.69999 3.09999C8.59999 3.09999 8.49999 3.09999 8.49999 3.09999H8.29999C7.39999 3.09999 6.59999 3.59999 6.19999 4.39999C5.79999 5.09999 5.19999 5.69999 4.49999 6.09999C3.59999 6.59999 3.09999 7.49999 3.19999 8.39999V8.59999C3.19999 9.29999 2.99999 10.1 2.59999 10.7C2.09999 11.5 2.09999 12.5 2.59999 13.3C2.99999 14 3.19999 14.8 3.19999 15.6C3.19999 16.6 3.69999 17.5 4.49999 17.9C5.19999 18.3 5.79999 18.9 6.19999 19.6C6.59999 20.4 7.39999 20.9 8.29999 20.9L8.59999 20.8Z" fill="#960F19"/>
<path d="M8.4 18.7C8.3 18.7 8.20001 18.7 8.00001 18.6C7.70001 18.4 7.60001 18 7.80001 17.7L15 5.70002C15.1 5.50002 15.3 5.40002 15.6 5.40002C15.7 5.40002 15.8 5.40002 16 5.50002C16.2 5.60002 16.3 5.70002 16.3 5.90002C16.3 6.10002 16.3 6.30002 16.2 6.40002L9.00001 18.4C8.90001 18.6 8.6 18.7 8.4 18.7Z" fill="#960F19"/>
<path d="M8.69999 12.1C7.19999 12.1 5.89999 10.6 5.89999 8.90001C5.89999 7.10001 7.09999 5.70001 8.69999 5.70001C10.2 5.70001 11.5 7.20001 11.5 8.90001C11.5 10.6 10.2 12.1 8.69999 12.1ZM8.69999 7.00001C7.89999 7.00001 7.29999 7.80001 7.29999 8.80001C7.29999 9.80001 7.89999 10.7 8.69999 10.7C9.49999 10.7 10.1 9.90001 10.1 8.80001C10.1 7.80001 9.49999 7.00001 8.69999 7.00001Z" fill="#960F19"/>
<path d="M15.3 18.4C13.8 18.4 12.5 16.9 12.5 15.2C12.5 13.5 13.7 12 15.3 12C16.8 12 18.1 13.5 18.1 15.2C18.1 16.9 16.8 18.4 15.3 18.4ZM15.3 13.3C14.5 13.3 13.9 14.1 13.9 15.2C13.9 16.3 14.5 17.1 15.3 17.1C16.1 17.1 16.7 16.3 16.7 15.2C16.7 14.1 16.1 13.3 15.3 13.3Z" fill="#960F19"/>
</svg>
