<svg width="36" height="36" viewBox="0 0 36 36" fill="none" xmlns="http://www.w3.org/2000/svg">
<path d="M36 17.996C36 16.8599 35.6663 15.7475 35.0466 14.802C34.546 14.0472 34.3077 13.1494 34.3633 12.2437C34.3633 12.2278 34.3712 12.2119 34.3712 12.2039V12.196C34.4507 9.8998 33.243 7.75458 31.1852 6.71375C31.1693 6.7058 31.1454 6.69786 31.1295 6.68991C30.3509 6.2847 29.7153 5.64908 29.3101 4.87045C29.3021 4.85456 29.2942 4.83072 29.2862 4.81483C28.2454 2.76495 26.1002 1.54933 23.804 1.62878H23.7961C23.7802 1.62878 23.7643 1.63672 23.7563 1.63672C22.8506 1.69234 21.9528 1.44604 21.198 0.953432C19.2593 -0.317811 16.7486 -0.317811 14.81 0.953432C14.0552 1.45398 13.1574 1.69234 12.2516 1.63672C12.2357 1.63672 12.2198 1.62878 12.2119 1.62878H12.2039C9.90775 1.54933 7.76252 2.76495 6.72169 4.81483C6.71375 4.83072 6.7058 4.85456 6.69786 4.87045C6.29265 5.64908 5.65703 6.2847 4.87839 6.68991C4.8625 6.69786 4.83867 6.7058 4.82278 6.71375C2.76495 7.74663 1.55727 9.8998 1.63672 12.188V12.196C1.63672 12.2039 1.64467 12.2198 1.64467 12.2357C1.64467 12.3231 1.65262 12.4026 1.65262 12.4741C1.65262 13.3004 1.41426 14.1108 0.953432 14.802C-0.317811 16.7407 -0.317811 19.2514 0.953432 21.19C1.45398 21.9448 1.69234 22.8426 1.63672 23.7484C1.63672 23.7643 1.62878 23.7802 1.62878 23.7881V23.7961C1.54933 26.0923 2.75701 28.2375 4.81483 29.2783C4.83072 29.2862 4.85456 29.2942 4.87045 29.3021C5.64908 29.7073 6.2847 30.343 6.68991 31.1216C6.69786 31.1375 6.7058 31.1613 6.71375 31.1772C7.75458 33.2271 9.8998 34.4427 12.196 34.3633H12.2039C12.2198 34.3633 12.2278 34.3553 12.2437 34.3553C12.3311 34.3553 12.4105 34.3474 12.482 34.3474C13.3083 34.3474 14.1187 34.5857 14.81 35.0466C16.7486 36.3178 19.2593 36.3178 21.198 35.0466C21.9528 34.546 22.8506 34.3077 23.7563 34.3633C23.7722 34.3633 23.7881 34.3712 23.7961 34.3712H23.804C23.9073 34.3712 24.0106 34.3712 24.1059 34.3712C26.2909 34.3712 28.2931 33.1397 29.2862 31.1852C29.2942 31.1693 29.3021 31.1534 29.3101 31.1375C29.7153 30.3589 30.3509 29.7232 31.1295 29.318C31.1454 29.3101 31.1693 29.3021 31.1852 29.2942C33.235 28.2534 34.4507 26.1081 34.3712 23.812V23.804C34.3712 23.7961 34.3633 23.7802 34.3633 23.7643C34.3633 23.6769 34.3553 23.5974 34.3553 23.5259C34.3553 22.6996 34.5937 21.8892 35.0545 21.198C35.6742 20.2445 36 19.1322 36 17.996ZM33.7197 20.316C33.092 21.2695 32.7663 22.3818 32.7663 23.518C32.7663 23.6213 32.7822 23.7166 32.7822 23.812V23.8279C32.7822 23.8437 32.7742 23.8596 32.7742 23.8755C32.8696 25.5361 31.9717 27.0934 30.4939 27.8561C30.478 27.864 30.4621 27.872 30.4463 27.8799C29.3419 28.444 28.444 29.3419 27.8799 30.4463C27.872 30.4621 27.864 30.478 27.8561 30.4939C27.0934 31.9717 25.5361 32.8696 23.8755 32.7822C23.8596 32.7822 23.8437 32.7901 23.8279 32.7901H23.812C22.5725 32.7107 21.3489 33.0444 20.316 33.7356C18.9018 34.6572 17.0823 34.6572 15.676 33.7277C14.7226 33.1 13.6102 32.7742 12.4741 32.7742C12.3708 32.7742 12.2754 32.7901 12.1801 32.7901H12.1642C12.1483 32.7901 12.1324 32.7822 12.1165 32.7822C10.456 32.8696 8.8987 31.9797 8.13595 30.5019C8.12801 30.486 8.12006 30.4701 8.11212 30.4542C7.548 29.3498 6.65019 28.452 5.5458 27.8879C5.52991 27.8799 5.51401 27.872 5.49812 27.864C4.0203 27.1013 3.12249 25.544 3.20989 23.8835C3.20989 23.8676 3.20194 23.8517 3.20194 23.8358V23.8199C3.28139 22.5804 2.94769 21.3569 2.25646 20.324C1.3348 18.9097 1.3348 17.0903 2.2644 15.684C2.89208 14.7305 3.21783 13.6182 3.21783 12.482C3.21783 12.3787 3.20194 12.2834 3.20194 12.188V12.1721C3.20194 12.1563 3.20989 12.1404 3.20989 12.1245C3.11454 10.4639 4.01236 8.90664 5.49018 8.1439C5.50607 8.13595 5.52196 8.12801 5.53785 8.12006C6.64224 7.55595 7.54006 6.65813 8.10417 5.55374C8.11212 5.53785 8.12006 5.52196 8.12801 5.50607C8.89075 4.02825 10.448 3.13043 12.1086 3.21783C12.1245 3.21783 12.1404 3.20989 12.1563 3.20989H12.1721C13.4116 3.28934 14.6352 2.95564 15.6681 2.2644C17.0823 1.34275 18.9018 1.34275 20.3081 2.2644C21.341 2.95564 22.5646 3.28934 23.804 3.20989H23.8199C23.8358 3.20989 23.8517 3.21783 23.8676 3.21783C25.5281 3.12249 27.0854 4.0203 27.8482 5.49812C27.8561 5.51401 27.864 5.52991 27.872 5.5458C28.4361 6.65019 29.3339 7.548 30.4383 8.11212C30.4542 8.12006 30.4701 8.12801 30.486 8.13595C31.9638 8.8987 32.8616 10.456 32.7742 12.1165C32.7742 12.1324 32.7822 12.1483 32.7822 12.1642V12.1801C32.7027 13.4196 33.0364 14.6431 33.7277 15.676C34.6493 17.0823 34.6493 18.9097 33.7197 20.316Z" fill="#960F19"/>
<path d="M24.3287 7.46853C23.9553 7.24606 23.4627 7.36524 23.2402 7.73867L11.4097 27.435C11.1873 27.8084 11.3064 28.301 11.6799 28.5235C12.0533 28.7459 12.5459 28.6268 12.7684 28.2533L24.5988 8.55703C24.8213 8.1836 24.7021 7.691 24.3287 7.46853Z" fill="#960F19"/>
<path d="M12.6249 7.83401C10.3128 7.83401 8.42188 10.0666 8.42188 12.8157C8.42188 15.5648 10.3128 17.8053 12.6249 17.8053C14.937 17.8053 16.828 15.5648 16.828 12.8157C16.828 10.0666 14.937 7.83401 12.6249 7.83401ZM12.617 16.2163C11.1789 16.2163 10.003 14.6908 10.003 12.8157C10.003 10.9406 11.1789 9.42307 12.617 9.42307C14.0551 9.42307 15.231 10.9486 15.231 12.8157C15.231 14.6828 14.0551 16.2163 12.617 16.2163Z" fill="#960F19"/>
<path d="M23.3912 18.1867C21.0711 18.1867 19.1802 20.4193 19.1802 23.1684C19.1802 25.9175 21.0711 28.1501 23.3912 28.1501C25.7112 28.1501 27.5942 25.9175 27.5942 23.1684C27.5942 20.4193 25.7112 18.1867 23.3912 18.1867ZM23.3912 26.569C21.9451 26.569 20.7692 25.0435 20.7692 23.1763C20.7692 21.3092 21.9451 19.7837 23.3912 19.7837C24.8372 19.7837 26.0051 21.3092 26.0051 23.1763C26.0051 25.0435 24.8292 26.569 23.3912 26.569Z" fill="#960F19"/>
</svg>
