<svg width="48" height="48" viewBox="0 0 48 48" fill="none" xmlns="http://www.w3.org/2000/svg">
<path d="M24 4.07812C24.3107 4.07812 24.5625 3.82629 24.5625 3.51562C24.5625 3.20496 24.3107 2.95312 24 2.95312C23.6893 2.95312 23.4375 3.20496 23.4375 3.51562C23.4375 3.82629 23.6893 4.07812 24 4.07812Z" fill="#333333"/>
<path d="M36.6562 0H11.3438C9.40519 0 7.82812 1.57706 7.82812 3.51562V44.4844C7.82812 46.4229 9.40519 48 11.3438 48H36.6562C38.5948 48 40.1719 46.4229 40.1719 44.4844V3.51562C40.1719 1.57706 38.5948 0 36.6562 0ZM38.7656 44.4844C38.7656 45.6475 37.8193 46.5938 36.6562 46.5938H11.3438C10.1807 46.5938 9.23438 45.6475 9.23438 44.4844V3.51562C9.23438 2.35247 10.1807 1.40625 11.3438 1.40625H36.6562C37.8193 1.40625 38.7656 2.35247 38.7656 3.51562V44.4844Z" fill="#333333"/>
<path d="M26.8125 40.9688H21.1875C20.0244 40.9688 19.0781 41.915 19.0781 43.0781C19.0781 44.2413 20.0244 45.1875 21.1875 45.1875H26.8125C27.9756 45.1875 28.9219 44.2413 28.9219 43.0781C28.9219 41.915 27.9756 40.9688 26.8125 40.9688ZM26.8125 43.7812H21.1875C20.7997 43.7812 20.4844 43.4659 20.4844 43.0781C20.4844 42.6904 20.7997 42.375 21.1875 42.375H26.8125C27.2002 42.375 27.5156 42.6904 27.5156 43.0781C27.5156 43.4659 27.2002 43.7812 26.8125 43.7812Z" fill="#333333"/>
<path d="M36.6562 2.8125H27.9774C27.791 2.8125 27.6122 2.88656 27.4802 3.01847L25.4927 5.00606C25.0917 5.40516 24.5616 5.625 24 5.625C23.4382 5.625 22.909 5.40553 22.51 5.00691C22.5067 5.00353 21.2765 3.77512 20.5198 3.01847C20.3879 2.88656 20.209 2.8125 20.0226 2.8125H11.3438C10.9553 2.8125 10.6406 3.12731 10.6406 3.51562V19.7812C10.6406 20.1696 10.9553 20.4844 11.3438 20.4844C11.7322 20.4844 12.0469 20.1696 12.0469 19.7812V4.21875H19.7314C19.7314 4.21875 21.4376 5.92397 21.5198 5.99822L21.5162 6.00178C22.1808 6.66562 23.0628 7.03125 24 7.03125C24.9359 7.03125 25.8184 6.666 26.486 6.0015L28.2686 4.21875H35.9531V38.1562H12.0469V22.5938C12.0469 22.2054 11.7322 21.8906 11.3438 21.8906C10.9553 21.8906 10.6406 22.2054 10.6406 22.5938V38.8594C10.6406 39.2477 10.9553 39.5625 11.3438 39.5625H36.6562C37.0447 39.5625 37.3594 39.2477 37.3594 38.8594V3.51562C37.3594 3.12731 37.0447 2.8125 36.6562 2.8125Z" fill="#333333"/>
</svg>
