<svg width="18" height="18" viewBox="0 0 18 18" fill="none" xmlns="http://www.w3.org/2000/svg">
<path d="M14.9749 3.12964C13.6008 1.14086 11.423 0 9.00032 0C6.57767 0 4.39984 1.14086 3.02569 3.12964C1.65829 5.10838 1.34255 7.61351 2.17941 9.82677C2.40325 10.4312 2.75906 11.0184 3.23445 11.5687L8.52117 17.7784C8.64074 17.919 8.81593 18 9.00032 18C9.18471 18 9.3599 17.919 9.47946 17.7784L14.7647 11.5703C15.2422 11.0169 15.5976 10.4303 15.8195 9.83078C16.6581 7.61351 16.3424 5.10838 14.9749 3.12964ZM14.641 9.38999C14.4698 9.85257 14.1903 10.3099 13.8108 10.7498C13.8098 10.7509 13.8087 10.7519 13.8079 10.7532L9.00032 16.3999L4.18982 10.7497C3.81052 10.3101 3.53106 9.85282 3.3582 9.38581C2.66611 7.55539 2.92876 5.48413 4.06101 3.84546C5.1968 2.20155 6.99722 1.25873 9.00032 1.25873C11.0034 1.25873 12.8036 2.20152 13.9394 3.84546C15.0719 5.48413 15.3347 7.55539 14.641 9.38999Z" fill="#960F19"/>
<path d="M9.00007 3.73428C7.05677 3.73428 5.47559 5.31526 5.47559 7.25877C5.47559 9.20228 7.05656 10.7833 9.00007 10.7833C10.9436 10.7833 12.5246 9.20228 12.5246 7.25877C12.5246 5.31547 10.9434 3.73428 9.00007 3.73428ZM9.00007 9.52448C7.75076 9.52448 6.73432 8.50805 6.73432 7.25873C6.73432 6.00942 7.75076 4.99298 9.00007 4.99298C10.2494 4.99298 11.2658 6.00942 11.2658 7.25873C11.2658 8.50805 10.2494 9.52448 9.00007 9.52448Z" fill="#960F19"/>
</svg>
