<svg width="24" height="16" viewBox="0 0 24 16" xmlns="http://www.w3.org/2000/svg">
<path d="M23.2969 10.3438C23.0196 10.3438 15.9555 10.3438 15.5156 10.3438V8.23438C15.5156 7.99733 15.5043 7.76291 15.4833 7.53125H16.2188C16.6071 7.53125 16.9219 7.21644 16.9219 6.82812V4.01562C16.9219 2.85252 15.9756 1.90625 14.8125 1.90625H12.223C10.9652 1.02073 9.43298 0.5 7.78125 0.5C3.49064 0.5 0 3.96964 0 8.23438C0 12.4991 3.49064 15.9688 7.78125 15.9688H14.8125C15.2008 15.9688 15.5156 15.6539 15.5156 15.2656V14.5625C15.8539 14.5625 22.38 14.5625 22.5938 14.5625V15.2656C22.5938 15.6539 22.9086 15.9688 23.2969 15.9688C23.6852 15.9688 24 15.6539 24 15.2656C24 14.7355 24 11.4802 24 11.0469C24 10.6586 23.6852 10.3438 23.2969 10.3438ZM14.1094 11.0469C14.1094 11.4142 14.1094 14.214 14.1094 14.5625H7.78125C4.26605 14.5625 1.40625 11.7237 1.40625 8.23438C1.40625 4.74505 4.26609 1.90625 7.78125 1.90625C11.2706 1.90625 14.1094 4.74505 14.1094 8.23438V11.0469ZM15.2232 6.125C14.927 5.08147 14.4167 4.12709 13.7431 3.3125H14.8125C15.2002 3.3125 15.5156 3.62792 15.5156 4.01562V6.125H15.2232ZM19.7344 13.1562H15.5156V11.75H19.7344V13.1562ZM22.5938 13.1562H21.1406V11.75H22.5938V13.1562Z" fill="#999999"/>
</svg>
