<svg width="25" height="24" viewBox="0 0 25 24" fill="none" xmlns="http://www.w3.org/2000/svg">
<path d="M21.7977 7.5H2.27904C2.07994 7.5 1.88899 7.57902 1.7482 7.71967C1.60741 7.86032 1.52832 8.05109 1.52832 8.25V15.75C1.52832 15.9489 1.60741 16.1397 1.7482 16.2803C1.88899 16.421 2.07994 16.5 2.27904 16.5H21.7977C21.9968 16.5 22.1877 16.421 22.3285 16.2803C22.4693 16.1397 22.5484 15.9489 22.5484 15.75V8.25C22.5484 8.05109 22.4693 7.86032 22.3285 7.71967C22.1877 7.57902 21.9968 7.5 21.7977 7.5ZM21.047 15H3.02976V9H6.03263V12H7.53406V9H11.2876V12H12.7891V9H16.5427V12H18.0441V9H21.047V15Z" fill="#929AAB"/>
</svg>
