<svg width="48" height="48" viewBox="0 0 48 48" fill="none" xmlns="http://www.w3.org/2000/svg">
<g clip-path="url(#clip0)">
<path d="M45.5318 21.3708L47.8347 18.6394C47.9603 18.4905 48.0184 18.2961 47.9953 18.1028L46.9255 9.13799C46.893 8.86527 46.7046 8.63643 46.4431 8.55205C46.1817 8.46796 45.8951 8.54343 45.7093 8.74574L40.8653 14.0224L32.0126 14.924C31.6263 14.9632 31.345 15.3084 31.3843 15.6947C31.4237 16.081 31.7694 16.3626 32.155 16.323L41.2736 15.3943C41.445 15.3769 41.6039 15.2972 41.7203 15.1703L45.7103 10.824L46.5626 17.9663L44.5196 20.3895L40.3856 23.1781C40.1779 23.3183 40.0603 23.5585 40.0773 23.8086L40.3986 28.5433C40.4219 28.8869 40.6906 29.163 41.0334 29.1956L43.9775 29.4759L45.4864 33.3173L44.7969 35.0937L42.7874 32.4121C42.6311 32.2036 42.3727 32.0986 42.115 32.1392L39.0626 32.6212C38.811 32.661 38.6006 32.8337 38.5125 33.0726L37.5234 35.7574L31.815 36.9145C31.4344 36.9917 31.1885 37.3627 31.2656 37.7434C31.3332 38.0768 31.6265 38.3069 31.954 38.3069C32.0003 38.3069 32.0473 38.3023 32.0945 38.2927L38.1874 37.0576C38.4263 37.0091 38.6231 36.8404 38.7074 36.6115L39.6895 33.9458L41.9161 33.5942L44.4314 36.9507C44.5846 37.1551 44.8364 37.2606 45.0897 37.2257C45.3428 37.1909 45.5572 37.0217 45.6496 36.7836L46.8968 33.5702C46.9607 33.4056 46.9603 33.223 46.8957 33.0587L45.1285 28.5598C45.0317 28.3132 44.8044 28.1421 44.5407 28.1169L41.7613 27.8523L41.5078 24.1174L45.3873 21.5005C45.4415 21.4641 45.49 21.4205 45.5318 21.3708Z" fill="#333333"/>
<path d="M28.7302 37.5399L26.3997 38.0123L20.8483 32.188C20.6734 32.0045 20.4134 31.9292 20.1674 31.9913L16.1395 33.0063L14.3336 30.7837C14.2147 30.6374 14.0422 30.545 13.8545 30.5271L7.10676 29.8844C6.90998 29.8656 6.71367 29.9309 6.56714 30.0642C6.4206 30.1974 6.33698 30.3863 6.33698 30.5844V32.0651L3.66763 34.7943L2.79276 30.9569L3.92582 27.9802C3.99417 27.8006 3.9861 27.6008 3.90332 27.4274C3.82064 27.2538 3.67045 27.1218 3.48782 27.062L1.5411 26.4236L3.90623 16.7596L8.37079 14.0283L12.1589 15.7904C12.5111 15.9542 12.9292 15.8015 13.093 15.4494C13.2568 15.0973 13.1041 14.6791 12.752 14.5154L8.62204 12.5943C8.40857 12.495 8.15938 12.5092 7.95857 12.632L2.92523 15.7113C2.76698 15.8082 2.65335 15.9637 2.6092 16.1439L0.0202916 26.7217C-0.0670834 27.0786 0.135135 27.4425 0.484167 27.557L2.34932 28.1686L1.40264 30.6555C1.35323 30.7852 1.34339 30.9267 1.37423 31.0619L2.58304 36.3641C2.64023 36.6149 2.82998 36.8146 3.07757 36.8845C3.32517 36.9542 3.59123 36.8834 3.77123 36.6994L7.54279 32.8434C7.67132 32.712 7.74323 32.5355 7.74323 32.3518V31.3576L13.4279 31.8991L15.3308 34.2411C15.5032 34.4534 15.7832 34.5464 16.0483 34.4795L20.1133 33.4552L25.6497 39.2638C25.7837 39.4044 25.9683 39.4817 26.1586 39.4817C26.205 39.4817 26.2518 39.4771 26.2983 39.4678L29.0095 38.9182C29.3901 38.841 29.636 38.47 29.5589 38.0893C29.4819 37.7087 29.1112 37.4624 28.7302 37.5399Z" fill="#333333"/>
<path d="M29.372 12.9796C25.9206 12.9796 24.2431 12.577 22.4671 12.1507C20.8086 11.7527 19.0974 11.3421 15.937 11.2889V10.4862C15.937 10.0979 15.6222 9.78308 15.2339 9.78308C14.8456 9.78308 14.5308 10.0979 14.5308 10.4862V26.7578C14.5308 27.1461 14.8456 27.461 15.2339 27.461C15.6222 27.461 15.937 27.1461 15.937 26.7578V23.2488C18.9219 23.2997 20.4878 23.6755 22.1389 24.0718C23.9163 24.4984 25.7542 24.9395 29.372 24.9395C29.7603 24.9395 30.0751 24.6246 30.0751 24.2363V13.6827C30.0751 13.2943 29.7603 12.9796 29.372 12.9796ZM22.1389 13.5181C23.7973 13.9161 25.5085 14.3268 28.6688 14.3799V16.5216C25.684 16.4706 24.1181 16.0948 22.4671 15.6985C20.8086 15.3005 19.0974 14.8898 15.937 14.8367V12.6951C18.9219 12.7461 20.4878 13.1218 22.1389 13.5181ZM22.4671 22.7044C20.8086 22.3063 19.0974 21.8957 15.937 21.8425V19.7099C18.9218 19.7608 20.4877 20.1366 22.1388 20.5328C22.3707 20.5885 22.6025 20.6441 22.8384 20.6989C22.8919 20.7112 22.9453 20.7171 22.9979 20.7171C23.3177 20.7171 23.6069 20.4976 23.6823 20.1727C23.77 19.7945 23.5345 19.4166 23.1562 19.3289C22.9239 19.275 22.6954 19.2201 22.467 19.1653C20.8085 18.7673 19.0974 18.3567 15.9371 18.3035V16.2429C18.922 16.2938 20.4879 16.6697 22.139 17.066C23.7974 17.464 25.5086 17.8746 28.6689 17.9278V19.9882C27.7747 19.9728 26.9621 19.927 26.2011 19.8497C25.814 19.8103 25.4698 20.0917 25.4304 20.478C25.3911 20.8643 25.6725 21.2093 26.0587 21.2487C26.8661 21.3308 27.7254 21.379 28.6689 21.3948V23.5273C25.6838 23.4764 24.1181 23.1006 22.4671 22.7044Z" fill="#333333"/>
</g>
<defs>
<clipPath id="clip0">
<rect width="48" height="48" fill="white"/>
</clipPath>
</defs>
</svg>
