<svg width="32" height="32" viewBox="0 0 32 32" fill="none" xmlns="http://www.w3.org/2000/svg">
<g clip-path="url(#clip0)">
<path d="M20.2214 20.6509C25.1135 20.6509 29.0938 16.6709 29.0938 11.7786C29.0938 6.88647 25.1135 2.90625 20.2214 2.90625C15.3293 2.90625 11.3491 6.88647 11.3491 11.7786C11.3491 16.6709 15.3293 20.6509 20.2214 20.6509ZM20.2214 4.15625C24.4243 4.15625 27.8438 7.57568 27.8438 11.7786C27.8438 15.9814 24.4243 19.4009 20.2214 19.4009C16.0186 19.4009 12.5991 15.9817 12.5991 11.7786C12.5991 7.57568 16.0186 4.15625 20.2214 4.15625Z" fill="#960F19"/>
<path d="M20.1287 23.7427C26.6746 23.7427 32 18.4172 32 11.8713C32 5.32544 26.6746 0 20.1287 0C13.5828 0 8.25732 5.32544 8.25732 11.8713C8.25732 14.3557 9.0249 16.6636 10.3347 18.572L8.39282 20.5139L8.12842 20.2495C7.88428 20.0054 7.48853 20.0054 7.24438 20.2495L0.93335 26.5605C0.331543 27.1624 0 27.9626 0 28.8137C0 29.6648 0.331543 30.4648 0.93335 31.0667C1.53516 31.6685 2.33521 32 3.18628 32C4.03735 32 4.83765 31.6685 5.43945 31.0667L11.7507 24.7556C11.8679 24.6384 11.9336 24.4795 11.9336 24.3137C11.9336 24.1479 11.8679 23.9888 11.7507 23.8716L11.4861 23.6072L13.428 21.6653C15.3364 22.9751 17.6445 23.7427 20.1287 23.7427ZM20.1287 1.25C25.9854 1.25 30.75 6.01465 30.75 11.8713C30.75 17.728 25.9854 22.4927 20.1287 22.4927C14.2722 22.4927 9.50732 17.728 9.50732 11.8713C9.50732 6.01465 14.2722 1.25 20.1287 1.25ZM4.55566 30.1829C4.1897 30.5486 3.70361 30.75 3.18628 30.75C2.66895 30.75 2.18286 30.5486 1.81714 30.1829C1.06201 29.428 1.06201 28.1995 1.81714 27.4443L7.68628 21.5752L7.95068 21.8394C7.95068 21.8396 7.95093 21.8396 7.95093 21.8398L10.4248 24.3137L4.55566 30.1829ZM10.6023 22.7231L9.27686 21.3977L11.1021 19.5725C11.5085 20.0481 11.9519 20.4915 12.4275 20.8979L10.6023 22.7231Z" fill="#960F19"/>
<path d="M18.0818 10.1357C18.427 10.1357 18.7068 9.85596 18.7068 9.51074C18.7068 9.08057 18.8909 8.66919 19.2114 8.38208C19.5366 8.09082 19.9573 7.95728 20.3965 8.00586C21.0903 8.08252 21.6497 8.64185 21.7263 9.3357C21.7937 9.94751 21.4927 10.5356 20.959 10.834C20.1187 11.304 19.5964 12.1731 19.5964 13.1021V13.9939C19.5964 14.3391 19.8762 14.6189 20.2214 14.6189C20.5664 14.6189 20.8464 14.3391 20.8464 13.9939V13.1021C20.8464 12.6252 21.1233 12.1743 21.5691 11.9251C22.5422 11.3809 23.0916 10.3105 22.9688 9.19849C22.8284 7.92774 21.8042 6.90381 20.5337 6.76343C19.7485 6.67676 18.9622 6.92725 18.3774 7.45093C17.7925 7.97486 17.4568 8.72559 17.4568 9.51074C17.4568 9.85596 17.7366 10.1357 18.0818 10.1357Z" fill="#960F19"/>
<path d="M20.2212 15.8057C20.0569 15.8057 19.8958 15.8726 19.7795 15.9888C19.6633 16.105 19.5962 16.2664 19.5962 16.4307C19.5962 16.5957 19.6631 16.7563 19.7795 16.8726C19.8958 16.9893 20.0569 17.0557 20.2212 17.0557C20.3857 17.0557 20.5469 16.9893 20.6631 16.8726C20.7793 16.7563 20.8462 16.595 20.8462 16.4307C20.8462 16.2664 20.7795 16.105 20.6631 15.9888C20.5469 15.8726 20.3857 15.8057 20.2212 15.8057Z" fill="#960F19"/>
</g>
<defs>
<clipPath id="clip0">
<rect width="32" height="32" fill="white"/>
</clipPath>
</defs>
</svg>
