<svg width="22" height="22" viewBox="0 0 22 22" fill="none" xmlns="http://www.w3.org/2000/svg">
<path fill-rule="evenodd" clip-rule="evenodd" d="M12.1507 2.23515C11.8124 1.08698 10.1871 1.08698 9.84882 2.23515L9.71956 2.67379C9.61086 3.04223 9.42111 3.38169 9.16422 3.6673C8.90733 3.9529 8.58981 4.17743 8.2349 4.32443C7.88 4.47142 7.49671 4.53717 7.11311 4.51685C6.7295 4.49652 6.3553 4.39065 6.01792 4.20697L5.6164 3.98697C4.56586 3.41632 3.41632 4.56449 3.98834 5.6164L4.20697 6.01792C4.39065 6.3553 4.49652 6.7295 4.51685 7.11311C4.53717 7.49671 4.47142 7.88 4.32443 8.2349C4.17743 8.58981 3.9529 8.90733 3.6673 9.16422C3.38169 9.42111 3.04223 9.61086 2.67379 9.71956L2.23515 9.84882C1.08698 10.1871 1.08698 11.8124 2.23515 12.1507L2.67379 12.2799C3.04242 12.3886 3.38206 12.5783 3.66782 12.8353C3.95357 13.0923 4.17819 13.41 4.3252 13.7651C4.47222 14.1202 4.53791 14.5036 4.51745 14.8874C4.49699 15.2712 4.39091 15.6455 4.20697 15.9829L3.98697 16.3831C3.41632 17.4336 4.56449 18.5832 5.6164 18.0111L6.01792 17.7925C6.35539 17.6088 6.72968 17.503 7.11336 17.4828C7.49704 17.4626 7.88039 17.5284 8.23531 17.6756C8.59023 17.8227 8.90774 18.0474 9.16456 18.3331C9.42138 18.6189 9.61101 18.9585 9.71956 19.3271L9.84882 19.7643C10.1871 20.9125 11.8124 20.9125 12.1507 19.7643L12.2799 19.3257C12.3886 18.9571 12.5783 18.6174 12.8353 18.3317C13.0923 18.0459 13.41 17.8213 13.7651 17.6743C14.1202 17.5273 14.5036 17.4616 14.8874 17.482C15.2712 17.5025 15.6455 17.6086 15.9829 17.7925L16.3831 18.0125C17.4336 18.5832 18.5832 17.435 18.0111 16.3831L17.7925 15.9829C17.6086 15.6454 17.5026 15.271 17.4822 14.8871C17.4618 14.5033 17.5276 14.1198 17.6748 13.7647C17.8219 13.4096 18.0467 13.0919 18.3326 12.835C18.6185 12.5781 18.9583 12.3884 19.3271 12.2799L19.7643 12.1507C20.9125 11.8124 20.9125 10.1871 19.7643 9.84882L19.3257 9.71956C18.9572 9.61086 18.6178 9.42111 18.3322 9.16422C18.0466 8.90733 17.822 8.58981 17.675 8.2349C17.5281 7.88 17.4623 7.49671 17.4826 7.11311C17.503 6.7295 17.6088 6.3553 17.7925 6.01792L18.0125 5.6164C18.5832 4.56586 17.435 3.41632 16.3831 3.98834L15.9829 4.20697C15.6454 4.39117 15.271 4.49746 14.8871 4.51805C14.5031 4.53864 14.1195 4.47301 13.7642 4.32598C13.4089 4.17894 13.0911 3.95423 12.834 3.66834C12.577 3.38244 12.3871 3.04261 12.2785 2.67379L12.1493 2.23515H12.1507ZM8.53014 1.84601C9.2548 -0.615336 12.7447 -0.615336 13.4693 1.84601L13.5986 2.28465C13.6492 2.45647 13.7376 2.61478 13.8574 2.74799C13.9771 2.88119 14.1251 2.98592 14.2906 3.05448C14.4561 3.12304 14.6348 3.1537 14.8136 3.14422C14.9925 3.13474 15.167 3.08535 15.3243 2.99968L15.7258 2.77967C17.9809 1.55312 20.4477 4.01859 19.2184 6.27368L18.9998 6.6752C18.9141 6.83249 18.8647 7.00697 18.8553 7.18583C18.8458 7.36469 18.8764 7.54341 18.945 7.70888C19.0136 7.87435 19.1183 8.02238 19.2515 8.14213C19.3847 8.26187 19.543 8.35028 19.7148 8.40089L20.1535 8.53014C22.6148 9.2548 22.6148 12.7447 20.1535 13.4693L19.7148 13.5986C19.543 13.6492 19.3847 13.7376 19.2515 13.8574C19.1183 13.9771 19.0136 14.1251 18.945 14.2906C18.8764 14.4561 18.8458 14.6348 18.8553 14.8136C18.8647 14.9925 18.9141 15.167 18.9998 15.3243L19.2198 15.7258C20.4477 17.9809 17.9795 20.4477 15.7258 19.2184L15.3243 18.9998C15.167 18.9141 14.9925 18.8647 14.8136 18.8553C14.6348 18.8458 14.4561 18.8764 14.2906 18.945C14.1251 19.0136 13.9771 19.1183 13.8574 19.2515C13.7376 19.3847 13.6492 19.543 13.5986 19.7148L13.4693 20.1535C12.7447 22.6148 9.2548 22.6148 8.53014 20.1535L8.40089 19.7148C8.35028 19.543 8.26187 19.3847 8.14213 19.2515C8.02238 19.1183 7.87435 19.0136 7.70888 18.945C7.54341 18.8764 7.36469 18.8458 7.18583 18.8553C7.00697 18.8647 6.83249 18.9141 6.6752 18.9998L6.27368 19.2198C4.01859 20.4477 1.55312 17.9795 2.78105 15.7258L2.99968 15.3243C3.08535 15.167 3.13474 14.9925 3.14422 14.8136C3.1537 14.6348 3.12304 14.4561 3.05448 14.2906C2.98592 14.1251 2.88119 13.9771 2.74799 13.8574C2.61478 13.7376 2.45647 13.6492 2.28465 13.5986L1.84601 13.4693C-0.615336 12.7447 -0.615336 9.2548 1.84601 8.53014L2.28465 8.40089C2.45647 8.35028 2.61478 8.26187 2.74799 8.14213C2.88119 8.02238 2.98592 7.87435 3.05448 7.70888C3.12304 7.54341 3.1537 7.36469 3.14422 7.18583C3.13474 7.00697 3.08535 6.83249 2.99968 6.6752L2.77967 6.27368C1.55312 4.01859 4.01997 1.55312 6.27368 2.78105L6.6752 2.99968C6.83249 3.08535 7.00697 3.13474 7.18583 3.14422C7.36469 3.1537 7.54341 3.12304 7.70888 3.05448C7.87435 2.98592 8.02238 2.88119 8.14213 2.74799C8.26187 2.61478 8.35028 2.45647 8.40089 2.28465L8.53014 1.84601Z" fill="#999999"/>
<path fill-rule="evenodd" clip-rule="evenodd" d="M10.9998 7.91161C10.1807 7.91161 9.39517 8.23699 8.81599 8.81618C8.23681 9.39536 7.91143 10.1809 7.91143 11C7.91143 11.8191 8.23681 12.6046 8.81599 13.1838C9.39517 13.763 10.1807 14.0884 10.9998 14.0884C11.8189 14.0884 12.6044 13.763 13.1836 13.1838C13.7628 12.6046 14.0882 11.8191 14.0882 11C14.0882 10.1809 13.7628 9.39536 13.1836 8.81618C12.6044 8.23699 11.8189 7.91161 10.9998 7.91161ZM6.53638 11C6.53638 10.4138 6.65183 9.83343 6.87613 9.29191C7.10044 8.75038 7.42922 8.25833 7.84368 7.84387C8.25815 7.4294 8.75019 7.10063 9.29172 6.87632C9.83325 6.65201 10.4137 6.53656 10.9998 6.53656C11.5859 6.53656 12.1664 6.65201 12.7079 6.87632C13.2494 7.10063 13.7415 7.4294 14.1559 7.84387C14.5704 8.25833 14.8992 8.75038 15.1235 9.29191C15.3478 9.83343 15.4632 10.4138 15.4632 11C15.4632 12.1838 14.993 13.319 14.1559 14.1561C13.3189 14.9932 12.1836 15.4634 10.9998 15.4634C9.81603 15.4634 8.68074 14.9932 7.84368 14.1561C7.00663 13.319 6.53638 12.1838 6.53638 11Z" fill="#999999"/>
</svg>
