<svg width="36" height="36" viewBox="0 0 36 36" fill="none" xmlns="http://www.w3.org/2000/svg">
<path d="M32.25 6.37488C29.9092 6.37488 28.1326 5.00491 26.2515 3.55472C24.0904 1.88852 21.6411 0 18 0C14.359 0 11.9096 1.88852 9.74845 3.55472C7.86745 5.00491 6.09087 6.37488 3.75002 6.37488C3.33595 6.37488 3 6.7107 3 7.12491C3 15.882 4.09062 21.713 6.5363 26.0315C8.96475 30.3197 12.5797 32.9866 17.625 35.8995C17.741 35.9665 17.8705 36 18 36C18.1295 36 18.2589 35.9665 18.375 35.8995C23.4203 32.9866 27.0352 30.3198 29.4638 26.0315C31.9093 21.713 33 15.882 33 7.12491C33 6.7107 32.6641 6.37488 32.25 6.37488ZM18 34.3828C8.95322 29.1075 4.62091 24.5628 4.50258 7.83724C6.97364 7.58827 8.84719 6.14369 10.6645 4.74258C12.732 3.14852 14.8701 1.49998 18 1.49998C21.1299 1.49998 23.2679 3.14838 25.3356 4.74258C27.1528 6.14377 29.0265 7.5882 31.4975 7.83724C31.3792 24.5628 27.0469 29.1075 18 34.3828Z" fill="#960F19"/>
<path d="M9.13854 8.56562C8.94546 8.19908 8.49195 8.05846 8.12541 8.25147C8.03225 8.30055 7.93775 8.34871 7.84297 8.39547C7.47137 8.57842 7.31844 9.028 7.50132 9.39967C7.63182 9.66482 7.89802 9.81846 8.17477 9.81846C8.28594 9.81846 8.399 9.79371 8.50552 9.74125C8.61261 9.68852 8.71913 9.63417 8.82425 9.57883C9.19085 9.38568 9.33148 8.93216 9.13854 8.56562Z" fill="#960F19"/>
<path d="M28.9397 14.4468C28.9626 14.4488 28.9856 14.4499 29.0083 14.4499C29.3918 14.4499 29.7191 14.1572 29.7544 13.7677C29.7632 13.672 29.7715 13.5758 29.7795 13.48C29.8146 13.0672 29.5083 12.7043 29.0955 12.6693C28.6833 12.6338 28.3198 12.9406 28.2849 13.3534C28.277 13.446 28.2689 13.5391 28.2604 13.6319C28.2231 14.0445 28.5271 14.4093 28.9397 14.4468Z" fill="#960F19"/>
<path d="M10.6211 8.30588C10.7731 8.30588 10.9267 8.25975 11.0595 8.16378C11.4939 7.85011 11.9171 7.52801 12.3263 7.21632C14.2407 5.75874 15.8939 4.49986 18.0002 4.49986C18.4144 4.49986 18.7502 4.16405 18.7502 3.74984C18.7502 3.33577 18.4144 2.99982 18.0002 2.99982C15.3878 2.99982 13.4593 4.46815 11.4176 6.0229C11.0158 6.3289 10.6004 6.64517 10.1814 6.94765C9.84545 7.19023 9.76993 7.65893 10.0124 7.99475C10.159 8.19795 10.3884 8.30588 10.6211 8.30588Z" fill="#960F19"/>
<path d="M17.9999 30.8875C16.0805 29.7041 13.7622 28.115 12.024 26.0656C11.7561 25.7496 11.2827 25.7109 10.9669 25.9786C10.6509 26.2465 10.612 26.7199 10.8799 27.0359C12.8769 29.3906 15.5262 31.1437 17.6109 32.4081C17.6147 32.4103 17.6188 32.4119 17.6226 32.4141C17.6406 32.4245 17.659 32.4335 17.6778 32.4425C17.6898 32.4482 17.7018 32.4545 17.7139 32.4595C17.7308 32.4664 17.7479 32.4718 17.7653 32.4775C17.7797 32.4823 17.794 32.4878 17.8086 32.4916C17.8243 32.4958 17.8403 32.4982 17.8561 32.5013C17.8721 32.5046 17.888 32.5085 17.9042 32.5105C17.9269 32.5135 17.9497 32.5142 17.9728 32.5151C17.9815 32.5154 17.9903 32.5169 17.9991 32.5169C17.9994 32.5169 17.9997 32.5169 17.9999 32.5169C18.0002 32.5169 18.0005 32.5169 18.0007 32.5169C18.0095 32.5169 18.0182 32.5154 18.027 32.5151C18.05 32.5142 18.073 32.5136 18.0957 32.5105C18.1117 32.5085 18.1274 32.5046 18.1432 32.5015C18.1593 32.4984 18.1755 32.4959 18.1913 32.4916C18.2058 32.4878 18.22 32.4824 18.2343 32.4777C18.2515 32.472 18.2689 32.4666 18.2859 32.4596C18.2981 32.4546 18.3099 32.4483 18.3219 32.4426C18.3407 32.4336 18.3593 32.4246 18.3771 32.4141C18.3811 32.412 18.385 32.4103 18.3888 32.4082C20.4736 31.1439 23.1227 29.3908 25.1198 27.0358C27.3971 24.3498 28.8325 20.715 29.5079 15.9235C29.5657 15.5133 29.2801 15.1341 28.87 15.0763C28.4594 15.0185 28.0805 15.3041 28.0226 15.7142C27.3879 20.2164 26.0642 23.6025 23.9757 26.0658C22.2377 28.115 19.9196 29.7041 17.9999 30.8875Z" fill="#960F19"/>
<path d="M22.8405 9.38286L15.0165 17.2068L13.16 15.3501C12.7008 14.891 12.0886 14.6382 11.4362 14.6382C10.7836 14.6382 10.1715 14.891 9.71208 15.3502C8.76194 16.3009 8.76194 17.8475 9.71236 18.7979L13.2981 22.3832L13.3292 22.4137C13.3337 22.4182 13.3384 22.4225 13.3429 22.427L13.3744 22.4563C13.38 22.4614 13.3856 22.4665 13.3913 22.4715L13.4236 22.4997C13.4285 22.5042 13.4336 22.5084 13.4386 22.5126L13.4713 22.5397C13.475 22.5429 13.4789 22.5458 13.4826 22.5489L13.5158 22.5755C13.522 22.5804 13.5281 22.5852 13.5345 22.5899L13.5686 22.6155C13.5734 22.6191 13.5781 22.6226 13.5829 22.6259L13.6172 22.6504C13.6223 22.6541 13.6274 22.6576 13.6326 22.661L13.6674 22.6847C13.673 22.6883 13.6785 22.692 13.6842 22.6956L13.7195 22.7182C13.7242 22.7211 13.729 22.7242 13.7338 22.727L13.7696 22.7486C13.7744 22.7516 13.7791 22.7545 13.7839 22.7573L13.8199 22.7779C13.827 22.782 13.8341 22.786 13.8412 22.7898L13.8778 22.8092C13.8816 22.8113 13.8855 22.8134 13.8893 22.8152L13.9263 22.8341C13.9327 22.8375 13.9393 22.8407 13.9459 22.844L13.9832 22.8617C13.9885 22.8642 13.9938 22.8665 13.999 22.8691L14.0181 22.8776C14.0314 22.8841 14.045 22.89 14.0589 22.8957L14.097 22.9113C14.1006 22.9127 14.1039 22.914 14.1075 22.9154L14.1457 22.9303C14.1514 22.9326 14.1572 22.9349 14.1631 22.9371L14.202 22.9512C14.2081 22.9534 14.2144 22.9556 14.2207 22.9577L14.2395 22.964C14.2522 22.9687 14.2652 22.9729 14.2784 22.9769L14.3174 22.9888C14.323 22.9903 14.3285 22.9921 14.3341 22.9935L14.3735 23.0046C14.3789 23.006 14.3844 23.0075 14.39 23.009L14.4296 23.0191C14.4349 23.0205 14.4404 23.0217 14.4457 23.0231L14.4854 23.0322C14.4909 23.0335 14.4966 23.0348 14.5024 23.036L14.5421 23.0442C14.5497 23.0458 14.5573 23.0471 14.5649 23.0486L14.5845 23.052C14.5962 23.0543 14.6081 23.0565 14.6202 23.0583L14.6602 23.0644C14.6662 23.0655 14.6722 23.0662 14.6782 23.067L14.7185 23.0721C14.7242 23.0729 14.73 23.0736 14.7357 23.0742L14.7547 23.0762C14.7673 23.0778 14.7799 23.0793 14.7927 23.0804L14.8333 23.0837C14.841 23.0844 14.8485 23.0849 14.8561 23.0852L14.8752 23.0863C14.8876 23.0873 14.9002 23.088 14.9128 23.0883L14.9534 23.0897C14.9575 23.0898 14.9614 23.0898 14.9655 23.0899L15.0058 23.0905C15.0095 23.0905 15.013 23.0905 15.0167 23.0905C15.0204 23.0905 15.0239 23.0905 15.0276 23.0905L15.0682 23.0899C15.0723 23.0898 15.0762 23.0898 15.0804 23.0897L15.1211 23.0883C15.1337 23.088 15.1462 23.0873 15.1587 23.0863L15.1777 23.0852C15.1856 23.0848 15.1933 23.0843 15.2011 23.0837L15.2414 23.0803C15.254 23.0792 15.2664 23.078 15.2789 23.0763L15.2979 23.0743C15.3035 23.0737 15.309 23.0731 15.3145 23.0724L15.3551 23.0671C15.3614 23.0663 15.3677 23.0655 15.3738 23.0645L15.4139 23.0584C15.4262 23.0565 15.4385 23.0542 15.4505 23.0518L15.4697 23.0484C15.4772 23.0472 15.4846 23.0458 15.492 23.0441L15.5315 23.0359C15.5366 23.0349 15.5418 23.0339 15.5469 23.0327L15.5869 23.0235C15.5932 23.022 15.5995 23.0205 15.6058 23.0189L15.6452 23.0088C15.6505 23.0075 15.6556 23.006 15.6607 23.0045L15.7 22.9935C15.7054 22.9921 15.7109 22.9904 15.7162 22.9888L15.7553 22.9769C15.7676 22.9731 15.7799 22.9691 15.7919 22.9648L15.8113 22.9584C15.8182 22.9561 15.825 22.9537 15.8319 22.9513L15.8707 22.9371C15.8766 22.935 15.8824 22.9327 15.8881 22.9304L15.9264 22.9155C15.9307 22.9139 15.9349 22.9121 15.9391 22.9104L15.9769 22.8948C15.9891 22.8899 16.001 22.8844 16.0128 22.8789L16.0323 22.8702C16.0387 22.8675 16.0449 22.8645 16.0512 22.8616L16.0884 22.8438C16.0934 22.8415 16.0984 22.839 16.1033 22.8365L16.1403 22.8178C16.1521 22.8118 16.164 22.8055 16.1754 22.7989L16.1946 22.7886C16.2 22.7857 16.2055 22.7827 16.2107 22.7796L16.247 22.759C16.2528 22.7556 16.2585 22.7522 16.2642 22.7487L16.3 22.727C16.3056 22.7237 16.3111 22.7202 16.3167 22.7166L16.3519 22.6941C16.3559 22.6916 16.3598 22.6889 16.3636 22.6863L16.3987 22.6628C16.4047 22.6586 16.4107 22.6546 16.4166 22.6503L16.4508 22.6259C16.4567 22.6217 16.4625 22.6176 16.4682 22.6131L16.502 22.5875C16.5062 22.5842 16.5102 22.5812 16.5143 22.578L16.5476 22.5516C16.5564 22.5447 16.5649 22.5375 16.5735 22.5302L16.5924 22.5146C16.599 22.5092 16.6057 22.5036 16.6119 22.498L16.644 22.4696C16.6483 22.4659 16.6523 22.4622 16.6565 22.4585L16.6881 22.4291C16.6928 22.4248 16.6973 22.4205 16.7019 22.4161L16.733 22.3859C16.7399 22.3793 16.7465 22.3725 16.753 22.3658L26.2887 12.8301C27.239 11.8794 27.2387 10.3329 26.2882 9.38272C25.8291 8.92365 25.217 8.67081 24.5645 8.67081C23.912 8.67088 23.2998 8.92372 22.8405 9.38286ZM25.2277 11.7697L15.6796 21.3174C15.6781 21.3192 15.6763 21.3208 15.6747 21.3223L15.605 21.3844C15.6042 21.3851 15.6034 21.3857 15.6025 21.3865L15.5133 21.4496L15.3866 21.5154C15.3864 21.5155 15.3859 21.5156 15.3856 21.5158L15.3016 21.5465C15.3007 21.5468 15.2999 21.5471 15.299 21.5474L15.1695 21.5777C15.168 21.578 15.1664 21.5783 15.1648 21.5786L15.0999 21.5864C15.0984 21.5867 15.0967 21.5868 15.0952 21.587L15.0584 21.5892C15.0569 21.5892 15.0553 21.5893 15.0537 21.5895L15.0165 21.5902L14.993 21.5898L14.9796 21.5895C14.9781 21.5894 14.9764 21.5893 14.9748 21.5893L14.9373 21.5871C14.936 21.5869 14.9346 21.5868 14.9331 21.5864L14.8685 21.5787C14.8666 21.5784 14.8649 21.5779 14.863 21.5777L14.7339 21.5475C14.7337 21.5475 14.7334 21.5473 14.7332 21.5473L14.6596 21.5207L14.5187 21.4489L14.3891 21.3513L10.7729 17.7371C10.4074 17.3715 10.4074 16.7763 10.7729 16.4107C10.9487 16.2349 11.1842 16.1381 11.4362 16.1381C11.688 16.1381 11.9235 16.2349 12.0994 16.4105L14.4862 18.7976C14.6268 18.9384 14.8176 19.0174 15.0165 19.0174C15.2153 19.0174 15.4061 18.9384 15.5469 18.7978L23.9014 10.4435C24.0772 10.2677 24.3127 10.1709 24.5644 10.1709C24.8162 10.1709 25.0516 10.2677 25.2276 10.4436C25.593 10.8092 25.5931 11.4041 25.2277 11.7697Z" fill="#960F19"/>
</svg>
