<svg width="25" height="24" viewBox="0 0 25 24" fill="none" xmlns="http://www.w3.org/2000/svg">
<path fill-rule="evenodd" clip-rule="evenodd" d="M12.5206 2C12.8891 2 13.1879 2.29848 13.1879 2.66667V4.61165C13.6794 4.52912 14.1531 4.35477 14.5834 4.09568C14.899 3.90562 15.3091 4.00718 15.4994 4.32252C15.6896 4.63786 15.588 5.04757 15.2723 5.23763C14.6335 5.62228 13.9231 5.86703 13.1879 5.95892V10.8453L17.424 8.40188C17.1368 7.71975 16.9937 6.98303 17.0068 6.23825C17.0133 5.87012 17.3173 5.57695 17.6858 5.58344C18.0543 5.58993 18.3477 5.89362 18.3412 6.26175C18.3324 6.76388 18.4182 7.26113 18.5921 7.72815L20.2775 6.75599C20.5967 6.57189 21.0048 6.68114 21.1891 7C21.3733 7.31887 21.264 7.72659 20.9448 7.91069L19.2591 8.88298C19.5769 9.26707 19.9649 9.59008 20.4046 9.83366C20.7269 10.0122 20.8432 10.418 20.6645 10.74C20.4858 11.062 20.0796 11.1783 19.7573 10.9997C19.1054 10.6385 18.5386 10.1463 18.0912 9.55667L13.8551 12L18.0912 14.4433C18.5386 13.8537 19.1054 13.3615 19.7573 13.0003C20.0796 12.8218 20.4858 12.938 20.6645 13.26C20.8432 13.582 20.7269 13.9878 20.4046 14.1664C19.965 14.4099 19.5769 14.7329 19.2592 15.117L20.9448 16.0893C21.264 16.2734 21.3733 16.6811 21.1891 17C21.0048 17.3189 20.5967 17.4281 20.2775 17.244L18.5921 16.2719C18.4182 16.7389 18.3324 17.2361 18.3412 17.7383C18.3477 18.1064 18.0543 18.4101 17.6858 18.4166C17.3173 18.4231 17.0133 18.1299 17.0068 17.7617C16.9937 17.017 17.1368 16.2803 17.424 15.5981L13.1879 13.1548V18.0417C13.9225 18.1341 14.6325 18.3784 15.2714 18.7618C15.5873 18.9513 15.6897 19.3609 15.4999 19.6765C15.3102 19.9922 14.9002 20.0944 14.5843 19.9048C14.1535 19.6463 13.6796 19.4721 13.1879 19.3892V21.3333C13.1879 21.7015 12.8891 22 12.5206 22C12.1521 22 11.8533 21.7015 11.8533 21.3333V19.3891C11.3616 19.4721 10.8877 19.6463 10.4568 19.9048C10.1409 20.0944 9.73092 19.9922 9.54117 19.6765C9.35143 19.3609 9.45373 18.9513 9.76968 18.7618C10.4086 18.3784 11.1186 18.1341 11.8533 18.0417V13.1547L7.61738 15.5979C7.90467 16.2801 8.04777 17.0169 8.03463 17.7617C8.02814 18.1299 7.72416 18.4231 7.35568 18.4166C6.98719 18.4101 6.69374 18.1064 6.70023 17.7383C6.70909 17.2361 6.62327 16.7387 6.44933 16.2716L4.76352 17.244C4.44435 17.4281 4.03624 17.3189 3.85196 17C3.66769 16.6811 3.77705 16.2734 4.09622 16.0893L5.78219 15.1169C5.46445 14.7328 5.07647 14.4099 4.63691 14.1664C4.31462 13.9878 4.19824 13.582 4.37698 13.26C4.55572 12.938 4.96189 12.8218 5.28419 13.0003C5.93603 13.3615 6.50279 13.8537 6.95019 14.4432L11.1859 12L6.95019 9.55685C6.50279 10.1464 5.93603 10.6385 5.28419 10.9997C4.96189 11.1783 4.55572 11.062 4.37698 10.74C4.19824 10.418 4.31462 10.0122 4.63691 9.83366C5.07647 9.59012 5.46446 9.26717 5.78219 8.88315L4.09622 7.91069C3.77705 7.72659 3.66769 7.31887 3.85196 7C4.03624 6.68114 4.44435 6.57189 4.76352 6.75599L6.44934 7.72836C6.62327 7.26128 6.70909 6.76395 6.70023 6.26175C6.69374 5.89362 6.98719 5.58993 7.35568 5.58344C7.72416 5.57695 8.02814 5.87012 8.03463 6.23825C8.04777 6.9831 7.90467 7.7199 7.61738 8.40208L11.8533 10.8454V5.95893C11.1181 5.86706 10.4076 5.6223 9.76877 5.23763C9.45313 5.04757 9.35147 4.63786 9.54172 4.32252C9.73196 4.00718 10.1421 3.90562 10.4577 4.09568C10.888 4.35479 11.3617 4.52914 11.8533 4.61167V2.66667C11.8533 2.29848 12.1521 2 12.5206 2Z" fill="#929AAB"/>
</svg>
