<svg width="32" height="32" viewBox="0 0 32 32" fill="none" xmlns="http://www.w3.org/2000/svg">
<circle cx="16" cy="16" r="16" fill="#009B00"/>
<path d="M17.8599 13.1758L13.2799 13.7498L13.1159 14.5098L14.0159 14.6758C14.6039 14.8158 14.7199 15.0278 14.5919 15.6138L13.1159 22.5498C12.7279 24.3438 13.3259 25.1878 14.7319 25.1878C15.8219 25.1878 17.0879 24.6838 17.6619 23.9918L17.8379 23.1598C17.4379 23.5118 16.8539 23.6518 16.4659 23.6518C15.9159 23.6518 15.7159 23.2658 15.8579 22.5858L17.8599 13.1758Z" fill="white"/>
<path d="M16 11C17.1046 11 18 10.1046 18 9C18 7.89543 17.1046 7 16 7C14.8954 7 14 7.89543 14 9C14 10.1046 14.8954 11 16 11Z" fill="white"/>
</svg>
