<svg width="32" height="32" viewBox="0 0 32 32" fill="none" xmlns="http://www.w3.org/2000/svg">
<g clip-path="url(#clip0)">
<path d="M21.7512 9.69678C21.4056 9.69678 21.125 9.97607 21.125 10.3215C21.125 10.6667 21.4056 10.9465 21.7512 10.9465C22.0976 10.9465 22.3774 10.6667 22.3774 10.3215C22.3774 9.97607 22.0976 9.69678 21.7512 9.69678Z" fill="#960F19"/>
<path d="M10.373 21.0525C10.0267 21.0525 9.74683 21.3325 9.74683 21.6775C9.74683 22.0232 10.0267 22.3025 10.373 22.3025C10.7187 22.3025 10.9993 22.0232 10.9993 21.6775C10.9993 21.3325 10.7187 21.0525 10.373 21.0525Z" fill="#960F19"/>
<path d="M31.3148 3.84503C31.1035 3.79596 30.8814 3.85968 30.7287 4.01349L28.1326 6.62506H26.888L25.5179 5.20831V3.94879L28.0768 1.35675C28.2282 1.20343 28.2899 0.98297 28.2397 0.773253C28.1898 0.56378 28.0352 0.394835 27.8307 0.325987C27.1879 0.109679 26.5152 5.92949e-05 25.831 5.92949e-05C23.7913 5.92949e-05 21.9384 0.949279 20.7471 2.60431C19.6321 4.15363 19.2884 6.05231 19.7808 7.86945L15.1681 12.4732L7.48312 4.78571V3.27692C7.48312 3.05743 7.36766 2.85382 7.17906 2.74103L2.75122 0.0891707C2.50465 -0.0585345 2.18933 -0.0197161 1.9863 0.183165L0.215264 1.9505C0.0122308 2.15338 -0.0266635 2.46808 0.121086 2.71417L2.77764 7.13336C2.89066 7.3216 3.09442 7.43659 3.31433 7.43683L4.82559 7.43732L12.5113 15.1248L7.9161 19.711C6.0954 19.2198 4.19203 19.5633 2.63894 20.6768C0.981654 21.8651 0.031311 23.7139 0.031311 25.7496C0.031311 26.4322 0.141145 27.1038 0.357877 27.7452C0.427104 27.9505 0.598092 28.1055 0.809442 28.1544C1.02104 28.2034 1.24291 28.1397 1.39579 27.9859L3.99168 25.3746H5.24315L6.66903 26.7977V28.0467L4.05259 30.6375C3.89848 30.7901 3.83464 31.0116 3.88381 31.2227C3.93273 31.4337 4.08806 31.6043 4.29379 31.6734C4.9364 31.8897 5.60934 31.9993 6.2933 31.9993C8.33293 31.9993 10.1852 31.0506 11.376 29.3966C12.4917 27.8465 12.8359 25.9471 12.3437 24.13L16.0342 20.4466L16.8797 21.3631L16.4917 21.7501C16.2471 21.9942 16.2471 22.39 16.4917 22.6341C16.7363 22.878 17.1326 22.878 17.3774 22.6341L17.7287 22.2835L25.6607 30.8826C25.6666 30.889 25.6727 30.8951 25.6788 30.9012C27.1465 32.366 29.5245 32.3665 30.9929 30.901C32.4572 29.4388 32.4572 27.0596 30.9929 25.5975C30.9865 25.5911 30.9799 25.585 30.9733 25.5789L22.3439 17.6776L22.6913 17.3309C22.9359 17.087 22.9359 16.6912 22.6913 16.4471C22.4467 16.2029 22.0504 16.2029 21.8055 16.4471L21.4203 16.8319L20.5002 15.9891L24.2087 12.2879C24.7358 12.4285 25.2798 12.4998 25.831 12.4998C29.284 12.4998 32.093 9.69611 32.093 6.25006C32.093 5.5672 31.9831 4.89581 31.7664 4.25421C31.6972 4.04889 31.5262 3.89386 31.3148 3.84503ZM5.52862 6.37091C5.4112 6.25348 5.25196 6.19367 5.08562 6.19367L3.66928 6.19318L1.44667 2.48956L2.52617 1.41217L6.23068 3.63092V5.0445C6.23068 5.21002 6.29648 5.36871 6.41365 5.4859L14.2825 13.3572L13.3968 14.241L5.52862 6.37091ZM21.4574 18.5623L30.1162 26.4903C31.0834 27.4659 31.0805 29.0455 30.1071 30.0174C29.1316 30.991 27.5524 30.994 26.5729 30.026L18.615 21.3988L21.4574 18.5623ZM20.5338 17.7164L17.7659 20.4783L16.9205 19.5618L19.6138 16.8736L20.5338 17.7164ZM25.831 11.2498C25.2833 11.2498 24.7446 11.1622 24.2304 10.9893C24.0051 10.9139 23.7561 10.972 23.5878 11.1397C20.4484 14.273 13.6837 21.0242 11.1928 23.5106C11.0245 23.6785 10.966 23.9271 11.0421 24.1522C11.5626 25.6949 11.3136 27.3404 10.3586 28.6673C9.40631 29.9903 7.92441 30.7493 6.2933 30.7493C6.11008 30.7493 5.92784 30.7393 5.74731 30.72L7.7363 28.7503C7.8547 28.6331 7.92148 28.4735 7.92148 28.3067V26.5386C7.92148 26.3729 7.85543 26.2139 7.73801 26.0968L5.94521 24.3074C5.82779 24.1903 5.66854 24.1243 5.50245 24.1243H3.73092C3.56385 24.1243 3.40387 24.191 3.2862 24.3092L1.31287 26.2943C1.2933 26.1141 1.28351 25.9322 1.28351 25.7493C1.28351 24.1212 2.04379 22.6424 3.36962 21.692C4.69887 20.7388 6.34785 20.4901 7.89384 21.0098C8.11913 21.0858 8.36815 21.0274 8.53645 20.8594C8.57094 20.8253 20.9227 8.49738 20.9315 8.48859C21.0998 8.32062 21.158 8.07233 21.0822 7.84723C20.5614 6.30451 20.8099 4.65949 21.7642 3.33356C22.7172 2.00934 24.1994 1.25006 25.8307 1.25006C26.0196 1.25006 26.2072 1.26056 26.3931 1.28107L24.4455 3.25397C24.33 3.37091 24.2654 3.52838 24.2654 3.69244V5.46051C24.2654 5.62262 24.3283 5.77814 24.441 5.89459L26.1712 7.6839C26.2891 7.80597 26.4518 7.87482 26.6218 7.87482H28.3933C28.5602 7.87482 28.7202 7.80841 28.8378 7.69001L30.8112 5.70514C30.8307 5.88532 30.8405 6.0672 30.8405 6.25006C30.8405 9.0069 28.5932 11.2498 25.831 11.2498Z" fill="#960F19"/>
<path d="M19.5374 11.6472L11.7011 19.4683C11.4567 19.7122 11.4567 20.1079 11.7011 20.3521C11.9457 20.5962 12.3422 20.5962 12.5868 20.3521L20.4232 12.531C20.6678 12.2871 20.6678 11.8914 20.4232 11.6472C20.1786 11.4031 19.782 11.4031 19.5374 11.6472Z" fill="#960F19"/>
<path d="M27.4508 28.2499C27.6955 28.4933 28.092 28.4933 28.3366 28.2484C28.5807 28.0041 28.58 27.6083 28.3351 27.3647L22.6906 21.7492C22.4457 21.5055 22.0489 21.5063 21.805 21.7506C21.5607 21.9953 21.5614 22.3908 21.8063 22.6344L27.4508 28.2499Z" fill="#960F19"/>
</g>
<defs>
<clipPath id="clip0">
<rect width="32" height="32" fill="white"/>
</clipPath>
</defs>
</svg>
