<svg width="25" height="24" viewBox="0 0 25 24" fill="none" xmlns="http://www.w3.org/2000/svg">
<path d="M21.0742 5.6133C21.0625 5.5922 21.046 5.57111 21.0273 5.5547C20.91 5.43752 20.7199 5.43752 20.6026 5.5547L16.5605 9.59299L14.9676 8.00158L19.0121 3.96095C19.0308 3.9422 19.0449 3.92345 19.059 3.90236C19.1434 3.75939 19.0965 3.57658 18.9534 3.4922C16.6497 2.13283 13.6327 2.44455 11.6503 4.42267C10.0785 5.99299 9.55771 8.21955 10.0903 10.2211L3.2165 17.0883C3.14612 17.1586 3.15081 17.2735 3.22353 17.3461L7.20468 21.3235C7.27741 21.3961 7.39471 21.4008 7.46274 21.3305L14.3342 14.4656C16.34 15 18.5687 14.482 20.1428 12.9094C22.1229 10.9289 22.4349 7.91486 21.0742 5.6133ZM18.9487 11.7141C17.5857 13.0758 15.54 13.3383 13.9142 12.5016L13.7078 12.7078L13.7054 12.7055L7.27741 19.1297L5.41938 17.2735L10.8175 11.8805C10.8175 11.8805 10.8175 11.8828 10.8199 11.8828L12.0585 10.6453C11.221 9.02111 11.4838 6.97736 12.8468 5.61564C13.2864 5.17607 13.8158 4.83647 14.3988 4.62007C14.9819 4.40366 15.6048 4.31555 16.225 4.36174L13.1072 7.47424C12.9664 7.61508 12.8873 7.80602 12.8873 8.0051C12.8873 8.20417 12.9664 8.39511 13.1072 8.53596L16.028 11.4539C16.1689 11.5946 16.3601 11.6736 16.5593 11.6736C16.7586 11.6736 16.9497 11.5946 17.0907 11.4539L20.2062 8.34142C20.293 9.55549 19.8684 10.7977 18.9487 11.7141Z" fill="#929AAB"/>
</svg>
