<svg width="36" height="36" viewBox="0 0 36 36" fill="none" xmlns="http://www.w3.org/2000/svg">
<path d="M8.40002 23.7002C6.41461 23.7002 4.80002 25.3148 4.80002 27.3002C4.80002 29.2856 6.41461 30.9002 8.40002 30.9002C10.3854 30.9002 12 29.2856 12 27.3002C12 25.3148 10.3854 23.7002 8.40002 23.7002ZM8.40002 29.7002C7.07639 29.7002 6.00005 28.6238 6.00005 27.3002C6.00005 25.9766 7.07646 24.9002 8.40002 24.9002C9.72358 24.9002 10.8 25.9766 10.8 27.3002C10.8 28.6238 9.72358 29.7002 8.40002 29.7002Z" fill="#960F19"/>
<path d="M28.8 23.7002C26.8146 23.7002 25.2 25.3148 25.2 27.3002C25.2 29.2856 26.8146 30.9002 28.8 30.9002C30.7854 30.9002 32.4 29.2856 32.4 27.3002C32.4 25.3148 30.7854 23.7002 28.8 23.7002ZM28.8 29.7002C27.4764 29.7002 26.4 28.6238 26.4 27.3002C26.4 25.9766 27.4764 24.9002 28.8 24.9002C30.1236 24.9002 31.2 25.9766 31.2 27.3002C31.2 28.6238 30.1236 29.7002 28.8 29.7002Z" fill="#960F19"/>
<path d="M35.9046 20.3756L30.5046 11.9756C30.3942 11.804 30.204 11.7002 30 11.7002H23.4C23.0682 11.7002 22.8 11.969 22.8 12.3002V27.3001C22.8 27.6319 23.0682 27.9001 23.4 27.9001H25.8V26.7001H24V12.9002H29.6724L34.8 20.8766V26.7002H31.8V27.9002H35.4C35.7318 27.9002 35.9999 27.632 35.9999 27.3002V20.7002C36 20.5856 35.967 20.4722 35.9046 20.3756Z" fill="#960F19"/>
<path d="M26.4 19.5001V15.3001H31.2V14.1001H25.8C25.4682 14.1001 25.2001 14.3689 25.2001 14.7001V20.1001C25.2001 20.4319 25.4682 20.7001 25.8 20.7001H34.8V19.5H26.4V19.5001Z" fill="#960F19"/>
<path d="M23.4 7.5H0.599977C0.268805 7.5 0 7.7688 0 8.09998V27.3C0 27.6318 0.268805 27.9 0.599977 27.9H5.4V26.7H1.20002V8.69995H22.8V26.7H11.4V27.9H23.4C23.7318 27.9 24 27.6318 24 27.3V8.09998C24 7.7688 23.7318 7.5 23.4 7.5Z" fill="#960F19"/>
<path d="M4.19998 24.2998H0.599983V25.4998H4.19998V24.2998Z" fill="#960F19"/>
<path d="M22.8 24.2998H12.6V25.4998H22.8V24.2998Z" fill="#960F19"/>
<path d="M35.4 24.2998H33V25.4998H35.4V24.2998Z" fill="#960F19"/>
<path d="M23.4 9.90015H2.39998V11.1002H23.4V9.90015Z" fill="#960F19"/>
<path d="M9 26.7H7.79998V27.9H9V26.7Z" fill="#960F19"/>
<path d="M29.4 26.7H28.2V27.9H29.4V26.7Z" fill="#960F19"/>
<path d="M10.8 5.1001H2.39998V6.30012H10.8V5.1001Z" fill="#960F19"/>
<path d="M1.20002 5.1001H0V6.30012H1.20002V5.1001Z" fill="#960F19"/>
</svg>
