<svg width="40" height="40" viewBox="0 0 40 40" fill="none" xmlns="http://www.w3.org/2000/svg">
<path d="M9.33325 26.3335C7.12724 26.3335 5.33325 28.1275 5.33325 30.3335C5.33325 32.5395 7.12724 34.3335 9.33325 34.3335C11.5393 34.3335 13.3333 32.5395 13.3333 30.3335C13.3333 28.1275 11.5392 26.3335 9.33325 26.3335ZM9.33325 33.0001C7.86255 33.0001 6.66661 31.8041 6.66661 30.3335C6.66661 28.8628 7.86263 27.6669 9.33325 27.6669C10.8039 27.6669 11.9999 28.8629 11.9999 30.3335C11.9999 31.8041 10.8039 33.0001 9.33325 33.0001Z" fill="#960F19"/>
<path d="M32 26.3335C29.794 26.3335 28 28.1275 28 30.3335C28 32.5395 29.794 34.3335 32 34.3335C34.206 34.3335 36 32.5395 36 30.3335C36 28.1275 34.206 26.3335 32 26.3335ZM32 33.0001C30.5293 33.0001 29.3334 31.8041 29.3334 30.3335C29.3334 28.8628 30.5294 27.6669 32 27.6669C33.4707 27.6669 34.6666 28.8629 34.6666 30.3335C34.6666 31.8041 33.4707 33.0001 32 33.0001Z" fill="#960F19"/>
<path d="M39.8939 22.6395L33.8939 13.3061C33.7712 13.1154 33.5599 13.0001 33.3332 13.0001H25.9999C25.6312 13.0001 25.3333 13.2988 25.3333 13.6667V30.3334C25.3333 30.702 25.6312 31 25.9999 31H28.6665V29.6667H26.6665V14.3335H32.9692L38.6665 23.1961V29.6668H35.3332V31.0001H39.3332C39.7018 31.0001 39.9998 30.7021 39.9998 30.3335V23.0001C39.9999 22.8727 39.9633 22.7467 39.8939 22.6395Z" fill="#960F19"/>
<path d="M29.3333 21.6668V17.0001H34.6666V15.6667H28.6666C28.298 15.6667 28 15.9654 28 16.3334V22.3334C28 22.7021 28.298 23 28.6666 23H38.6666V21.6667H29.3333V21.6668Z" fill="#960F19"/>
<path d="M26 8.3334H0.666641C0.298672 8.3334 0 8.63208 0 9.00004V30.3334C0 30.7021 0.298672 31 0.666641 31H6V29.6667H1.33336V9.66669H25.3334V29.6667H12.6666V31H26C26.3687 31 26.6666 30.7021 26.6666 30.3334V9.00004C26.6666 8.63208 26.3687 8.3334 26 8.3334Z" fill="#960F19"/>
<path d="M4.66675 26.9999H0.666748V28.3333H4.66675V26.9999Z" fill="#960F19"/>
<path d="M25.3334 26.9999H14V28.3333H25.3334V26.9999Z" fill="#960F19"/>
<path d="M39.3334 26.9999H36.6667V28.3333H39.3334V26.9999Z" fill="#960F19"/>
<path d="M26.0001 11H2.66675V12.3334H26.0001V11Z" fill="#960F19"/>
<path d="M10.0001 29.6667H8.66675V31.0001H10.0001V29.6667Z" fill="#960F19"/>
<path d="M32.6666 29.6667H31.3333V31.0001H32.6666V29.6667Z" fill="#960F19"/>
<path d="M12.0001 5.66675H2.66675V7.00011H12.0001V5.66675Z" fill="#960F19"/>
<path d="M1.33336 5.66675H0V7.00011H1.33336V5.66675Z" fill="#960F19"/>
</svg>
