<svg width="32" height="32" viewBox="0 0 32 32" fill="none" xmlns="http://www.w3.org/2000/svg">
<path d="M16 32C24.8366 32 32 24.8366 32 16C32 7.16344 24.8366 0 16 0C7.16344 0 0 7.16344 0 16C0 24.8366 7.16344 32 16 32Z" fill="#6F3FAA"/>
<path d="M24.4642 11.2453L24.4589 11.2241C24.0314 9.49583 22.104 7.64133 20.334 7.25552L20.3141 7.25139C17.4512 6.70527 14.5484 6.70527 11.6862 7.25139L11.6656 7.25552C9.89624 7.64133 7.9688 9.49595 7.54074 11.2241L7.53599 11.2453C7.00749 13.6588 7.00749 16.1066 7.53599 18.5201L7.54074 18.5413C7.95062 20.1958 9.73443 21.9651 11.4384 22.4517V24.381C11.4384 25.0793 12.2893 25.4222 12.7732 24.9183L14.7279 22.8865C15.1519 22.9101 15.576 22.9234 16.0001 22.9234C17.4412 22.9234 18.8829 22.7871 20.314 22.5141L20.334 22.51C22.104 22.1241 24.0314 20.2695 24.4589 18.5413L24.4641 18.5202C24.9926 16.1066 24.9926 13.659 24.4642 11.2453ZM22.9172 18.1702C22.6318 19.2978 21.1684 20.6995 20.0057 20.9585C18.4835 21.248 16.9492 21.3717 15.4164 21.3293C15.3859 21.3284 15.3566 21.3403 15.3354 21.3621C15.1179 21.5854 13.9082 22.8273 13.9082 22.8273L12.3902 24.3853C12.2792 24.501 12.0842 24.4222 12.0842 24.2625V21.0665C12.0842 21.0137 12.0466 20.9689 11.9947 20.9586C11.9944 20.9585 11.9941 20.9585 11.9938 20.9585C10.8311 20.6995 9.36818 19.2977 9.08224 18.1701C8.60655 15.9885 8.60655 13.7769 9.08224 11.5953C9.36818 10.4677 10.8311 9.06595 11.9938 8.80695C14.6523 8.30133 17.3478 8.30133 20.0057 8.80695C21.169 9.06595 22.6319 10.4677 22.9173 11.5953C23.3935 13.777 23.3935 15.9886 22.9172 18.1702Z" fill="white"/>
<path d="M18.5294 19.6454C18.3506 19.5911 18.1803 19.5547 18.022 19.4891C16.3826 18.8089 14.8738 17.9314 13.6787 16.5864C12.9991 15.8215 12.4672 14.9579 12.0176 14.0441C11.8043 13.6107 11.6246 13.1604 11.4414 12.7129C11.2744 12.3049 11.5204 11.8834 11.7794 11.5759C12.0225 11.2873 12.3353 11.0666 12.6741 10.9038C12.9384 10.7768 13.1992 10.85 13.3923 11.0741C13.8097 11.5586 14.1932 12.0678 14.5036 12.6294C14.6945 12.9749 14.6421 13.3971 14.2961 13.6322C14.2119 13.6893 14.1353 13.7564 14.057 13.8209C13.9882 13.8775 13.9236 13.9346 13.8765 14.0112C13.7904 14.1513 13.7863 14.3166 13.8417 14.4689C14.2684 15.6414 14.9876 16.5533 16.1679 17.0445C16.3567 17.1231 16.5464 17.2145 16.764 17.1892C17.1284 17.1466 17.2464 16.7469 17.5017 16.5381C17.7513 16.334 18.0703 16.3313 18.3391 16.5014C18.6081 16.6717 18.8687 16.8543 19.1278 17.039C19.3822 17.2203 19.6354 17.3974 19.8699 17.6041C20.0956 17.8028 20.1732 18.0634 20.0462 18.333C19.8137 18.8268 19.4752 19.2375 18.9872 19.4998C18.8494 19.5736 18.6847 19.5976 18.5294 19.6454C18.6847 19.5976 18.3506 19.5911 18.5294 19.6454Z" fill="white"/>
<path d="M16.0045 10.3391C18.1488 10.3992 19.9101 11.8223 20.2875 13.9423C20.3518 14.3035 20.3747 14.6728 20.4033 15.0395C20.4154 15.1937 20.328 15.3402 20.1617 15.3422C19.9898 15.3443 19.9125 15.2004 19.9012 15.0464C19.8791 14.7412 19.8638 14.4347 19.8218 14.1322C19.5998 12.5347 18.3261 11.2132 16.7361 10.9296C16.4968 10.8869 16.252 10.8757 16.0096 10.8503C15.8564 10.8342 15.6558 10.825 15.6218 10.6345C15.5934 10.4748 15.7281 10.3477 15.8802 10.3395C15.9214 10.337 15.963 10.339 16.0045 10.3391C15.963 10.339 18.1489 10.3992 16.0045 10.3391Z" fill="white"/>
<path d="M19.2633 14.5638C19.2597 14.5906 19.2579 14.6535 19.2421 14.7128C19.1853 14.928 18.8588 14.9549 18.7837 14.7378C18.7614 14.6733 18.7581 14.5999 18.7579 14.5306C18.7572 14.0764 18.6585 13.6227 18.4294 13.2275C18.194 12.8213 17.8343 12.48 17.4124 12.2733C17.1573 12.1484 16.8815 12.0708 16.6019 12.0246C16.4797 12.0043 16.3562 11.9921 16.2334 11.975C16.0846 11.9543 16.0051 11.8595 16.0122 11.7129C16.0188 11.5755 16.1192 11.4766 16.2689 11.4851C16.761 11.513 17.2364 11.6195 17.6739 11.8511C18.5636 12.3223 19.0718 13.0659 19.2202 14.059C19.2269 14.1041 19.2376 14.1486 19.2411 14.1937C19.2494 14.3051 19.2548 14.4166 19.2633 14.5638C19.2548 14.4166 19.2597 14.5904 19.2633 14.5638Z" fill="white"/>
<path d="M17.9295 14.5117C17.7501 14.515 17.6541 14.4156 17.6356 14.2512C17.6227 14.1366 17.6125 14.0204 17.5851 13.9087C17.5312 13.6889 17.4144 13.4853 17.2296 13.3506C17.1423 13.287 17.0434 13.2407 16.9398 13.2107C16.8082 13.1727 16.6715 13.1832 16.5403 13.151C16.3977 13.1161 16.3189 13.0006 16.3413 12.8669C16.3617 12.7452 16.4801 12.6502 16.6131 12.6599C17.4445 12.7199 18.0387 13.1497 18.1235 14.1284C18.1296 14.1975 18.1366 14.2704 18.1212 14.3366C18.0949 14.4495 18.0111 14.5062 17.9295 14.5117C18.0111 14.5062 17.7501 14.5149 17.9295 14.5117Z" fill="white"/>
<path d="M24.4642 11.2452L24.459 11.2241C24.2193 10.2552 23.5082 9.24686 22.6178 8.47961L21.4141 9.54636C22.1299 10.1167 22.7431 10.9067 22.9174 11.5951C23.3936 13.7768 23.3936 15.9884 22.9174 18.1701C22.632 19.2977 21.1685 20.6994 20.0058 20.9584C18.4836 21.2479 16.9493 21.3716 15.4166 21.3292C15.3861 21.3283 15.3568 21.3402 15.3356 21.3621C15.118 21.5853 13.9084 22.8272 13.9084 22.8272L12.3904 24.3852C12.2794 24.5009 12.0844 24.4222 12.0844 24.2624V21.0664C12.0844 21.0136 12.0467 20.9688 11.9948 20.9586C11.9951 20.9586 11.9945 20.9586 11.9948 20.9586C11.334 20.8114 10.5757 20.2948 9.9922 19.6696L8.80283 20.7236C9.54564 21.5316 10.5037 22.1849 11.4383 22.4517V24.381C11.4383 25.0793 12.2893 25.4222 12.7731 24.9183L14.7278 22.8865C15.1518 22.9102 15.5759 22.9234 16.0001 22.9234C17.4411 22.9234 18.8829 22.7871 20.314 22.5141L20.334 22.5101C22.104 22.1242 24.0313 20.2697 24.4588 18.5414L24.4641 18.5203C24.9926 16.1065 24.9926 13.6589 24.4642 11.2452Z" fill="white"/>
<path d="M18.5294 19.6454C18.6848 19.5975 18.3506 19.5911 18.5294 19.6454V19.6454Z" fill="white"/>
<path d="M19.8701 17.604C19.6355 17.3975 19.3822 17.2201 19.128 17.0389C18.8688 16.8542 18.6082 16.6716 18.3393 16.5013C18.0705 16.3312 17.7515 16.3339 17.5019 16.538C17.2465 16.7468 17.1286 17.1465 16.7641 17.1891C16.5466 17.2144 16.3569 17.1229 16.168 17.0444C15.4418 16.7423 14.8908 16.2803 14.4744 15.697L13.5894 16.4813C13.6194 16.5161 13.6481 16.5519 13.6787 16.5863C14.8738 17.9313 16.3826 18.8088 18.022 19.489C18.1801 19.5546 18.3506 19.5911 18.5293 19.6453C18.3506 19.591 18.6848 19.5975 18.5293 19.6453C18.6848 19.5975 18.8493 19.5735 18.9873 19.4996C19.4755 19.2373 19.8138 18.8266 20.0463 18.3328C20.1734 18.0633 20.0957 17.8027 19.8701 17.604Z" fill="white"/>
<path d="M16.0099 10.3394C16.0081 10.3394 16.0064 10.3392 16.0046 10.3392C16.0028 10.3391 16.0051 10.3392 16.0099 10.3394Z" fill="white"/>
<path d="M16.0045 10.3391C16.0063 10.3391 16.008 10.3393 16.0099 10.3393C16.1289 10.3435 18.0644 10.3969 16.0045 10.3391Z" fill="white"/>
<path d="M19.0803 11.6148L18.703 11.9492C19.2959 12.5261 19.7048 13.2907 19.8217 14.1321C19.8637 14.4347 19.8791 14.7411 19.9012 15.0463C19.9124 15.2004 19.9896 15.3443 20.1616 15.3423C20.3281 15.3402 20.4154 15.1938 20.4033 15.0395C20.3746 14.6729 20.3518 14.3035 20.2875 13.9423C20.1223 13.0143 19.6919 12.2199 19.0803 11.6148Z" fill="white"/>
<path d="M19.2201 14.0586C19.112 13.335 18.8118 12.7445 18.3132 12.2946L17.937 12.6281C18.1315 12.8007 18.2998 13.0036 18.4295 13.2272C18.6585 13.6224 18.7572 14.0762 18.758 14.5303C18.7581 14.5997 18.7614 14.6731 18.7837 14.7376C18.8589 14.9549 19.1853 14.928 19.2421 14.7126C19.2579 14.6532 19.2597 14.5903 19.2633 14.5636C19.2597 14.5904 19.2546 14.4166 19.2633 14.5636C19.2546 14.4166 19.2494 14.3049 19.241 14.1934C19.2376 14.1481 19.2268 14.1036 19.2201 14.0586Z" fill="white"/>
<path d="M19.2632 14.5637C19.2547 14.4166 19.2597 14.5904 19.2632 14.5637V14.5637Z" fill="white"/>
<path d="M17.9295 14.5118C17.9323 14.5116 17.935 14.5101 17.9377 14.5098C17.9301 14.5098 17.9185 14.51 17.9066 14.5105C17.9143 14.5106 17.9214 14.5118 17.9295 14.5118Z" fill="white"/>
<path d="M17.9295 14.5118C17.9215 14.5119 17.9143 14.5107 17.9066 14.5104C17.8678 14.5115 17.8277 14.5136 17.9295 14.5118Z" fill="white"/>
<path d="M17.9377 14.5098C17.9349 14.5101 17.9322 14.5116 17.9295 14.5118C17.9505 14.5103 17.9487 14.5098 17.9377 14.5098Z" fill="white"/>
<path d="M17.5509 12.9703L17.1679 13.3098C17.189 13.3226 17.2097 13.336 17.2298 13.3505C17.4146 13.4852 17.5314 13.6888 17.5853 13.9087C17.6127 14.0203 17.6228 14.1364 17.6358 14.2512C17.6534 14.4082 17.7426 14.5048 17.9068 14.5104C17.9187 14.5101 17.9305 14.5098 17.9379 14.5098C18.0169 14.501 18.0961 14.4457 18.1214 14.3364C18.1367 14.2703 18.1297 14.1973 18.1236 14.1282C18.076 13.581 17.8691 13.2056 17.5509 12.9703Z" fill="white"/>
</svg>
