<svg width="31" height="10" viewBox="0 0 38 12" fill="none" xmlns="http://www.w3.org/2000/svg">
<path d="M18.2209 5.00251C18.2027 6.43535 19.4963 7.23489 20.4707 7.7103C21.4719 8.19804 21.8081 8.51083 21.8042 8.94706C21.7967 9.61458 21.0056 9.90921 20.2653 9.92066C18.9737 9.94069 18.2227 9.57153 17.6257 9.29233L17.1604 11.4721C17.7594 11.7484 18.8686 11.9894 20.0187 12C22.7186 12 24.4849 10.6657 24.4944 8.59694C24.505 5.97138 20.8671 5.82606 20.892 4.65251C20.9006 4.29666 21.2397 3.91693 21.9829 3.82038C22.3507 3.7716 23.3661 3.73428 24.5174 4.26506L24.9693 2.15611C24.3501 1.93041 23.5544 1.71429 22.5637 1.71429C20.0226 1.71429 18.2353 3.06675 18.2209 5.00251ZM29.3111 1.89594C28.8181 1.89594 28.4027 2.18385 28.2173 2.62568L24.3607 11.8451H27.0586L27.5954 10.3596H30.8921L31.2036 11.8451H33.5814L31.5064 1.89594H29.3111ZM29.6886 4.58358L30.4671 8.3196H28.3348L29.6886 4.58358ZM14.9499 1.89607L12.8233 11.845H15.3941L17.5197 1.89582L14.9499 1.89607ZM11.1467 1.89582L8.47088 8.66773L7.38846 2.90986C7.26145 2.26709 6.75989 1.89594 6.20289 1.89594H1.82872L1.76746 2.18485C2.66545 2.37994 3.68574 2.69461 4.30387 3.03129C4.68216 3.23696 4.79003 3.41675 4.9143 3.90548L6.96444 11.8451H9.68118L13.8463 1.89594L11.1467 1.89582Z" fill="url(#paint0_linear)"/>
<defs>
<linearGradient id="paint0_linear" x1="16.3936" y1="12.2063" x2="16.6917" y2="1.64277" gradientUnits="userSpaceOnUse">
<stop stop-color="#222357"/>
<stop offset="1" stop-color="#254AA5"/>
</linearGradient>
</defs>
</svg>
