<svg width="32" height="32" viewBox="0 0 32 32" fill="none" xmlns="http://www.w3.org/2000/svg">
<path d="M16 32C24.8366 32 32 24.8366 32 16C32 7.16344 24.8366 0 16 0C7.16344 0 0 7.16344 0 16C0 24.8366 7.16344 32 16 32Z" fill="#4A76A8"/>
<path d="M21.871 19.237C21.8321 19.1718 21.5914 18.6489 20.4334 17.5742C19.2212 16.4488 19.384 16.6315 20.8442 14.6856C21.7334 13.5005 22.089 12.7767 21.9777 12.4673C21.8719 12.1724 21.2178 12.2502 21.2178 12.2502L19.043 12.2629C19.043 12.2629 18.8819 12.2412 18.7616 12.3126C18.6449 12.3832 18.5698 12.5461 18.5698 12.5461C18.5698 12.5461 18.2252 13.4634 17.7656 14.2432C16.7967 15.8888 16.4086 15.9756 16.2503 15.8734C15.8821 15.6355 15.9743 14.9163 15.9743 14.406C15.9743 12.8111 16.2159 12.1462 15.503 11.9743C15.266 11.9173 15.0923 11.8793 14.4871 11.873C13.7109 11.8648 13.0532 11.8757 12.6814 12.0575C12.4335 12.1788 12.2426 12.4493 12.3593 12.4646C12.5031 12.4836 12.8288 12.5524 13.0016 12.7876C13.2251 13.0907 13.2169 13.7728 13.2169 13.7728C13.2169 13.7728 13.3454 15.65 12.9175 15.8834C12.6235 16.0435 12.2209 15.7169 11.3569 14.2233C10.9145 13.4589 10.5798 12.613 10.5798 12.613C10.5798 12.613 10.5156 12.4556 10.4007 12.3715C10.2614 12.2692 10.066 12.2367 10.066 12.2367L7.9979 12.2493C7.9979 12.2493 7.6876 12.2584 7.57361 12.3932C7.47229 12.5135 7.56547 12.7614 7.56547 12.7614C7.56547 12.7614 9.18482 16.5492 11.0177 18.4589C12.6995 20.2095 14.6083 20.0946 14.6083 20.0946H15.4732C15.4732 20.0946 15.7346 20.0656 15.8676 19.9218C15.9906 19.7897 15.9861 19.5418 15.9861 19.5418C15.9861 19.5418 15.9689 18.3811 16.5081 18.2102C17.0391 18.0419 17.7213 19.332 18.4441 19.8286C18.9905 20.2041 19.4057 20.1217 19.4057 20.1217L21.339 20.0946C21.339 20.0946 22.3504 20.0322 21.871 19.237Z" fill="white"/>
</svg>
