<svg width="36" height="36" viewBox="0 0 36 36" fill="none" xmlns="http://www.w3.org/2000/svg">
<g clip-path="url(#clip0)">
<path d="M33.6163 13.9647H33.6175C33.568 13.8933 32.3815 12.1993 29.8613 10.5096C28.3924 9.52525 26.7654 8.74084 25.0252 8.17939C23.5235 7.69381 21.9337 7.37522 20.2803 7.22475L20.9153 5.62295C20.9439 5.62408 20.9713 5.62513 20.9999 5.62513C22.2425 5.62513 23.2499 4.61769 23.2499 3.37519C23.2499 2.13262 22.2425 1.12524 20.9999 1.12524C19.7573 1.12524 18.7499 2.13262 18.7499 3.37519C18.7499 4.05139 19.0487 4.65776 19.5211 5.0698L18.7027 7.13468C18.4863 7.12919 18.2698 7.12476 18.0512 7.12476C17.7996 7.12476 17.5491 7.13025 17.2986 7.13686L16.479 5.0698C16.9515 4.65784 17.2502 4.05146 17.2502 3.37519C17.2502 2.13262 16.2429 1.12524 15.0003 1.12524C13.7578 1.12524 12.7504 2.13262 12.7504 3.37519C12.7504 4.61769 13.7578 5.62513 15.0003 5.62513C15.0288 5.62513 15.0563 5.624 15.0849 5.62295L15.7232 7.23466C14.1027 7.38851 12.5416 7.70372 11.0628 8.17946C9.31501 8.74084 7.67693 9.52419 6.19382 10.5074C3.64835 12.1949 2.43763 13.8868 2.3882 13.9581C2.30144 14.08 2.24976 14.2295 2.24976 14.391C2.24983 14.8052 2.58599 15.1403 3.00021 15.1403C3.25291 15.1403 3.47594 15.0161 3.61108 14.825H3.61221C3.62318 14.8096 4.74811 13.2518 7.08271 11.7181C8.44939 10.8205 9.95893 10.1053 11.5683 9.59232C13.5832 8.95072 15.764 8.62552 18.0512 8.62552C20.3385 8.62552 22.5139 8.95072 24.5166 9.5912C26.1173 10.1043 27.6147 10.8183 28.9649 11.7148C31.2731 13.2474 32.3728 14.803 32.3826 14.8173V14.8162C32.5189 15.0128 32.7441 15.1402 33.0001 15.1402C33.4143 15.1402 33.7493 14.8051 33.7493 14.391C33.7493 14.2328 33.7009 14.0855 33.6163 13.9647ZM15.0004 4.12507C14.5862 4.12507 14.25 3.78891 14.25 3.37526C14.25 2.96161 14.5862 2.62544 15.0004 2.62544C15.4135 2.62544 15.7496 2.96161 15.7496 3.37526C15.7496 3.78891 15.4135 4.12507 15.0004 4.12507ZM20.9999 2.62544C21.4141 2.62544 21.7503 2.96161 21.7503 3.37526C21.7503 3.78891 21.4141 4.12507 20.9999 4.12507C20.5868 4.12507 20.2495 3.78891 20.2495 3.37526C20.2495 2.96161 20.5868 2.62544 20.9999 2.62544Z" fill="#960F19"/>
<path d="M17.9995 9.4231C1.57738 9.4231 -4.0871 26.5308 2.99566 32.5314C3.3736 32.851 3.83281 33.1311 4.36016 33.375C4.36016 33.375 6.38053 34.8746 17.9995 34.8746C29.6196 34.8746 31.6398 33.375 31.6398 33.375C32.1672 33.1311 32.6264 32.851 33.0043 32.5314C40.0871 26.5307 34.4227 9.4231 17.9995 9.4231ZM32.0343 31.3866C31.7695 31.6108 31.4245 31.8217 31.0104 32.0128L30.8697 32.0776L30.8104 32.1227C30.6764 32.1875 30.0029 32.4786 28.2803 32.7599C25.7875 33.1674 22.3291 33.375 17.9995 33.375C13.6709 33.375 10.2124 33.1674 7.71971 32.7599C5.99704 32.4786 5.32358 32.1875 5.18957 32.1227L5.13022 32.0776L4.9896 32.0128C4.57433 31.8216 4.2305 31.6107 3.9657 31.3866C2.73523 30.344 1.92663 28.8268 1.62892 26.9987C1.32461 25.1344 1.55755 23.0744 2.3035 21.0398C2.79457 19.6995 3.48891 18.4284 4.3667 17.2606C5.29609 16.0258 6.40795 14.9392 7.67246 14.0318C9.03147 13.0574 10.5574 12.2982 12.2053 11.7774C13.9994 11.2105 15.9494 10.9227 17.9994 10.9227C20.0505 10.9227 22.0005 11.2105 23.7946 11.7774C25.4436 12.2981 26.9685 13.0573 28.3275 14.0318C29.592 14.9392 30.7038 16.0258 31.6332 17.2606C32.511 18.4284 33.2053 19.6996 33.6965 21.0398C34.4424 23.0745 34.6754 25.1344 34.371 26.9987C34.0733 28.8267 33.2647 30.344 32.0343 31.3866Z" fill="#960F19"/>
</g>
<defs>
<clipPath id="clip0">
<rect width="36" height="36" fill="white"/>
</clipPath>
</defs>
</svg>
