<svg width="32" height="32" viewBox="0 0 32 32" fill="none" xmlns="http://www.w3.org/2000/svg">
<path d="M16 32C24.8366 32 32 24.8366 32 16C32 7.16344 24.8366 0 16 0C7.16344 0 0 7.16344 0 16C0 24.8366 7.16344 32 16 32Z" fill="#75B73B"/>
<path d="M15.5523 6.7779C10.6755 7.0099 6.82706 11.0714 6.84175 15.9536C6.84625 17.4406 7.20525 18.8441 7.83862 20.0845L6.86631 24.8041C6.81375 25.0595 7.044 25.2831 7.29762 25.223L11.9223 24.1273C13.1105 24.7193 14.4451 25.061 15.8574 25.0826C20.842 25.1588 24.9981 21.201 25.1537 16.2183C25.32 10.8771 20.9119 6.52258 15.5523 6.7779ZM21.0706 20.996C19.7163 22.3503 17.9154 23.0962 16 23.0962C14.8785 23.0962 13.8046 22.8445 12.8084 22.3483L12.1645 22.0275L9.32887 22.6991L9.92568 19.8019L9.60849 19.1805C9.09124 18.1676 8.829 17.0725 8.829 15.9252C8.829 14.0097 9.57493 12.209 10.9292 10.8546C12.2715 9.51221 14.1017 8.75433 16.0001 8.75433C17.9154 8.75433 19.7162 9.50027 21.0705 10.8546C22.4249 12.2089 23.1708 14.0098 23.1708 15.925C23.1709 17.8235 22.4129 19.6536 21.0706 20.996Z" fill="white"/>
<path d="M20.4447 17.9113L18.6707 17.402C18.4376 17.3351 18.1864 17.4013 18.0164 17.5745L17.5826 18.0163C17.3997 18.2028 17.1222 18.2626 16.8801 18.1647C16.0409 17.8251 14.2756 16.2555 13.825 15.4706C13.6948 15.2441 13.7163 14.9611 13.8761 14.7542L14.2547 14.2643C14.4031 14.0724 14.4343 13.8145 14.3363 13.5926L13.5899 11.9046C13.4112 11.5003 12.8946 11.3826 12.557 11.6681C12.0619 12.0869 11.4745 12.7231 11.4032 13.4281C11.2773 14.671 11.8104 16.2377 13.8258 18.119C16.1544 20.2926 18.0192 20.5796 19.2335 20.2855C19.9222 20.1188 20.4726 19.4502 20.8197 18.9026C21.0566 18.5291 20.8694 18.0333 20.4447 17.9113Z" fill="white"/>
<path d="M22.2503 9.23175L20.8613 10.6554C20.932 10.7207 21.0024 10.7864 21.0707 10.8548C22.4251 12.2091 23.171 14.01 23.171 15.9253C23.171 17.8237 22.413 19.6538 21.0707 20.9961C19.7164 22.3504 17.9156 23.0964 16.0001 23.0964C14.8786 23.0964 13.8048 22.8447 12.8085 22.3485L12.1646 22.0276L9.32899 22.6993L9.38762 22.4148L6.87674 24.988C6.93211 25.1544 7.1083 25.2677 7.29761 25.2229L11.9223 24.1273C13.1105 24.7192 14.4451 25.0609 15.8574 25.0825C20.842 25.1587 24.9983 21.2009 25.1537 16.2182C25.2396 13.4598 24.1054 10.9647 22.2503 9.23175Z" fill="white"/>
<path d="M20.4447 17.9113L18.6707 17.402C18.4376 17.3352 18.1864 17.4014 18.0164 17.5745L17.5826 18.0164C17.3997 18.2029 17.1222 18.2627 16.8801 18.1648C16.3953 17.9686 15.6019 17.362 14.931 16.7333L13.6978 17.9973C13.7401 18.0378 13.7823 18.0783 13.8259 18.1191C16.1544 20.2927 18.0192 20.5796 19.2336 20.2856C19.9222 20.1189 20.4726 19.4503 20.8197 18.9027C21.0566 18.5291 20.8694 18.0334 20.4447 17.9113Z" fill="white"/>
</svg>
