<svg width="25" height="24" viewBox="0 0 25 24" fill="none" xmlns="http://www.w3.org/2000/svg">
<path d="M13.2271 6.15C13.2271 4.413 11.8405 3 10.1359 3C8.33952 3 7.26555 4.3725 7.26555 5.7H9.03195C9.03195 5.3265 9.37463 4.8 10.1359 4.8C10.8663 4.8 11.4607 5.4057 11.4607 6.15C11.4607 6.8943 10.8663 7.5 10.1359 7.5H3.51196V9.3H10.1359C11.8405 9.3 13.2271 7.887 13.2271 6.15ZM15.4351 14.7H8.81115V16.5H15.4351C16.1655 16.5 16.7599 17.1057 16.7599 17.85C16.7599 18.5943 16.1655 19.2 15.4351 19.2C14.6738 19.2 14.3311 18.6735 14.3311 18.3H12.5647C12.5647 19.6275 13.6387 21 15.4351 21C17.1397 21 18.5263 19.587 18.5263 17.85C18.5263 16.113 17.1397 14.7 15.4351 14.7Z" fill="#929AAB"/>
<path d="M17.9257 6C15.9384 6 14.3223 7.495 14.3223 9.33333H16.124C16.124 8.41417 16.9321 7.66667 17.9257 7.66667C18.9194 7.66667 19.7275 8.41417 19.7275 9.33333C19.7275 10.2525 18.9194 11 17.9257 11H3.51196V12.6667H17.9257C19.913 12.6667 21.5292 11.1717 21.5292 9.33333C21.5292 7.495 19.913 6 17.9257 6ZM3.51196 14.3333H7.11541V16H3.51196V14.3333Z" fill="#929AAB"/>
</svg>
