<svg width="25" height="24" viewBox="0 0 25 24" fill="none" xmlns="http://www.w3.org/2000/svg">
<path d="M19.2453 4H4.83153C4.61915 4 4.41547 4.08429 4.2653 4.23431C4.11513 4.38434 4.03076 4.58783 4.03076 4.8V19.2C4.03076 19.4122 4.11513 19.6157 4.2653 19.7657C4.41547 19.9157 4.61915 20 4.83153 20H19.2453C19.4577 20 19.6614 19.9157 19.8115 19.7657C19.9617 19.6157 20.0461 19.4122 20.0461 19.2V4.8C20.0461 4.58783 19.9617 4.38434 19.8115 4.23431C19.6614 4.08429 19.4577 4 19.2453 4ZM8.83535 18.4H5.63229V10.4H8.83535V18.4ZM13.6399 18.4H10.4369V10.4H13.6399V18.4ZM18.4445 18.4H15.2415V10.4H18.4445V18.4ZM18.4445 8.8H5.63229V5.6H18.4445V8.8Z" fill="#929AAB"/>
</svg>
