<svg width="175" height="72" viewBox="0 0 175 72" fill="none" xmlns="http://www.w3.org/2000/svg">
<g clip-path="url(#clip0)">
<path d="M173.64 61.7118H0V59.8467H173.64V61.7118ZM86.0709 32.7296C84.6602 32.7296 83.5195 33.866 83.5195 35.2713C83.5195 36.6766 84.6602 37.813 86.0709 37.813C87.4817 37.813 88.6224 36.6766 88.6224 35.2713C88.6224 33.866 87.4817 32.7296 86.0709 32.7296ZM154.909 36.0087H127.33V31.9316L124.491 33.3022L121.652 31.9316V36.0087H115.522V31.9316L112.683 33.3022L109.844 31.9316V36.0087H103.714V31.9316L100.875 33.3022L98.0359 31.9316V36.0087H91.8096V25.3041L90.6253 27.1084V19.041L89.023 20.9928L86.0796 3.15759L83.1276 21.0014L81.5253 19.0496V27.1171L80.341 25.3128V36.0173H73.3136V31.9402L70.4747 33.3108L67.6359 31.9402V36.0173H61.5054V31.9402L58.6665 33.3108L55.8277 31.9402V36.0173H49.6972V31.9402L46.8583 33.3108L44.0195 31.9402V36.0173H20.4379V37.8824H45.9091V34.9243L46.8757 35.3928L47.8423 34.9243V37.8911H57.7173V34.933L58.6839 35.4014L59.6505 34.933V37.8998H69.5255V34.9417L70.4921 35.4101L71.4587 34.9417V37.9084H82.2307V31.6019L83.415 33.4063V24.2718L84.3206 25.3735L86.0971 14.6255L87.8735 25.3735L88.7792 24.2718V33.3716L89.9635 31.5672V37.8737H99.9342V34.9157L100.901 35.3841L101.867 34.9157V37.8824H111.742V34.9243L112.709 35.3928L113.676 34.9243V37.8911H123.551V34.933L124.517 35.4014L125.484 34.933V37.8998H154.935V36.0087H154.909ZM86.0709 0L85.4788 1.19711L84.1552 1.38795L85.113 2.31614L84.8866 3.62602L86.0709 3.01012L87.2552 3.62602L87.0288 2.31614L87.9867 1.38795L86.6631 1.19711L86.0709 0Z" fill="#960F19"/>
<path d="M0.391865 71.1238V66.3614H2.90851C3.81415 66.3614 4.28439 66.9426 4.28439 67.5759C4.28439 68.1744 3.90994 68.5735 3.46583 68.6689C3.9709 68.747 4.38018 69.2414 4.38018 69.84C4.38018 70.5513 3.90123 71.1238 2.98688 71.1238H0.391865ZM3.23942 67.7494C3.23942 67.4458 3.02171 67.2289 2.6821 67.2289H1.41071V68.2612H2.6821C3.03042 68.2699 3.23942 68.053 3.23942 67.7494ZM3.33521 69.6925C3.33521 69.3889 3.1175 69.1373 2.71693 69.1373H1.41071V70.2477H2.71693C3.10879 70.239 3.33521 70.0395 3.33521 69.6925ZM9.74437 66.3614V68.053H10.9635C11.9911 68.053 12.5658 68.7643 12.5658 69.5884C12.5658 70.4212 11.9998 71.1238 10.9635 71.1238H8.72552V66.3614H9.74437ZM9.74437 68.9465V70.2304H10.8242C11.2248 70.2304 11.5295 69.9875 11.5295 69.5884C11.5295 69.1981 11.2335 68.9465 10.8242 68.9465H9.74437ZM12.9664 71.1238V66.3614H13.9939V71.1238H12.9664ZM18.2957 68.747C18.2957 67.281 19.4104 66.2834 20.8385 66.2834C21.8922 66.2834 22.5017 66.8559 22.8327 67.4458L21.9618 67.8708C21.7616 67.4891 21.3349 67.1769 20.8385 67.1769C19.9764 67.1769 19.3407 67.8448 19.3407 68.7383C19.3407 69.6405 19.9677 70.2998 20.8385 70.2998C21.3349 70.2998 21.7616 69.9961 21.9618 69.6058L22.8327 70.0308C22.493 70.6207 21.8835 71.2019 20.8385 71.2019C19.4017 71.2106 18.2957 70.2043 18.2957 68.747ZM26.7948 68.747C26.7948 67.307 27.8485 66.2834 29.2854 66.2834C30.7309 66.2834 31.7846 67.3157 31.7846 68.747C31.7846 70.1783 30.7309 71.2106 29.2854 71.2106C27.8485 71.2106 26.7948 70.1783 26.7948 68.747ZM30.7483 68.747C30.7483 67.8535 30.1736 67.1855 29.2941 67.1855C28.4146 67.1855 27.8485 67.8535 27.8485 68.747C27.8485 69.6318 28.4146 70.3084 29.2941 70.3084C30.1736 70.3084 30.7483 69.6318 30.7483 68.747ZM38.9339 71.1238L37.4884 69.2154L37.114 69.6578V71.1238H36.0951V66.3614H37.114V68.4867L38.8033 66.3614H40.0573L38.1589 68.5995L40.1879 71.1238H38.9339ZM43.6712 68.747C43.6712 67.307 44.7248 66.2834 46.1617 66.2834C47.6072 66.2834 48.6609 67.3157 48.6609 68.747C48.6609 70.1783 47.6072 71.2106 46.1617 71.2106C44.7248 71.2106 43.6712 70.1783 43.6712 68.747ZM47.6159 68.747C47.6159 67.8535 47.0412 67.1855 46.1617 67.1855C45.2822 67.1855 44.7161 67.8535 44.7161 68.747C44.7161 69.6318 45.2822 70.3084 46.1617 70.3084C47.0412 70.3084 47.6159 69.6318 47.6159 68.747ZM56.237 71.1238V67.2549H53.9816V71.1238H52.9627V66.3614H57.2558V71.1238H56.237ZM61.784 71.1238V66.3614H64.022C65.0583 66.3614 65.6243 67.0641 65.6243 67.8969C65.6243 68.721 65.0496 69.4323 64.022 69.4323H62.8029V71.1238H61.784ZM64.588 67.8969C64.588 67.4978 64.2832 67.2549 63.8827 67.2549H62.8029V68.5388H63.8827C64.2832 68.5388 64.588 68.2872 64.588 67.8969ZM69.6126 68.747C69.6126 67.307 70.6663 66.2834 72.1031 66.2834C73.5487 66.2834 74.6024 67.3157 74.6024 68.747C74.6024 70.1783 73.5487 71.2106 72.1031 71.2106C70.6663 71.2106 69.6126 70.1783 69.6126 68.747ZM73.5574 68.747C73.5574 67.8535 72.9827 67.1855 72.1031 67.1855C71.2236 67.1855 70.6576 67.8535 70.6576 68.747C70.6576 69.6318 71.2236 70.3084 72.1031 70.3084C72.9827 70.3084 73.5574 69.6318 73.5574 68.747ZM79.6356 67.6973C79.6356 68.3219 79.9578 68.5648 80.5065 68.5648C80.8461 68.5648 81.1683 68.5041 81.4121 68.4087V66.3701H82.4309V71.1325H81.4121V69.2935C81.1073 69.3889 80.7416 69.4496 80.3845 69.4496C79.1654 69.4496 78.6081 68.747 78.6081 67.6973V66.3614H79.6356V67.6973ZM90.2421 71.1238V69.1287H87.9867V71.1238H86.9679V66.3614H87.9867V68.2352H90.2421V66.3614H91.2697V71.1238H90.2421ZM99.0896 71.1238L98.7935 70.3171H96.7471L96.451 71.1238H95.2928L97.1389 66.3614H98.4103L100.256 71.1238H99.0896ZM97.7659 67.3764L97.0257 69.4236H98.5148L97.7659 67.3764ZM104.071 71.1238L105.142 69.3108C104.628 69.1894 104.097 68.7383 104.097 67.8969C104.097 67.012 104.706 66.3614 105.699 66.3614H107.937V71.1238H106.918V69.4323H106.178L105.229 71.1238H104.071ZM106.918 68.5388V67.2549H105.856C105.446 67.2549 105.142 67.4978 105.142 67.8969C105.142 68.2959 105.446 68.5388 105.856 68.5388H106.918ZM118.988 71.1238V67.2549H117.594V66.3614H121.408V67.2549H120.015V71.1238H118.988ZM125.641 71.1238V66.3614H129.019V67.2549H126.659V68.2612H128.976V69.1547H126.659V70.2304H129.019V71.1238H125.641ZM137.623 71.1238V67.2549H135.368V71.1238H134.349V66.3614H138.642V71.1238H137.623ZM142.883 70.3084C143.362 70.3084 143.64 70.0482 143.788 68.799L144.067 66.3614H147.463V71.1238H146.444V67.2549H144.99L144.807 68.8684C144.581 70.8463 143.858 71.2106 142.891 71.2106V70.3084H142.883ZM151.991 71.1238V66.3614H153.01V69.441L155.222 66.3614H156.267V71.1238H155.248V67.9316L152.975 71.1238H151.991ZM164.514 71.1238H160.804V66.3614H161.823V70.2304H164.078V66.3614H165.106V70.2304H165.532V72H164.514V71.1238ZM173.004 71.1238L172.708 70.3171H170.661L170.365 71.1238H169.207L171.053 66.3614H172.325L174.162 71.1238H173.004ZM171.68 67.3764L170.94 69.4236H172.429L171.68 67.3764ZM5.44257 46.9301L5.66898 47.2251L11.5382 54.9629H15.9445L7.96792 45.0304L7.81988 44.8395L7.97663 44.6573L15.3872 35.9393H11.007L4.13635 44.5966L3.60516 45.2559V44.4058V35.9393H0V54.9716H3.59645V49.2376V49.1335L3.66611 49.0554L5.19874 47.2337L5.44257 46.9301ZM20.4379 55.2578V43.4689H25.9676C28.5365 43.4689 29.9385 45.2038 29.9385 47.2684C29.9385 49.3157 28.5191 51.0679 25.9676 51.0679H22.9546V55.2578H20.4379ZM27.3696 47.2684C27.3696 46.2795 26.6207 45.681 25.628 45.681H22.9546V48.8646H25.6367C26.6207 48.8559 27.3696 48.24 27.3696 47.2684ZM35.0501 55.2578V43.4689H43.4186V45.681H37.5668V48.1706H43.2967V50.3826H37.5668V53.0544H43.4186V55.2665H35.0501V55.2578ZM59.2151 55.2578V47.0082L55.8799 55.2578H54.7827L51.4475 47.0082V55.2578H48.9309V43.4689H52.4576L55.3313 50.5908L58.205 43.4689H61.7492V55.2578H59.2151ZM66.9305 53.2453C68.1148 53.2453 68.8115 52.612 69.1859 49.4978L69.8739 43.4689H78.2772V55.2578H75.7431V45.681H72.1467L71.6851 49.6713C71.1191 54.5638 69.3427 55.466 66.9305 55.466V53.2453ZM84.1464 55.2578V43.4689H92.5149V45.681H86.6631V48.1706H92.393V50.3826H86.6631V53.0544H92.5149V55.2665H84.1464V55.2578ZM98.0272 55.2578V43.4689H104.253C106.509 43.4689 107.658 44.9002 107.658 46.479C107.658 47.9624 106.735 48.9513 105.621 49.1855C106.883 49.3764 107.893 50.5995 107.893 52.0829C107.893 53.8525 106.709 55.2665 104.454 55.2665H98.0272V55.2578ZM105.081 46.9128C105.081 46.1754 104.55 45.6202 103.696 45.6202H100.535V48.1793H103.696C104.55 48.1879 105.081 47.6588 105.081 46.9128ZM105.316 51.7185C105.316 50.9725 104.785 50.3393 103.792 50.3393H100.544V53.0805H103.792C104.741 53.0805 105.316 52.5687 105.316 51.7185ZM112.761 49.3677C112.761 45.7417 115.513 43.2694 119.057 43.2694C121.661 43.2694 123.167 44.6834 124.003 46.1494L121.844 47.2077C121.347 46.2535 120.285 45.4901 119.057 45.4901C116.915 45.4901 115.348 47.1383 115.348 49.359C115.348 51.5884 116.906 53.2279 119.057 53.2279C120.285 53.2279 121.347 52.4819 121.844 51.5104L124.003 52.5513C123.15 54.0173 121.661 55.4487 119.057 55.4487C115.513 55.466 112.761 52.9937 112.761 49.3677ZM136.073 55.2578L132.494 50.5388L131.571 51.6318V55.2578H129.054V43.4689H131.571V48.7345L135.759 43.4689H138.859L134.157 49.0034L139.173 55.2578H136.073ZM152.035 55.2578L151.303 53.2626H146.235L145.486 55.2578H142.613L147.184 43.4689H150.337L154.891 55.2578H152.035ZM148.769 45.9759L146.923 51.0506H150.615L148.769 45.9759ZM170.113 54.9629H173.631V36.3036H164.888C161.187 36.3036 158.697 38.6805 158.697 42.2111C158.697 45.5161 160.76 47.1817 162.694 47.6414L163.085 47.7369L162.885 48.0838L158.801 54.9716H162.833L166.569 48.2834L166.656 48.1359H166.83H169.808H170.104V48.4308V54.9629H170.113ZM169.817 45.0998H165.506C163.625 45.0998 162.31 43.9113 162.31 42.2111C162.31 40.5108 163.625 39.3224 165.506 39.3224H169.817H170.113V39.6173V44.8135V45.1084H169.817V45.0998Z" fill="#140A00"/>
</g>
<defs>
<clipPath id="clip0">
<rect width="174.162" height="72" fill="white"/>
</clipPath>
</defs>
</svg>
