<svg width="158" height="56" viewBox="0 0 158 56" fill="none" xmlns="http://www.w3.org/2000/svg">
<path d="M157.526 35.1754H0V33.5176H157.526V35.1754Z" fill="white"/>
<path d="M4.9375 22.0362L5.1429 22.2984L10.4675 29.1765H14.4649L7.2285 20.3476L7.0942 20.1779L7.2364 20.016L13.9593 12.2666H9.9856L3.7525 19.962L3.2706 20.548V19.7924V12.2666H0V29.1842H3.2627V24.0873V23.9948L3.3259 23.9254L4.7163 22.3061L4.9375 22.0362ZM18.5413 29.4387V18.9596H23.5578C25.8883 18.9596 27.1602 20.5018 27.1602 22.337C27.1602 24.1567 25.8725 25.7143 23.5578 25.7143H20.8244V29.4387H18.5413ZM24.8297 22.337C24.8297 21.4579 24.1503 20.9259 23.2497 20.9259H20.8244V23.7558H23.2576C24.1503 23.7481 24.8297 23.2006 24.8297 22.337ZM31.7975 29.4387V18.9596H39.3894V20.9259H34.0806V23.1389H39.2788V25.1052H34.0806V27.4801H39.3894V29.4464H31.7975V29.4387ZM53.72 29.4387V22.1056L50.6943 29.4387H49.6989L46.6732 22.1056V29.4387H44.3901V18.9596H47.5896L50.1966 25.2902L52.8036 18.9596H56.0189V29.4387H53.72ZM60.7194 27.6497C61.7938 27.6497 62.4258 27.0868 62.7655 24.3187L63.3896 18.9596H71.0131V29.4387H68.7142V20.9259H65.4515L65.0328 24.4729C64.5193 28.8218 62.9077 29.6237 60.7194 29.6237V27.6497ZM76.3377 29.4387V18.9596H83.9296V20.9259H78.6208V23.1389H83.819V25.1052H78.6208V27.4801H83.9296V29.4464H76.3377V29.4387ZM88.9303 29.4387V18.9596H94.5788C96.6249 18.9596 97.6677 20.2319 97.6677 21.6353C97.6677 22.9538 96.8303 23.8329 95.8191 24.0411C96.9646 24.2107 97.881 25.2979 97.881 26.6165C97.881 28.1895 96.8066 29.4464 94.7605 29.4464H88.9303V29.4387ZM95.3293 22.0208C95.3293 21.3654 94.8474 20.8719 94.0732 20.8719H91.2055V23.1466H94.0732C94.8474 23.1543 95.3293 22.684 95.3293 22.0208ZM95.5426 26.2926C95.5426 25.6295 95.0607 25.0666 94.1601 25.0666H91.2134V27.5032H94.1601C95.0212 27.5032 95.5426 27.0483 95.5426 26.2926ZM102.297 24.203C102.297 20.9799 104.794 18.7823 108.009 18.7823C110.371 18.7823 111.738 20.0391 112.496 21.3423L110.537 22.283C110.087 21.4348 109.123 20.7562 108.009 20.7562C106.065 20.7562 104.643 22.2213 104.643 24.1953C104.643 26.177 106.058 27.6343 108.009 27.6343C109.123 27.6343 110.087 26.9712 110.537 26.1076L112.496 27.0329C111.722 28.336 110.371 29.6083 108.009 29.6083C104.794 29.6237 102.297 27.4261 102.297 24.203ZM123.445 29.4387L120.199 25.244L119.361 26.2155V29.4387H117.078V18.9596H119.361V23.6401L123.161 18.9596H125.973L121.707 23.8791L126.258 29.4387H123.445ZM137.926 29.4387L137.263 27.6652H132.665L131.985 29.4387H129.378L133.526 18.9596H136.386L140.517 29.4387H137.926ZM134.964 21.1881L133.289 25.6989H136.638L134.964 21.1881ZM154.327 29.1765H157.518V12.5905H149.587C146.229 12.5905 143.97 14.7032 143.97 17.8415C143.97 20.7794 145.842 22.2599 147.596 22.6685L147.951 22.7534L147.77 23.0618L144.064 29.1842H147.722L151.111 23.2391L151.19 23.1081H151.348H154.05H154.319V23.3702V29.1765H154.327ZM154.058 20.4093H150.147C148.441 20.4093 147.248 19.3529 147.248 17.8415C147.248 16.3302 148.441 15.2738 150.147 15.2738H154.058H154.327V15.536V20.1548V20.417H154.058V20.4093Z" fill="white"/>
</svg>
