<svg width="24" height="24" viewBox="0 0 24 24" fill="none" xmlns="http://www.w3.org/2000/svg">
<path fill-rule="evenodd" clip-rule="evenodd" d="M15.4104 3.76976L14.0289 2.35376L15.1014 1.30676L16.0344 2.26226L17.3694 2.24576C17.9473 2.23892 18.5207 2.34769 19.0559 2.56569C19.5911 2.78369 20.0774 3.1065 20.486 3.51515C20.8947 3.92379 21.2175 4.41003 21.4355 4.94525C21.6535 5.48047 21.7622 6.05388 21.7554 6.63176L21.7404 7.96676L22.6944 8.89976C23.1076 9.30351 23.4359 9.78578 23.6601 10.3182C23.8842 10.8507 23.9997 11.4226 23.9997 12.0003C23.9997 12.578 23.8842 13.1498 23.6601 13.6823C23.4359 14.2147 23.1076 14.697 22.6944 15.1008L21.7389 16.0338L21.7554 17.3688C21.7622 17.9466 21.6535 18.52 21.4355 19.0553C21.2175 19.5905 20.8947 20.0767 20.486 20.4854C20.0774 20.894 19.5911 21.2168 19.0559 21.4348C18.5207 21.6528 17.9473 21.7616 17.3694 21.7548L16.0344 21.7398L15.1014 22.6938C14.6976 23.1069 14.2154 23.4353 13.6829 23.6594C13.1505 23.8836 12.5786 23.9991 12.0009 23.9991C11.4232 23.9991 10.8513 23.8836 10.3189 23.6594C9.78642 23.4353 9.30415 23.1069 8.9004 22.6938L7.9674 21.7383L6.6324 21.7548C6.05452 21.7616 5.48111 21.6528 4.94589 21.4348C4.41067 21.2168 3.92443 20.894 3.51579 20.4854C3.10714 20.0767 2.78433 19.5905 2.56633 19.0553C2.34834 18.52 2.23956 17.9466 2.2464 17.3688L2.2614 16.0338L1.3074 15.1008C0.894209 14.697 0.565889 14.2147 0.341733 13.6823C0.117577 13.1498 0.00210571 12.578 0.00210571 12.0003C0.00210571 11.4226 0.117577 10.8507 0.341733 10.3182C0.565889 9.78578 0.894209 9.30351 1.3074 8.89976L2.2629 7.96676L2.2464 6.63176C2.23956 6.05388 2.34834 5.48047 2.56633 4.94525C2.78433 4.41003 3.10714 3.92379 3.51579 3.51515C3.92443 3.1065 4.41067 2.78369 4.94589 2.56569C5.48111 2.34769 6.05452 2.23892 6.6324 2.24576L7.9674 2.26076L8.9004 1.30676C9.30415 0.893568 9.78642 0.565249 10.3189 0.341092C10.8513 0.116936 11.4232 0.00146484 12.0009 0.00146484C12.5786 0.00146484 13.1505 0.116936 13.6829 0.341092C14.2154 0.565249 14.6976 0.893568 15.1014 1.30676L14.0289 2.35376C13.7648 2.08344 13.4494 1.86864 13.1011 1.72198C12.7529 1.57533 12.3788 1.49978 12.0009 1.49978C11.623 1.49978 11.2489 1.57533 10.9007 1.72198C10.5524 1.86864 10.237 2.08344 9.9729 2.35376L8.5929 3.76976L6.6129 3.74576C6.23516 3.74153 5.8604 3.81284 5.51061 3.9555C5.16083 4.09815 4.84308 4.30927 4.57603 4.57646C4.30899 4.84364 4.09803 5.1615 3.95556 5.51136C3.81309 5.86122 3.74198 6.23603 3.7464 6.61376L3.7704 8.59076L2.3544 9.97226C2.08408 10.2363 1.86928 10.5518 1.72262 10.9C1.57597 11.2483 1.50042 11.6224 1.50042 12.0003C1.50042 12.3781 1.57597 12.7522 1.72262 13.1005C1.86928 13.4488 2.08408 13.7642 2.3544 14.0283L3.7704 15.4083L3.7464 17.3883C3.74218 17.766 3.81349 18.1408 3.95614 18.4905C4.09879 18.8403 4.30991 19.1581 4.5771 19.4251C4.84428 19.6922 5.16214 19.9031 5.512 20.0456C5.86186 20.1881 6.23667 20.2592 6.6144 20.2548L8.5914 20.2308L9.9729 21.6468C10.237 21.9171 10.5524 22.1319 10.9007 22.2785C11.2489 22.4252 11.623 22.5007 12.0009 22.5007C12.3788 22.5007 12.7529 22.4252 13.1011 22.2785C13.4494 22.1319 13.7648 21.9171 14.0289 21.6468L15.4089 20.2308L17.3889 20.2548C17.7666 20.259 18.1414 20.1877 18.4912 20.045C18.841 19.9024 19.1587 19.6912 19.4258 19.4241C19.6928 19.1569 19.9038 18.839 20.0462 18.4892C20.1887 18.1393 20.2598 17.7645 20.2554 17.3868L20.2314 15.4098L21.6474 14.0283C21.9177 13.7642 22.1325 13.4488 22.2792 13.1005C22.4258 12.7522 22.5014 12.3781 22.5014 12.0003C22.5014 11.6224 22.4258 11.2483 22.2792 10.9C22.1325 10.5518 21.9177 10.2363 21.6474 9.97226L20.2314 8.59226L20.2554 6.61226C20.2596 6.23452 20.1883 5.85976 20.0457 5.50997C19.903 5.16018 19.6919 4.84244 19.4247 4.57539C19.1575 4.30835 18.8397 4.09739 18.4898 3.95492C18.1399 3.81245 17.7651 3.74134 17.3874 3.74576L15.4104 3.76976Z" fill="#960F19"/>
<path fill-rule="evenodd" clip-rule="evenodd" d="M15.531 9.21888C15.6008 9.28854 15.6562 9.37131 15.6941 9.46242C15.7319 9.55354 15.7513 9.65122 15.7513 9.74988C15.7513 9.84853 15.7319 9.94621 15.6941 10.0373C15.6562 10.1284 15.6008 10.2112 15.531 10.2809L11.031 14.7809C10.9613 14.8507 10.8786 14.9061 10.7874 14.9439C10.6963 14.9818 10.5986 15.0012 10.5 15.0012C10.4013 15.0012 10.3037 14.9818 10.2125 14.9439C10.1214 14.9061 10.0387 14.8507 9.96899 14.7809L7.71899 12.5309C7.64925 12.4611 7.59394 12.3784 7.5562 12.2873C7.51846 12.1961 7.49904 12.0985 7.49904 11.9999C7.49904 11.9013 7.51846 11.8036 7.5562 11.7125C7.59394 11.6214 7.64925 11.5386 7.71899 11.4689C7.78872 11.3991 7.8715 11.3438 7.96261 11.3061C8.05372 11.2684 8.15137 11.2489 8.24999 11.2489C8.3486 11.2489 8.44625 11.2684 8.53736 11.3061C8.62847 11.3438 8.71125 11.3991 8.78099 11.4689L10.5 13.1894L14.469 9.21888C14.5387 9.14903 14.6214 9.09362 14.7125 9.05581C14.8037 9.018 14.9013 8.99854 15 8.99854C15.0986 8.99854 15.1963 9.018 15.2874 9.05581C15.3786 9.09362 15.4613 9.14903 15.531 9.21888Z" fill="#960F19"/>
</svg>
