<svg width="8" height="395" viewBox="0 0 8 395" fill="none" xmlns="http://www.w3.org/2000/svg">
<g clip-path="url(#clip0)">
<path d="M0 2L6.81641 15.2068C7.55893 16.6454 7.55893 18.3546 6.81641 19.7932L1.18359 30.7068C0.441066 32.1454 0.441066 33.8546 1.18359 35.2932L6.81641 46.2068C7.55893 47.6454 7.55893 49.3546 6.81641 50.7932L1.18359 61.7068C0.441066 63.1454 0.441066 64.8546 1.18359 66.2932L6.81641 77.2068C7.55893 78.6454 7.55893 80.3546 6.81641 81.7932L1.18359 92.7068C0.441066 94.1454 0.441066 95.8546 1.18359 97.2932L6.81641 108.207C7.55893 109.645 7.55893 111.355 6.81641 112.793L1.18359 123.707C0.441066 125.145 0.441066 126.855 1.18359 128.293L6.81641 139.207C7.55893 140.645 7.55893 142.355 6.81641 143.793L1.18359 154.707C0.441066 156.145 0.441066 157.855 1.18359 159.293L6.81641 170.207C7.55893 171.645 7.55893 173.355 6.81641 174.793L1.18359 185.707C0.441066 187.145 0.441066 188.855 1.18359 190.293L6.81641 201.207C7.55893 202.645 7.55893 204.355 6.81641 205.793L0 219" stroke="#C9CDD5"/>
<path d="M0 219L6.81641 232.207C7.55893 233.645 7.55893 235.355 6.81641 236.793L1.18359 247.707C0.441066 249.145 0.441066 250.855 1.18359 252.293L6.81641 263.207C7.55893 264.645 7.55893 266.355 6.81641 267.793L1.18359 278.707C0.441066 280.145 0.441066 281.855 1.18359 283.293L6.81641 294.207C7.55893 295.645 7.55893 297.355 6.81641 298.793L1.18359 309.707C0.441066 311.145 0.441066 312.855 1.18359 314.293L6.81641 325.207C7.55893 326.645 7.55893 328.355 6.81641 329.793L1.18359 340.707C0.441066 342.145 0.441066 343.855 1.18359 345.293L6.81641 356.207C7.55893 357.645 7.55893 359.355 6.81641 360.793L1.18359 371.707C0.441066 373.145 0.441066 374.855 1.18359 376.293L6.81641 387.207C7.55893 388.645 7.55893 390.355 6.81641 391.793L1.18359 402.707C0.441066 404.145 0.441066 405.855 1.18359 407.293L6.81641 418.207C7.55893 419.645 7.55893 421.355 6.81641 422.793L0 436" stroke="#C9CDD5"/>
</g>
<defs>
<clipPath id="clip0">
<rect width="8" height="395" fill="white"/>
</clipPath>
</defs>
</svg>
