<svg width="16" height="1496" viewBox="0 0 16 1496" fill="none" xmlns="http://www.w3.org/2000/svg">
<rect x="9" width="1496" height="1.99993" transform="rotate(90 9 0)" fill="#960F19"/>
<circle cx="8" cy="12" r="8" fill="#960F19"/>
<path d="M12 12C12 14.2091 10.2091 16 8 16C5.79086 16 4 14.2091 4 12C4 9.79086 5.79086 8 8 8C10.2091 8 12 9.79086 12 12Z" fill="white"/>
<circle cx="8" cy="267" r="8" fill="#960F19"/>
<path d="M12 267C12 269.209 10.2091 271 8 271C5.79086 271 4 269.209 4 267C4 264.791 5.79086 263 8 263C10.2091 263 12 264.791 12 267Z" fill="white"/>
<circle cx="8" cy="522" r="8" fill="#960F19"/>
<path d="M12 522C12 524.209 10.2091 526 8 526C5.79086 526 4 524.209 4 522C4 519.791 5.79086 518 8 518C10.2091 518 12 519.791 12 522Z" fill="white"/>
<circle cx="8" cy="777" r="8" fill="#960F19"/>
<path d="M12 777C12 779.209 10.2091 781 8 781C5.79086 781 4 779.209 4 777C4 774.791 5.79086 773 8 773C10.2091 773 12 774.791 12 777Z" fill="white"/>
<circle cx="8" cy="1032" r="8" fill="#960F19"/>
<path d="M12 1032C12 1034.21 10.2091 1036 8 1036C5.79086 1036 4 1034.21 4 1032C4 1029.79 5.79086 1028 8 1028C10.2091 1028 12 1029.79 12 1032Z" fill="white"/>
<circle cx="8" cy="1287" r="8" fill="#960F19"/>
<path d="M12 1287C12 1289.21 10.2091 1291 8 1291C5.79086 1291 4 1289.21 4 1287C4 1284.79 5.79086 1283 8 1283C10.2091 1283 12 1284.79 12 1287Z" fill="white"/>
</svg>
