<svg width="1110" height="62" viewBox="0 0 1110 62" fill="none" xmlns="http://www.w3.org/2000/svg">
<rect y="31" width="1110" height="2" fill="#960F19"/>
<circle cx="38" cy="31" r="8" fill="#960F19"/>
<path d="M42 31C42 33.2091 40.2091 35 38 35C35.7909 35 34 33.2091 34 31C34 28.7909 35.7909 27 38 27C40.2091 27 42 28.7909 42 31Z" fill="white"/>
<circle cx="352" cy="31" r="8" fill="#960F19"/>
<path d="M356 31C356 33.2091 354.209 35 352 35C349.791 35 348 33.2091 348 31C348 28.7909 349.791 27 352 27C354.209 27 356 28.7909 356 31Z" fill="white"/>
<circle cx="398" cy="31" r="8" fill="#960F19"/>
<path d="M402 31C402 33.2091 400.209 35 398 35C395.791 35 394 33.2091 394 31C394 28.7909 395.791 27 398 27C400.209 27 402 28.7909 402 31Z" fill="white"/>
<circle cx="712" cy="31" r="8" fill="#960F19"/>
<path d="M716 31C716 33.2091 714.209 35 712 35C709.791 35 708 33.2091 708 31C708 28.7909 709.791 27 712 27C714.209 27 716 28.7909 716 31Z" fill="white"/>
<circle cx="758" cy="31" r="8" fill="#960F19"/>
<path d="M762 31C762 33.2091 760.209 35 758 35C755.791 35 754 33.2091 754 31C754 28.7909 755.791 27 758 27C760.209 27 762 28.7909 762 31Z" fill="white"/>
<circle cx="1073" cy="31" r="8" fill="#960F19"/>
<path d="M1077 31C1077 33.2091 1075.21 35 1073 35C1070.79 35 1069 33.2091 1069 31C1069 28.7909 1070.79 27 1073 27C1075.21 27 1077 28.7909 1077 31Z" fill="white"/>
<path d="M38 0V16" stroke="#960F19"/>
<path d="M353 46V62" stroke="#960F19"/>
<path d="M398 0V16" stroke="#960F19"/>
<path d="M713 46V62" stroke="#960F19"/>
<path d="M758 0V16" stroke="#960F19"/>
<path d="M1073 46V62" stroke="#960F19"/>
</svg>
