<svg width="56" height="56" viewBox="0 0 56 56" fill="none" xmlns="http://www.w3.org/2000/svg">
<circle cx="28" cy="28" r="28" fill="#960F19"/>
<g clip-path="url(#clip0)">
<rect width="24" height="24" transform="translate(16 16)" fill="#960F19"/>
<path d="M35.9659 20.1729C34.1337 17.5212 31.23 16 27.9998 16C24.7696 16 21.8658 17.5212 20.0336 20.1729C18.2104 22.8112 17.7894 26.1514 18.9052 29.1024C19.2037 29.9083 19.6781 30.6912 20.3119 31.4249L27.3609 39.7046C27.5203 39.892 27.7539 40 27.9998 40C28.2456 40 28.4792 39.8921 28.6386 39.7046L35.6856 31.4272C36.3223 30.6892 36.7961 29.9071 37.0921 29.1077C38.2101 26.1514 37.7891 22.8112 35.9659 20.1729ZM35.5206 28.52C35.2924 29.1368 34.9198 29.7466 34.4138 30.3331C34.4124 30.3345 34.411 30.336 34.4098 30.3376L27.9998 37.8666L21.5858 30.3329C21.08 29.7469 20.7074 29.1371 20.4769 28.5144C19.5542 26.0739 19.9044 23.3122 21.414 21.1273C22.9284 18.9354 25.329 17.6783 27.9998 17.6783C30.6705 17.6783 33.0708 18.9354 34.5852 21.1273C36.0952 23.3122 36.4457 26.0739 35.5206 28.52Z" fill="white"/>
<path d="M28.0001 20.9791C25.409 20.9791 23.3008 23.087 23.3008 25.6784C23.3008 28.2697 25.4088 30.3777 28.0001 30.3777C30.5914 30.3777 32.6994 28.2697 32.6994 25.6784C32.6994 23.0873 30.5912 20.9791 28.0001 20.9791ZM28.0001 28.6993C26.3343 28.6993 24.9791 27.3441 24.9791 25.6783C24.9791 24.0126 26.3343 22.6573 28.0001 22.6573C29.6658 22.6573 31.0211 24.0126 31.0211 25.6783C31.0211 27.3441 29.6658 28.6993 28.0001 28.6993Z" fill="white"/>
</g>
<defs>
<clipPath id="clip0">
<rect width="24" height="24" fill="white" transform="translate(16 16)"/>
</clipPath>
</defs>
</svg>
