<svg width="32" height="32" viewBox="0 0 32 32" fill="none" xmlns="http://www.w3.org/2000/svg">
<path fill-rule="evenodd" clip-rule="evenodd" d="M20.5476 5.02653L18.7056 3.13853L20.1356 1.74253L21.3796 3.01653L23.1596 2.99453C23.9301 2.98541 24.6946 3.13044 25.4082 3.4211C26.1219 3.71176 26.7702 4.14218 27.315 4.68705C27.8599 5.23191 28.2903 5.88022 28.581 6.59385C28.8716 7.30748 29.0167 8.07203 29.0076 8.84253L28.9876 10.6225L30.2596 11.8665C30.8105 12.4049 31.2482 13.0479 31.5471 13.7578C31.846 14.4677 32 15.2303 32 16.0005C32 16.7708 31.846 17.5333 31.5471 18.2432C31.2482 18.9532 30.8105 19.5962 30.2596 20.1345L28.9856 21.3785L29.0076 23.1585C29.0167 23.929 28.8716 24.6936 28.581 25.4072C28.2903 26.1208 27.8599 26.7691 27.315 27.314C26.7702 27.8589 26.1219 28.2893 25.4082 28.58C24.6946 28.8706 23.9301 29.0156 23.1596 29.0065L21.3796 28.9865L20.1356 30.2585C19.5972 30.8094 18.9542 31.2472 18.2443 31.5461C17.5343 31.845 16.7718 31.9989 16.0016 31.9989C15.2313 31.9989 14.4688 31.845 13.7589 31.5461C13.0489 31.2472 12.4059 30.8094 11.8676 30.2585L10.6236 28.9845L8.84356 29.0065C8.07306 29.0156 7.30852 28.8706 6.59489 28.58C5.88126 28.2893 5.23295 27.8589 4.68808 27.314C4.14322 26.7691 3.7128 26.1208 3.42214 25.4072C3.13148 24.6936 2.98644 23.929 2.99556 23.1585L3.01556 21.3785L1.74356 20.1345C1.19264 19.5962 0.754885 18.9532 0.45601 18.2432C0.157135 17.5333 0.00317383 16.7708 0.00317383 16.0005C0.00317383 15.2303 0.157135 14.4677 0.45601 13.7578C0.754885 13.0479 1.19264 12.4049 1.74356 11.8665L3.01756 10.6225L2.99556 8.84253C2.98644 8.07203 3.13148 7.30748 3.42214 6.59385C3.7128 5.88022 4.14322 5.23191 4.68808 4.68705C5.23295 4.14218 5.88126 3.71176 6.59489 3.4211C7.30852 3.13044 8.07306 2.98541 8.84356 2.99453L10.6236 3.01453L11.8676 1.74253C12.4059 1.19161 13.0489 0.753848 13.7589 0.454973C14.4688 0.156098 15.2313 0.00213623 16.0016 0.00213623C16.7718 0.00213623 17.5343 0.156098 18.2443 0.454973C18.9542 0.753848 19.5972 1.19161 20.1356 1.74253L18.7056 3.13853C18.3535 2.7781 17.9329 2.4917 17.4685 2.29616C17.0042 2.10062 16.5054 1.99989 16.0016 1.99989C15.4977 1.99989 14.9989 2.10062 14.5346 2.29616C14.0702 2.4917 13.6496 2.7781 13.2976 3.13853L11.4576 5.02653L8.81756 4.99453C8.31392 4.9889 7.81423 5.08398 7.34785 5.27418C6.88147 5.46439 6.4578 5.74588 6.10174 6.10213C5.74568 6.45837 5.46441 6.88218 5.27445 7.34866C5.08449 7.81515 4.98967 8.31489 4.99556 8.81853L5.02756 11.4545L3.13956 13.2965C2.77914 13.6486 2.49273 14.0692 2.29719 14.5335C2.10166 14.9979 2.00092 15.4967 2.00092 16.0005C2.00092 16.5044 2.10166 17.0031 2.29719 17.4675C2.49273 17.9319 2.77914 18.3524 3.13956 18.7045L5.02756 20.5445L4.99556 23.1845C4.98993 23.6882 5.08501 24.1879 5.27522 24.6542C5.46542 25.1206 5.74692 25.5443 6.10316 25.9003C6.45941 26.2564 6.88322 26.5377 7.3497 26.7276C7.81618 26.9176 8.31592 27.0124 8.81956 27.0065L11.4556 26.9745L13.2976 28.8625C13.6496 29.223 14.0702 29.5094 14.5346 29.7049C14.9989 29.9004 15.4977 30.0012 16.0016 30.0012C16.5054 30.0012 17.0042 29.9004 17.4685 29.7049C17.9329 29.5094 18.3535 29.223 18.7056 28.8625L20.5456 26.9745L23.1856 27.0065C23.6892 27.0122 24.1889 26.9171 24.6553 26.7269C25.1217 26.5367 25.5453 26.2552 25.9014 25.8989C26.2574 25.5427 26.5387 25.1189 26.7287 24.6524C26.9186 24.1859 27.0135 23.6862 27.0076 23.1825L26.9756 20.5465L28.8636 18.7045C29.224 18.3524 29.5104 17.9319 29.7059 17.4675C29.9015 17.0031 30.0022 16.5044 30.0022 16.0005C30.0022 15.4967 29.9015 14.9979 29.7059 14.5335C29.5104 14.0692 29.224 13.6486 28.8636 13.2965L26.9756 11.4565L27.0076 8.81653C27.0132 8.31288 26.9181 7.81319 26.7279 7.34681C26.5377 6.88043 26.2562 6.45676 25.9 6.10071C25.5437 5.74465 25.1199 5.46337 24.6534 5.27341C24.1869 5.08345 23.6872 4.98863 23.1836 4.99453L20.5476 5.02653Z" fill="white"/>
<path fill-rule="evenodd" clip-rule="evenodd" d="M20.708 12.292C20.8011 12.3848 20.875 12.4952 20.9254 12.6167C20.9758 12.7382 21.0018 12.8684 21.0018 13C21.0018 13.1315 20.9758 13.2617 20.9254 13.3832C20.875 13.5047 20.8011 13.6151 20.708 13.708L14.708 19.708C14.6151 19.8011 14.5047 19.875 14.3832 19.9254C14.2618 19.9758 14.1315 20.0017 14 20.0017C13.8684 20.0017 13.7382 19.9758 13.6167 19.9254C13.4952 19.875 13.3849 19.8011 13.292 19.708L10.292 16.708C10.199 16.615 10.1253 16.5046 10.0749 16.3831C10.0246 16.2616 9.99872 16.1314 9.99872 16C9.99872 15.8685 10.0246 15.7383 10.0749 15.6168C10.1253 15.4953 10.199 15.3849 10.292 15.292C10.385 15.199 10.4953 15.1252 10.6168 15.0749C10.7383 15.0246 10.8685 14.9987 11 14.9987C11.1315 14.9987 11.2617 15.0246 11.3831 15.0749C11.5046 15.1252 11.615 15.199 11.708 15.292L14 17.586L19.292 12.292C19.3849 12.1988 19.4952 12.1249 19.6167 12.0745C19.7382 12.0241 19.8684 11.9982 20 11.9982C20.1315 11.9982 20.2618 12.0241 20.3832 12.0745C20.5047 12.1249 20.6151 12.1988 20.708 12.292Z" fill="white"/>
</svg>
