<svg width="208" height="86" viewBox="0 0 208 86" fill="none" xmlns="http://www.w3.org/2000/svg">
<g clip-path="url(#clip0)">
<path d="M207.376 73.7113H0V71.4836H207.376V73.7113ZM102.794 39.0937C101.109 39.0937 99.7464 40.4511 99.7464 42.1296C99.7464 43.8082 101.109 45.1655 102.794 45.1655C104.478 45.1655 105.841 43.8082 105.841 42.1296C105.841 40.4511 104.478 39.0937 102.794 39.0937ZM185.006 43.0104H152.069V38.1405L148.678 39.7776L145.288 38.1405V43.0104H137.966V38.1405L134.576 39.7776L131.186 38.1405V43.0104H123.864V38.1405L120.474 39.7776L117.083 38.1405V43.0104H109.647V30.2243L108.233 32.3795V22.7434L106.319 25.0747L102.804 3.77157L99.2784 25.0851L97.3648 22.7537V32.3899L95.9504 30.2347V43.0207H87.5576V38.1508L84.1672 39.788L80.7768 38.1508V43.0207H73.4552V38.1508L70.0648 39.788L66.6744 38.1508V43.0207H59.3528V38.1508L55.9624 39.788L52.572 38.1508V43.0207H24.4088V45.2484H54.8288V41.7152L55.9832 42.2747L57.1376 41.7152V45.2588H68.9312V41.7255L70.0856 42.2851L71.24 41.7255V45.2692H83.0336V41.7359L84.188 42.2954L85.3424 41.7359V45.2795H98.2072V37.7467L99.6216 39.9019V28.9913L100.703 30.3072L102.825 17.4694L104.946 30.3072L106.028 28.9913V39.8605L107.442 37.7053V45.2381H119.35V41.7048L120.505 42.2643L121.659 41.7048V45.2484H133.453V41.7152L134.607 42.2747L135.762 41.7152V45.2588H147.555V41.7255L148.71 42.2851L149.864 41.7255V45.2692H185.037V43.0104H185.006ZM102.794 0L102.086 1.42988L100.506 1.65783L101.65 2.76651L101.379 4.33108L102.794 3.59542L104.208 4.33108L103.938 2.76651L105.082 1.65783L103.501 1.42988L102.794 0Z" fill="#960F19"/>
<path d="M0.468 84.9533V79.2648H3.4736C4.5552 79.2648 5.1168 79.9591 5.1168 80.7154C5.1168 81.4304 4.6696 81.907 4.1392 82.021C4.7424 82.1142 5.2312 82.7048 5.2312 83.4198C5.2312 84.2694 4.6592 84.9533 3.5672 84.9533H0.468ZM3.8688 80.9227C3.8688 80.56 3.6088 80.301 3.2032 80.301H1.6848V81.534H3.2032C3.6192 81.5444 3.8688 81.2853 3.8688 80.9227ZM3.9832 83.2436C3.9832 82.881 3.7232 82.5805 3.2448 82.5805H1.6848V83.9068H3.2448C3.7128 83.8964 3.9832 83.6581 3.9832 83.2436ZM11.6376 79.2648V81.2853H13.0936C14.3208 81.2853 15.0072 82.135 15.0072 83.1193C15.0072 84.114 14.3312 84.9533 13.0936 84.9533H10.4208V79.2648H11.6376ZM11.6376 82.3526V83.886H12.9272C13.4056 83.886 13.7696 83.5959 13.7696 83.1193C13.7696 82.653 13.416 82.3526 12.9272 82.3526H11.6376ZM15.4856 84.9533V79.2648H16.7128V84.9533H15.4856ZM21.8504 82.1142C21.8504 80.3632 23.1816 79.1716 24.8872 79.1716C26.1456 79.1716 26.8736 79.8554 27.2688 80.56L26.2288 81.0677C25.9896 80.6118 25.48 80.2388 24.8872 80.2388C23.8576 80.2388 23.0984 81.0366 23.0984 82.1039C23.0984 83.1815 23.8472 83.9689 24.8872 83.9689C25.48 83.9689 25.9896 83.6063 26.2288 83.14L27.2688 83.6477C26.8632 84.3523 26.1352 85.0465 24.8872 85.0465C23.1712 85.0569 21.8504 83.855 21.8504 82.1142ZM32.0008 82.1142C32.0008 80.3942 33.2592 79.1716 34.9752 79.1716C36.7016 79.1716 37.96 80.4046 37.96 82.1142C37.96 83.8239 36.7016 85.0569 34.9752 85.0569C33.2592 85.0569 32.0008 83.8239 32.0008 82.1142ZM36.7224 82.1142C36.7224 81.047 36.036 80.2492 34.9856 80.2492C33.9352 80.2492 33.2592 81.047 33.2592 82.1142C33.2592 83.1711 33.9352 83.9793 34.9856 83.9793C36.036 83.9793 36.7224 83.1711 36.7224 82.1142ZM46.4984 84.9533L44.772 82.6738L44.3248 83.2022V84.9533H43.108V79.2648H44.3248V81.8034L46.3424 79.2648H47.84L45.5728 81.9381L47.996 84.9533H46.4984ZM52.156 82.1142C52.156 80.3942 53.4144 79.1716 55.1304 79.1716C56.8568 79.1716 58.1152 80.4046 58.1152 82.1142C58.1152 83.8239 56.8568 85.0569 55.1304 85.0569C53.4144 85.0569 52.156 83.8239 52.156 82.1142ZM56.8672 82.1142C56.8672 81.047 56.1808 80.2492 55.1304 80.2492C54.08 80.2492 53.404 81.047 53.404 82.1142C53.404 83.1711 54.08 83.9793 55.1304 83.9793C56.1808 83.9793 56.8672 83.1711 56.8672 82.1142ZM67.1632 84.9533V80.3321H64.4696V84.9533H63.2528V79.2648H68.38V84.9533H67.1632ZM73.788 84.9533V79.2648H76.4608C77.6984 79.2648 78.3744 80.1041 78.3744 81.0988C78.3744 82.0831 77.688 82.9328 76.4608 82.9328H75.0048V84.9533H73.788ZM77.1368 81.0988C77.1368 80.6222 76.7728 80.3321 76.2944 80.3321H75.0048V81.8656H76.2944C76.7728 81.8656 77.1368 81.5651 77.1368 81.0988ZM83.1376 82.1142C83.1376 80.3942 84.396 79.1716 86.112 79.1716C87.8384 79.1716 89.0968 80.4046 89.0968 82.1142C89.0968 83.8239 87.8384 85.0569 86.112 85.0569C84.396 85.0569 83.1376 83.8239 83.1376 82.1142ZM87.8488 82.1142C87.8488 81.047 87.1624 80.2492 86.112 80.2492C85.0616 80.2492 84.3856 81.047 84.3856 82.1142C84.3856 83.1711 85.0616 83.9793 86.112 83.9793C87.1624 83.9793 87.8488 83.1711 87.8488 82.1142ZM95.108 80.8605C95.108 81.6065 95.4928 81.8966 96.148 81.8966C96.5536 81.8966 96.9384 81.8241 97.2296 81.7101V79.2752H98.4464V84.9636H97.2296V82.767C96.8656 82.881 96.4288 82.9535 96.0024 82.9535C94.5464 82.9535 93.8808 82.1142 93.8808 80.8605V79.2648H95.108V80.8605ZM107.775 84.9533V82.5701H105.082V84.9533H103.865V79.2648H105.082V81.5029H107.775V79.2648H109.002V84.9533H107.775ZM118.342 84.9533L117.988 83.9897H115.544L115.19 84.9533H113.807L116.012 79.2648H117.53L119.735 84.9533H118.342ZM116.761 80.4771L115.877 82.9224H117.655L116.761 80.4771ZM124.29 84.9533L125.57 82.7877C124.956 82.6427 124.322 82.1039 124.322 81.0988C124.322 80.0419 125.05 79.2648 126.235 79.2648H128.908V84.9533H127.691V82.9328H126.807L125.674 84.9533H124.29ZM127.691 81.8656V80.3321H126.422C125.934 80.3321 125.57 80.6222 125.57 81.0988C125.57 81.5754 125.934 81.8656 126.422 81.8656H127.691ZM142.106 84.9533V80.3321H140.442V79.2648H144.997V80.3321H143.333V84.9533H142.106ZM150.051 84.9533V79.2648H154.086V80.3321H151.268V81.534H154.034V82.6012H151.268V83.886H154.086V84.9533H150.051ZM164.362 84.9533V80.3321H161.668V84.9533H160.451V79.2648H165.578V84.9533H164.362ZM170.643 83.9793C171.215 83.9793 171.548 83.6684 171.725 82.1764L172.058 79.2648H176.114V84.9533H174.897V80.3321H173.16L172.942 82.2593C172.671 84.6217 171.808 85.0569 170.654 85.0569V83.9793H170.643ZM181.522 84.9533V79.2648H182.738V82.9432L185.38 79.2648H186.628V84.9533H185.411V81.1403L182.697 84.9533H181.522ZM196.477 84.9533H192.046V79.2648H193.263V83.886H195.957V79.2648H197.184V83.886H197.694V85.9998H196.477V84.9533ZM206.617 84.9533L206.263 83.9897H203.819L203.466 84.9533H202.082L204.287 79.2648H205.806L208 84.9533H206.617ZM205.036 80.4771L204.152 82.9224H205.93L205.036 80.4771ZM6.5 56.0552L6.7704 56.4075L13.78 65.6499H19.0424L9.516 53.786L9.3392 53.5581L9.5264 53.3405L18.3768 42.9272H13.1456L4.94 53.268L4.3056 54.0554V53.04V42.9272H0V65.6603H4.2952V58.8113V58.687L4.3784 58.5938L6.2088 56.4178L6.5 56.0552ZM24.4088 66.0022V51.921H31.0128C34.0808 51.921 35.7552 53.9933 35.7552 56.4593C35.7552 58.9046 34.06 60.9976 31.0128 60.9976H27.4144V66.0022H24.4088ZM32.6872 56.4593C32.6872 55.2781 31.7928 54.5631 30.6072 54.5631H27.4144V58.3658H30.6176C31.7928 58.3554 32.6872 57.6198 32.6872 56.4593ZM41.86 66.0022V51.921H51.8544V54.5631H44.8656V57.5369H51.7088V60.1791H44.8656V63.3704H51.8544V66.0125H41.86V66.0022ZM70.72 66.0022V56.1484L66.7368 66.0022H65.4264L61.4432 56.1484V66.0022H58.4376V51.921H62.6496L66.0816 60.4277L69.5136 51.921H73.7464V66.0022H70.72ZM79.9344 63.5983C81.3488 63.5983 82.1808 62.8419 82.628 59.1222L83.4496 51.921H93.4856V66.0022H90.4592V54.5631H86.164L85.6128 59.3294C84.9368 65.1733 82.8152 66.2509 79.9344 66.2509V63.5983ZM100.495 66.0022V51.921H110.49V54.5631H103.501V57.5369H110.344V60.1791H103.501V63.3704H110.49V66.0125H100.495V66.0022ZM117.073 66.0022V51.921H124.509C127.202 51.921 128.575 53.6306 128.575 55.5164C128.575 57.2882 127.473 58.4694 126.142 58.7492C127.65 58.9771 128.856 60.4381 128.856 62.2099C128.856 64.3236 127.442 66.0125 124.748 66.0125H117.073V66.0022ZM125.497 56.0345C125.497 55.1538 124.862 54.4906 123.843 54.4906H120.068V57.5472H123.843C124.862 57.5576 125.497 56.9256 125.497 56.0345ZM125.778 61.7747C125.778 60.8836 125.143 60.1272 123.958 60.1272H120.078V63.4015H123.958C125.091 63.4015 125.778 62.7901 125.778 61.7747ZM134.67 58.9668C134.67 54.6357 137.956 51.6827 142.189 51.6827C145.298 51.6827 147.098 53.3716 148.096 55.1227L145.517 56.3868C144.924 55.247 143.655 54.3352 142.189 54.3352C139.63 54.3352 137.758 56.3039 137.758 58.9564C137.758 61.6193 139.62 63.5776 142.189 63.5776C143.655 63.5776 144.924 62.6865 145.517 61.526L148.096 62.7694C147.077 64.5205 145.298 66.2301 142.189 66.2301C137.956 66.2509 134.67 63.2978 134.67 58.9668ZM162.51 66.0022L158.236 60.3656L157.134 61.6711V66.0022H154.128V51.921H157.134V58.2104L162.136 51.921H165.838L160.222 58.5316L166.213 66.0022H162.51ZM181.574 66.0022L180.7 63.6191H174.647L173.753 66.0022H170.321L175.781 51.921H179.546L184.985 66.0022H181.574ZM177.674 54.9154L175.469 60.9769H179.878L177.674 54.9154ZM203.164 65.6499H207.366V43.3624H196.924C192.504 43.3624 189.53 46.2015 189.53 50.4186C189.53 54.3663 191.994 56.3557 194.303 56.9048L194.771 57.0188L194.532 57.4333L189.654 65.6603H194.47L198.931 57.6716L199.035 57.4954H199.243H202.8H203.154V57.8477V65.6499H203.164ZM202.81 53.8689H197.662C195.416 53.8689 193.846 52.4494 193.846 50.4186C193.846 48.3877 195.416 46.9682 197.662 46.9682H202.81H203.164V47.3205V53.527V53.8793H202.81V53.8689Z" fill="white"/>
</g>
<defs>
<clipPath id="clip0">
<rect width="208" height="86" fill="white"/>
</clipPath>
</defs>
</svg>
