<svg width="16" height="16" viewBox="0 0 16 16" fill="none" xmlns="http://www.w3.org/2000/svg">
<path d="M5.09322 0H1.7037C1.46163 0.0186596 1.22562 0.0849176 1.00919 0.194978C0.792761 0.305039 0.600169 0.456739 0.442448 0.641386C0.284727 0.826033 0.164977 1.04 0.090059 1.27102C0.0151412 1.50205 -0.0134719 1.74559 0.00585927 1.98769C0.245771 5.10154 1.96206 15.3046 14.0499 16L5.09322 0ZM5.09322 0C5.33962 -0.000238047 5.58042 0.073545 5.78443 0.211792C5.98843 0.35004 6.14624 0.546382 6.23741 0.775385L5.09322 0ZM14.0644 15.5C8.19439 15.1584 4.88928 12.5248 3.00397 9.62803C1.09964 6.70207 0.621477 3.46908 0.504382 1.94928L0.504384 1.94928L0.504273 1.9479C0.490175 1.77134 0.511042 1.59373 0.565676 1.42526C0.620309 1.25679 0.707632 1.10076 0.822633 0.966131C0.937634 0.831497 1.07805 0.720897 1.23583 0.64066C1.38834 0.563103 1.55419 0.515385 1.72446 0.500001L5.09322 0.500001L5.0937 0.5C5.23993 0.499859 5.38284 0.543643 5.50393 0.625704C5.62503 0.707766 5.71873 0.824333 5.77287 0.960326L5.77286 0.960331L5.77418 0.963581L6.7086 3.26358C6.70869 3.26381 6.70878 3.26404 6.70888 3.26427C6.76211 3.39694 6.77529 3.54234 6.74676 3.68244C6.71818 3.82279 6.64902 3.95162 6.54789 4.05294L6.54651 4.05432L5.23623 5.3774L5.05425 5.56115L5.09906 5.81586C5.32147 7.08025 5.92676 8.24581 6.83307 9.15484C7.73938 10.0639 8.90296 10.6725 10.1664 10.8984L10.422 10.944L10.6064 10.7613L11.9394 9.44003C12.042 9.34074 12.1714 9.27371 12.3116 9.2472C12.4525 9.22058 12.5981 9.23603 12.7303 9.29164L12.7302 9.29171L12.7382 9.2949L15.0536 10.2226C15.1862 10.2786 15.2994 10.3726 15.3788 10.4928C15.4588 10.6138 15.501 10.7559 15.5 10.9011H15.5V10.9046V14.1538C15.5 14.5109 15.3582 14.8533 15.1058 15.1058C14.8535 15.3582 14.5113 15.5 14.1545 15.5H14.0644ZM0.736175 1.89539V1.91477L0.737677 1.93411C0.882288 3.79587 1.41879 6.96059 3.32638 9.74994C5.25146 12.5649 8.54319 14.9516 14.0879 15.2684C14.2341 15.2772 14.3805 15.2572 14.5189 15.2095C14.6577 15.1617 14.7857 15.0869 14.8955 14.9895L14.5637 14.6154L14.8955 14.9895C15.0053 14.8921 15.0948 14.7739 15.1589 14.6418C15.2229 14.5098 15.2603 14.3663 15.2688 14.2198L15.2697 14.2053V14.1908V10.9046V10.5663L14.9556 10.4405L12.6365 9.51126L12.3313 9.38899L12.0981 9.62066L10.5054 11.2029L10.4519 11.1962C10.4519 11.1962 10.4518 11.1962 10.4518 11.1962C7.96363 10.8843 6.56495 9.49579 5.77358 8.16586C5.37504 7.4961 5.13203 6.84187 4.98902 6.35139C4.91769 6.10676 4.87182 5.90485 4.84408 5.76481C4.83022 5.69479 4.82099 5.64078 4.81544 5.60521C4.81402 5.59611 4.81287 5.58843 4.81197 5.58216V5.58119L4.80811 5.55031L4.80131 5.4959L6.37758 3.9024L6.60758 3.66988L6.48671 3.36598L5.56397 1.04598L5.4386 0.73077H5.09937H1.85133C1.55552 0.73077 1.27185 0.848328 1.06273 1.05752C0.853621 1.26671 0.736175 1.5504 0.736175 1.84615V1.89539ZM4.80878 5.5576C4.80883 5.55777 4.80917 5.56041 4.8096 5.56486C4.80894 5.55964 4.80872 5.55743 4.80878 5.5576Z" fill="none" stroke="white"/>
</svg>
